<?xml version="1.0" encoding="utf-8"?>
<!-- Generator: Adobe Illustrator 24.0.2, SVG Export Plug-In . SVG Version: 6.00 Build 0)  -->
<svg version="1.1" id="Layer_1" focusable="false" xmlns="http://www.w3.org/2000/svg" xmlns:xlink="http://www.w3.org/1999/xlink"
	 x="0px" y="0px" viewBox="0 0 496 512" style="enable-background:new 0 0 496 512;" xml:space="preserve">
<style type="text/css">
	.st0{fill:#FFFFFF;}
</style>
<path d="M247,3.5c-137,0-248,111-248,248s111,248,248,248s248-111,248-248S384,3.5,247,3.5z M335.8,157.4l-4.5,21.4"/>
<path d="M169.2,237.1"/>
<path d="M255,194"/>
<path d="M369.8,328"/>
<path d="M370,325"/>
<path d="M400,373"/>
<path d="M321,374"/>
<path class="st0" d="M247,198.1c-29.5,0-53.3,23.9-53.3,53.4c0,29.5,23.9,53.3,53.4,53.3c29.5,0,53.3-23.9,53.3-53.3
	C300.3,222,276.4,198.1,247,198.1z M371.7,157.1c-5.5-13.9-16.5-24.9-30.4-30.4c-21-8.3-71-6.4-94.3-6.4s-73.3-1.9-94.3,6.4
	c-13.9,5.5-24.9,16.5-30.4,30.4c-8.3,21-6.4,71.1-6.4,94.3s-1.8,73.3,6.5,94.3c5.5,13.9,16.5,24.9,30.4,30.4c21,8.3,71,6.4,94.3,6.4
	s73.2,1.9,94.3-6.4c13.9-5.5,24.9-16.5,30.4-30.4c8.4-21,6.4-71.1,6.4-94.3S380.1,178.2,371.7,157.1L371.7,157.1z M247,333.5
	c-45.3,0-82-36.7-82-82s36.7-82,82-82s82,36.7,82,82c0.1,45.2-36.6,81.9-81.8,82C247.1,333.5,247,333.5,247,333.5z M332.4,185.2
	c-10.6,0-19.1-8.6-19.1-19.1s8.6-19.1,19.1-19.1c10.6,0,19.1,8.6,19.1,19.1c0,0,0,0,0,0c0,10.5-8.5,19.1-19,19.2
	C332.4,185.2,332.4,185.2,332.4,185.2L332.4,185.2z M405.9,317.5c-1.3,25.6-7.1,48.3-25.9,67s-41.4,24.6-67,25.9
	c-26.4,1.5-105.6,1.5-132,0c-25.6-1.3-48.3-7.1-67-25.9s-24.6-41.4-25.8-67c-1.5-26.4-1.5-105.6,0-132c1.3-25.6,7.1-48.3,25.8-67
	s41.5-24.6,67-25.8c26.4-1.5,105.6-1.5,132,0c25.6,1.3,48.3,7.2,67,25.8s24.6,41.4,25.9,67C407.3,211.9,407.3,291,405.9,317.5z"/>
</svg>
