<?xml version="1.0" encoding="utf-8"?>
<!-- Generator: Adobe Illustrator 24.0.2, SVG Export Plug-In . SVG Version: 6.00 Build 0)  -->
<svg version="1.1" id="Layer_1" focusable="false" xmlns="http://www.w3.org/2000/svg" xmlns:xlink="http://www.w3.org/1999/xlink"
	 x="0px" y="0px" viewBox="0 0 496 512" style="enable-background:new 0 0 496 512;" xml:space="preserve">
<style type="text/css">
	.st0{fill:#FFFFFF;}
</style>
<path d="M247,3.5c-137,0-248,111-248,248s111,248,248,248s248-111,248-248S384,3.5,247,3.5z M335.8,157.4l-4.5,21.4"/>
<path d="M169.2,237.1"/>
<path d="M255,194"/>
<path d="M369.8,328"/>
<path d="M370,325"/>
<path d="M400,373"/>
<path d="M321,374"/>
<path class="st0" d="M321,278c-4-2-23.5-11.6-27.1-12.9c-3.6-1.3-6.3-2-8.9,2c-2.6,3.9-10.2,12.9-12.5,15.5c-2.3,2.7-4.6,3-8.6,1
	c-23.3-11.7-38.6-20.8-53.9-47.1c-4.1-7,4-6.4,11.6-21.6c1.4-2.6,0.7-4.9-0.3-6.9s-8.9-21.5-12.2-29.4c-3.2-7.7-6.5-6.7-8.9-6.8
	c-2.3-0.1-5-0.1-7.6-0.1c-2.7,0-7,1-10.6,5c-3.7,4-13.9,13.6-13.9,33.1s14.2,38.4,16.2,41s28,42.6,67.7,59.8
	c25.1,10.8,34.9,11.8,47.5,9.9c7.6-1.1,23.4-9.5,26.7-18.8c3.3-9.2,3.3-17.2,2.4-19.1C327.6,281,325,280,321,278z"/>
<path class="st0" d="M248.6,86.5C161.2,86.5,90.1,157.6,90,245c0,28,7.3,55.3,21.2,79.3l-22.5,82.2l84.1-22.1
	c23.1,12.6,49.2,19.3,75.8,19.3c87.4,0,160.1-71.1,160.1-158.5c0-42.4-18-82.2-47.9-112.2C330.8,103,291,86.5,248.6,86.5z
	 M248.7,377L248.7,377c-23.8,0-47-6.4-67.2-18.4l-4.8-2.9l-49.9,13.1l13.3-48.6l-3.1-5c-13.2-20.9-20.2-45.2-20.2-70.1
	c0.1-72.7,59.2-131.8,131.9-131.8c35.2,0,68.2,13.7,93.2,38.7c24.9,24.9,40.1,58,40.1,93.2C382,317.9,321.3,377,248.7,377z"/>
</svg>
