<svg id="Layer_1" data-name="Layer 1" xmlns="http://www.w3.org/2000/svg" viewBox="0 0 167.27 236.12"><defs><style>.cls-1{fill:#e44d26;}.cls-2{fill:#f16529;}.cls-3{fill:#ebebeb;}.cls-4{fill:#fff;}</style></defs><title>html</title><path class="cls-1" d="M363.76,72.09l-15.24,170.7-68.5,19-68.31-19L196.49,72.09Z" transform="translate(-196.49 -25.67)"/><path class="cls-2" d="M280.12,247.27l55.35-15.34,13-145.88H280.12Z" transform="translate(-196.49 -25.67)"/><path d="M212.06,25.67H222.7V36.18h9.73V25.67h10.64V57.51H232.43V46.87H222.7V57.53H212.06Zm45,10.56h-9.37V25.67h29.38V36.23H267.7V57.51H257.07V36.25h0Zm24.68-10.56h11.1l6.83,11.19,6.82-11.19h11.1V57.51H307V41.75l-7.32,11.32h-.18l-7.33-11.32V57.53H281.74Zm41.14,0h10.64V47h15V57.5H322.91V25.67Z" transform="translate(-196.49 -25.67)"/><path class="cls-3" d="M252.11,124.14h29.62V103.2h-52.5l.5,5.62,5.15,57.7h46.86V145.58H254ZM256.86,177h-21l2.94,32.89,42.84,11.94h.1V200h-.09l-23.32-6.3Z" transform="translate(-196.49 -25.67)"/><path class="cls-4" d="M281,166.53h25.78l-2.43,27.16L281,200v21.83L324,209.89l.31-3.54,5-55.1.51-5.62H281v20.9Zm0-42.43v.05h50.58l.42-4.71,1-10.62.5-5.62H281v20.89Z" transform="translate(-196.49 -25.67)"/></svg>