<svg id="Illustration" xmlns="http://www.w3.org/2000/svg" xmlns:xlink="http://www.w3.org/1999/xlink" viewBox="0 0 1080.35 652.18"><defs><style>.cls-1{opacity:0.7;}.cls-11,.cls-2,.cls-3,.cls-43{opacity:0.5;}.cls-2{fill:url(#linear-gradient);}.cls-3{fill:url(#linear-gradient-2);}.cls-4{opacity:0.6;}.cls-5{fill:url(#linear-gradient-3);}.cls-31,.cls-6{opacity:0.4;}.cls-6{fill:url(#linear-gradient-4);}.cls-7{fill:url(#linear-gradient-5);}.cls-11,.cls-117,.cls-14,.cls-15,.cls-48,.cls-49,.cls-51,.cls-79,.cls-8,.cls-81{fill:#fff;}.cls-8{opacity:0.71;}.cls-9{fill:url(#linear-gradient-6);}.cls-10{fill:url(#linear-gradient-7);}.cls-12{fill:url(#linear-gradient-8);}.cls-13{opacity:0.85;}.cls-15{opacity:0.62;}.cls-16{fill:url(#linear-gradient-9);}.cls-17{fill:url(#linear-gradient-10);}.cls-18{fill:url(#linear-gradient-11);}.cls-19{fill:url(#linear-gradient-12);}.cls-20{fill:url(#linear-gradient-13);}.cls-21{fill:url(#linear-gradient-14);}.cls-22{fill:url(#linear-gradient-15);}.cls-23{fill:url(#linear-gradient-16);}.cls-24{fill:url(#linear-gradient-17);}.cls-25{fill:url(#linear-gradient-18);}.cls-26{fill:url(#linear-gradient-19);}.cls-27{fill:url(#linear-gradient-20);}.cls-28{fill:url(#linear-gradient-21);}.cls-29{fill:url(#linear-gradient-22);}.cls-30{fill:url(#linear-gradient-23);}.cls-32{fill:url(#linear-gradient-24);}.cls-33{fill:url(#linear-gradient-25);}.cls-34{fill:url(#linear-gradient-26);}.cls-35{fill:url(#linear-gradient-27);}.cls-36{fill:url(#linear-gradient-28);}.cls-37{fill:url(#linear-gradient-29);}.cls-38{fill:url(#linear-gradient-30);}.cls-39{fill:url(#linear-gradient-31);}.cls-40{fill:url(#linear-gradient-32);}.cls-41{fill:url(#linear-gradient-33);}.cls-42{fill:url(#linear-gradient-34);}.cls-44{fill:url(#linear-gradient-35);}.cls-45{fill:url(#linear-gradient-36);}.cls-46{fill:url(#linear-gradient-37);}.cls-47{fill:url(#linear-gradient-38);}.cls-48{opacity:0.65;}.cls-124,.cls-49,.cls-84{opacity:0.3;}.cls-50{fill:url(#linear-gradient-39);}.cls-51,.cls-55{opacity:0.64;}.cls-52{fill:url(#linear-gradient-40);}.cls-53{fill:url(#linear-gradient-41);}.cls-54{fill:url(#linear-gradient-42);}.cls-56{fill:url(#linear-gradient-43);}.cls-57{fill:url(#linear-gradient-44);}.cls-58{fill:url(#linear-gradient-45);}.cls-59{fill:url(#linear-gradient-46);}.cls-60{fill:url(#linear-gradient-47);}.cls-61{fill:url(#linear-gradient-48);}.cls-62{fill:url(#linear-gradient-49);}.cls-63{fill:url(#linear-gradient-50);}.cls-64{fill:url(#linear-gradient-51);}.cls-65{fill:url(#linear-gradient-52);}.cls-66{fill:url(#linear-gradient-53);}.cls-67{fill:url(#linear-gradient-54);}.cls-68{fill:url(#linear-gradient-55);}.cls-69{fill:url(#linear-gradient-56);}.cls-70{fill:url(#linear-gradient-57);}.cls-71{fill:url(#linear-gradient-58);}.cls-72{fill:url(#linear-gradient-59);}.cls-73{fill:url(#linear-gradient-60);}.cls-74{fill:url(#linear-gradient-61);}.cls-75{fill:url(#linear-gradient-62);}.cls-76{fill:url(#linear-gradient-63);}.cls-77{fill:url(#linear-gradient-64);}.cls-78{fill:url(#linear-gradient-65);}.cls-79{opacity:0.37;}.cls-80{fill:url(#linear-gradient-66);}.cls-81{opacity:0.75;}.cls-82{fill:url(#linear-gradient-67);}.cls-83{fill:url(#linear-gradient-68);}.cls-84{fill:url(#linear-gradient-69);}.cls-85,.cls-86{opacity:0.63;}.cls-85{fill:url(#linear-gradient-70);}.cls-86{fill:url(#linear-gradient-71);}.cls-87{fill:url(#linear-gradient-72);}.cls-88{fill:url(#linear-gradient-73);}.cls-89{fill:url(#linear-gradient-74);}.cls-90{fill:url(#linear-gradient-75);}.cls-91{fill:#ce41a4;}.cls-92{fill:url(#linear-gradient-76);}.cls-93{fill:url(#linear-gradient-77);}.cls-94{fill:url(#linear-gradient-78);}.cls-95{fill:url(#linear-gradient-79);}.cls-96{fill:url(#linear-gradient-80);}.cls-97{fill:url(#linear-gradient-81);}.cls-98{fill:url(#linear-gradient-82);}.cls-99{fill:url(#linear-gradient-83);}.cls-100{fill:url(#linear-gradient-84);}.cls-101{fill:url(#linear-gradient-85);}.cls-102{fill:url(#linear-gradient-86);}.cls-103{fill:url(#linear-gradient-87);}.cls-104{fill:url(#linear-gradient-88);}.cls-105{fill:url(#linear-gradient-89);}.cls-106{fill:url(#linear-gradient-90);}.cls-107{fill:url(#linear-gradient-91);}.cls-108{fill:url(#linear-gradient-92);}.cls-109{fill:url(#linear-gradient-93);}.cls-110{fill:url(#linear-gradient-94);}.cls-111{fill:url(#linear-gradient-95);}.cls-112{fill:url(#linear-gradient-96);}.cls-113{fill:url(#linear-gradient-97);}.cls-114{fill:url(#linear-gradient-98);}.cls-115{fill:url(#linear-gradient-99);}.cls-116{fill:url(#linear-gradient-100);}.cls-117{opacity:0.15;}.cls-118{fill:url(#linear-gradient-101);}.cls-119{fill:url(#linear-gradient-102);}.cls-120{fill:url(#linear-gradient-103);}.cls-121{fill:url(#linear-gradient-104);}.cls-122{fill:url(#linear-gradient-105);}.cls-123{fill:url(#linear-gradient-106);}.cls-124{fill:url(#linear-gradient-107);}</style><linearGradient id="linear-gradient" x1="62.69" y1="391.82" x2="1098.78" y2="391.82" gradientUnits="userSpaceOnUse"><stop offset="0" stop-color="#b37cff"/><stop offset="1" stop-color="#f895e7"/></linearGradient><linearGradient id="linear-gradient-2" x1="114.86" y1="405.51" x2="1046.61" y2="405.51" xlink:href="#linear-gradient"/><linearGradient id="linear-gradient-3" x1="-132.44" y1="611.44" x2="41.42" y2="611.44" gradientTransform="matrix(0.98, -0.19, 0.19, 0.98, 171.26, -53.69)" gradientUnits="userSpaceOnUse"><stop offset="0" stop-color="#a737d5"/><stop offset="1" stop-color="#ef497a"/></linearGradient><linearGradient id="linear-gradient-4" x1="296.95" y1="439.14" x2="-57.77" y2="61.39" gradientTransform="matrix(0.98, 0.18, -0.18, 0.98, 62.47, 69.69)" xlink:href="#linear-gradient-3"/><linearGradient id="linear-gradient-5" x1="317.91" y1="587.04" x2="642.68" y2="587.04" gradientTransform="matrix(0.98, 0.18, -0.18, 0.98, -156.33, -103.43)" xlink:href="#linear-gradient-3"/><linearGradient id="linear-gradient-6" x1="453.21" y1="456.73" x2="165.35" y2="675.9" gradientUnits="userSpaceOnUse"><stop offset="0" stop-color="#53d8ff"/><stop offset="1" stop-color="#3840f7"/></linearGradient><linearGradient id="linear-gradient-7" x1="162.2" y1="739.41" x2="490.35" y2="347.66" xlink:href="#linear-gradient-6"/><linearGradient id="linear-gradient-8" x1="282.4" y1="579.16" x2="366.06" y2="280.92" xlink:href="#linear-gradient-6"/><linearGradient id="linear-gradient-9" x1="182.92" y1="448.69" x2="94.92" y2="554.02" xlink:href="#linear-gradient-6"/><linearGradient id="linear-gradient-10" x1="299.73" y1="548.57" x2="279.42" y2="568.34" gradientTransform="translate(-3.69 -31.56) rotate(0.38)" gradientUnits="userSpaceOnUse"><stop offset="0" stop-color="#2b3582"/><stop offset="1" stop-color="#150e42"/></linearGradient><linearGradient id="linear-gradient-11" x1="293.78" y1="551.75" x2="267.41" y2="591.58" gradientTransform="matrix(0.7, 0.71, -0.71, 0.7, 476.54, -68.94)" xlink:href="#linear-gradient-10"/><linearGradient id="linear-gradient-12" x1="275.62" y1="528.71" x2="275.71" y2="528.71" gradientTransform="matrix(1, 0, 0, 1, 0, 0)" xlink:href="#linear-gradient-10"/><linearGradient id="linear-gradient-13" x1="276.26" y1="525.12" x2="282.65" y2="525.12" gradientTransform="matrix(1, 0, 0, 1, 0, 0)" xlink:href="#linear-gradient-10"/><linearGradient id="linear-gradient-14" x1="300" y1="588.86" x2="279.68" y2="608.63" xlink:href="#linear-gradient-10"/><linearGradient id="linear-gradient-15" x1="294.04" y1="592.04" x2="267.68" y2="631.87" xlink:href="#linear-gradient-10"/><linearGradient id="linear-gradient-16" x1="275.62" y1="569" x2="275.71" y2="569" gradientTransform="matrix(1, 0, 0, 1, 0, 0)" xlink:href="#linear-gradient-10"/><linearGradient id="linear-gradient-17" x1="276.26" y1="565.41" x2="282.65" y2="565.41" gradientTransform="matrix(1, 0, 0, 1, 0, 0)" xlink:href="#linear-gradient-10"/><linearGradient id="linear-gradient-18" x1="300.26" y1="629.15" x2="279.95" y2="648.92" xlink:href="#linear-gradient-10"/><linearGradient id="linear-gradient-19" x1="294.31" y1="632.33" x2="267.95" y2="672.15" gradientTransform="matrix(0.7, 0.71, -0.71, 0.7, 533.52, -45.33)" xlink:href="#linear-gradient-10"/><linearGradient id="linear-gradient-20" x1="275.62" y1="609.29" x2="275.71" y2="609.29" gradientTransform="matrix(1, 0, 0, 1, 0, 0)" xlink:href="#linear-gradient-10"/><linearGradient id="linear-gradient-21" x1="276.26" y1="605.7" x2="282.65" y2="605.7" gradientTransform="matrix(1, 0, 0, 1, 0, 0)" xlink:href="#linear-gradient-10"/><linearGradient id="linear-gradient-22" x1="348.82" y1="588.66" x2="186.82" y2="842.66" xlink:href="#linear-gradient-6"/><linearGradient id="linear-gradient-23" x1="-170.99" y1="540.81" x2="-173.26" y2="546.73" gradientTransform="matrix(-0.98, -0.19, -0.19, 0.98, 317.15, 34.12)" xlink:href="#linear-gradient-3"/><linearGradient id="linear-gradient-24" x1="1267.53" y1="502.38" x2="1545.14" y2="502.38" gradientTransform="matrix(-0.98, -0.19, -0.19, 0.98, 1754.55, 172.05)" xlink:href="#linear-gradient-3"/><linearGradient id="linear-gradient-25" x1="285.53" y1="215.69" x2="442.86" y2="559.02" xlink:href="#linear-gradient-6"/><linearGradient id="linear-gradient-26" x1="-2450.13" y1="568.26" x2="-2106.28" y2="568.26" gradientTransform="matrix(-0.98, 0.19, 0.19, 0.98, -1363.93, 468.8)" xlink:href="#linear-gradient-3"/><linearGradient id="linear-gradient-27" x1="805.43" y1="757.08" x2="803.16" y2="763" gradientTransform="translate(-94.51 34.12) rotate(-10.96)" xlink:href="#linear-gradient-3"/><linearGradient id="linear-gradient-28" x1="575.01" y1="395.5" x2="852.62" y2="395.5" gradientTransform="translate(168.1 172.05) rotate(-10.96)" xlink:href="#linear-gradient-3"/><linearGradient id="linear-gradient-29" x1="893.9" y1="544.71" x2="892.41" y2="548.6" gradientTransform="translate(78.64 -11.38) rotate(6.75)" xlink:href="#linear-gradient-3"/><linearGradient id="linear-gradient-30" x1="1053.32" y1="519.56" x2="1235.97" y2="519.56" gradientTransform="translate(-68.24 -120.23) rotate(6.75)" xlink:href="#linear-gradient-3"/><linearGradient id="linear-gradient-31" x1="863.54" y1="686.74" x2="1010.84" y2="686.74" gradientTransform="translate(-94.51 34.12) rotate(-10.96)" xlink:href="#linear-gradient-3"/><linearGradient id="linear-gradient-32" x1="507.73" y1="648.31" x2="656.19" y2="202.93" gradientTransform="matrix(1, 0, 0, 1, 0, 0)" xlink:href="#linear-gradient-10"/><linearGradient id="linear-gradient-33" x1="542.92" y1="671.09" x2="610.04" y2="113.61" gradientUnits="userSpaceOnUse"><stop offset="0" stop-color="#fdf53f"/><stop offset="1" stop-color="#d93c65"/></linearGradient><linearGradient id="linear-gradient-34" x1="688.53" y1="691.1" x2="102.06" y2="686.6" gradientTransform="matrix(1, 0, 0, 1, 0, 0)" xlink:href="#linear-gradient-10"/><linearGradient id="linear-gradient-35" x1="896.05" y1="291.74" x2="1050.27" y2="291.74" xlink:href="#linear-gradient-6"/><linearGradient id="linear-gradient-36" x1="866.69" y1="109.11" x2="886.19" y2="253.69" xlink:href="#linear-gradient-6"/><linearGradient id="linear-gradient-37" x1="768.1" y1="578.92" x2="951.77" y2="578.92" gradientTransform="matrix(1, 0, 0, 1, 0, 0)" xlink:href="#linear-gradient-10"/><linearGradient id="linear-gradient-38" x1="657.73" y1="755.41" x2="1161.73" y2="285.41" xlink:href="#linear-gradient-33"/><linearGradient id="linear-gradient-39" x1="622.5" y1="548.38" x2="288.66" y2="1065.39" xlink:href="#linear-gradient-6"/><linearGradient id="linear-gradient-40" x1="593.62" y1="602.61" x2="514.24" y2="677.94" xlink:href="#linear-gradient-33"/><linearGradient id="linear-gradient-41" x1="644.84" y1="607.19" x2="574.38" y2="674.06" xlink:href="#linear-gradient-33"/><linearGradient id="linear-gradient-42" x1="701.91" y1="607.33" x2="631.45" y2="674.2" xlink:href="#linear-gradient-33"/><linearGradient id="linear-gradient-43" x1="303.87" y1="669.15" x2="311.87" y2="668.65" gradientUnits="userSpaceOnUse"><stop offset="0" stop-color="#233894"/><stop offset="1" stop-color="#dd397a"/></linearGradient><linearGradient id="linear-gradient-44" x1="3936" y1="661.36" x2="3943.11" y2="661.36" gradientTransform="translate(-3628.38)" gradientUnits="userSpaceOnUse"><stop offset="0" stop-color="#f9b776"/><stop offset="1" stop-color="#f47960"/></linearGradient><linearGradient id="linear-gradient-45" x1="3968.3" y1="556.39" x2="3900.16" y2="648.74" gradientTransform="translate(-3628.38)" xlink:href="#linear-gradient-6"/><linearGradient id="linear-gradient-46" x1="308.29" y1="1084.98" x2="403.79" y2="1073.98" gradientTransform="translate(-3628.38)" xlink:href="#linear-gradient-43"/><linearGradient id="linear-gradient-47" x1="3910.37" y1="660.99" x2="3916.51" y2="660.99" xlink:href="#linear-gradient-44"/><linearGradient id="linear-gradient-48" x1="3956.15" y1="547.43" x2="3888.02" y2="639.78" gradientTransform="translate(-3628.38)" xlink:href="#linear-gradient-6"/><linearGradient id="linear-gradient-49" x1="-1476.94" y1="480.36" x2="-1441.93" y2="669.3" gradientTransform="matrix(-1, 0, 0, 1, -1163.1, 0)" xlink:href="#linear-gradient-3"/><linearGradient id="linear-gradient-50" x1="-1540.52" y1="463.43" x2="-1431.99" y2="529.79" gradientTransform="matrix(-1, 0, 0, 1, -1163.1, 0)" xlink:href="#linear-gradient-44"/><linearGradient id="linear-gradient-51" x1="-1541.45" y1="437.22" x2="-1528.9" y2="473.07" gradientTransform="matrix(-1, 0, 0, 1, -1163.1, 0)" xlink:href="#linear-gradient-44"/><linearGradient id="linear-gradient-52" x1="-1531.81" y1="460.13" x2="-1541.26" y2="441.06" gradientTransform="matrix(-1, 0, 0, 1, -1163.1, 0)" xlink:href="#linear-gradient-44"/><linearGradient id="linear-gradient-53" x1="-1441.61" y1="473.81" x2="-1406.6" y2="662.76" gradientTransform="matrix(-1, 0, 0, 1, -1163.1, 0)" xlink:href="#linear-gradient-3"/><linearGradient id="linear-gradient-54" x1="3885.76" y1="527.27" x2="3931.74" y2="527.27" xlink:href="#linear-gradient-44"/><linearGradient id="linear-gradient-55" x1="3945.65" y1="494.58" x2="3970.94" y2="599.93" gradientTransform="translate(-3628.38)" xlink:href="#linear-gradient-6"/><linearGradient id="linear-gradient-56" x1="3961.48" y1="477.97" x2="3956.1" y2="501.62" gradientTransform="translate(-3628.38)" xlink:href="#linear-gradient-6"/><linearGradient id="linear-gradient-57" x1="3958.67" y1="487.89" x2="3956.09" y2="503.34" gradientTransform="translate(-3628.38)" xlink:href="#linear-gradient-6"/><linearGradient id="linear-gradient-58" x1="3928.33" y1="522.45" x2="3942.65" y2="522.45" xlink:href="#linear-gradient-44"/><linearGradient id="linear-gradient-59" x1="3921.07" y1="478.11" x2="3939.25" y2="478.11" xlink:href="#linear-gradient-44"/><linearGradient id="linear-gradient-60" x1="-3015.61" y1="625.87" x2="-3022.4" y2="603.46" gradientTransform="matrix(0.75, -0.67, 0.67, 0.75, 2148.07, -2008.45)" xlink:href="#linear-gradient-44"/><linearGradient id="linear-gradient-61" x1="-3021.74" y1="586.83" x2="-3016.05" y2="619.24" gradientTransform="matrix(0.75, -0.67, 0.67, 0.75, 2148.07, -2008.45)" xlink:href="#linear-gradient-10"/><linearGradient id="linear-gradient-62" x1="-3022.55" y1="625.76" x2="-3028.67" y2="605.6" gradientTransform="matrix(0.75, -0.67, 0.67, 0.75, 2148.07, -2008.45)" xlink:href="#linear-gradient-44"/><linearGradient id="linear-gradient-63" x1="-2870.49" y1="66.48" x2="-3336.8" y2="765.95" gradientTransform="matrix(-1, 0, 0, 1, -2270.59, 0)" xlink:href="#linear-gradient-6"/><linearGradient id="linear-gradient-64" x1="541.97" y1="177.92" x2="178.98" y2="249.91" xlink:href="#linear-gradient-33"/><linearGradient id="linear-gradient-65" x1="348.82" y1="132.61" x2="261.82" y2="281.1" xlink:href="#linear-gradient-33"/><linearGradient id="linear-gradient-66" x1="519.11" y1="340.55" x2="547.73" y2="340.55" gradientTransform="translate(743.16 -256.54) rotate(76.8)" xlink:href="#linear-gradient-10"/><linearGradient id="linear-gradient-67" x1="571.59" y1="345.79" x2="511.59" y2="516.46" xlink:href="#linear-gradient-6"/><linearGradient id="linear-gradient-68" x1="459.28" y1="139.83" x2="487.9" y2="139.83" gradientTransform="matrix(1, 0, 0, 1, 0, 0)" xlink:href="#linear-gradient-10"/><linearGradient id="linear-gradient-69" x1="699.71" y1="255.81" x2="772.33" y2="158.46" xlink:href="#linear-gradient-6"/><linearGradient id="linear-gradient-70" x1="-1252.43" y1="-3058.03" x2="-1135.98" y2="-3034.27" gradientTransform="matrix(-1, -0.05, -0.05, 1, -786.55, 3142.09)" xlink:href="#linear-gradient-6"/><linearGradient id="linear-gradient-71" x1="-1340.52" y1="-3074.52" x2="-1267.11" y2="-3059.55" gradientTransform="matrix(-1, -0.05, -0.05, 1, -786.55, 3142.09)" xlink:href="#linear-gradient-6"/><linearGradient id="linear-gradient-72" x1="-3029.91" y1="-1375.84" x2="-3117.07" y2="-1428.67" gradientTransform="matrix(0.96, -0.27, 0.07, 0.93, 3834.09, 516.14)" xlink:href="#linear-gradient-6"/><linearGradient id="linear-gradient-73" x1="-3078.29" y1="-1395.38" x2="-3178.03" y2="-1500.85" gradientTransform="matrix(0.96, -0.27, 0.07, 0.93, 3893.91, 590.05)" xlink:href="#linear-gradient-6"/><linearGradient id="linear-gradient-74" x1="-3036.27" y1="-1376.72" x2="-3117.7" y2="-1426.07" gradientTransform="matrix(0.96, -0.27, 0.07, 0.93, 3834.09, 516.14)" xlink:href="#linear-gradient-6"/><linearGradient id="linear-gradient-75" x1="453.18" y1="-1191.06" x2="490.39" y2="-1201.84" gradientTransform="matrix(-0.96, 0.27, 0.27, 0.96, 1526.18, 1072.58)" xlink:href="#linear-gradient-6"/><linearGradient id="linear-gradient-76" x1="20822.08" y1="3990.97" x2="20806.08" y2="4094.97" gradientTransform="matrix(-1, 0, 0, 1, 22229.19, 0)" xlink:href="#linear-gradient-6"/><linearGradient id="linear-gradient-77" x1="20768.76" y1="3982.77" x2="20752.76" y2="4086.77" gradientTransform="matrix(-1, 0, 0, 1, 22229.19, 0)" xlink:href="#linear-gradient-6"/><linearGradient id="linear-gradient-78" x1="21153.41" y1="598.61" x2="21260.43" y2="598.61" gradientTransform="matrix(-1, 0, 0, 1, 22229.19, 0)" gradientUnits="userSpaceOnUse"><stop offset="0" stop-color="#9cfffb"/><stop offset="1" stop-color="#9bfffa"/></linearGradient><linearGradient id="linear-gradient-79" x1="21217.03" y1="598.61" x2="21324.05" y2="598.61" xlink:href="#linear-gradient-78"/><linearGradient id="linear-gradient-80" x1="21250.05" y1="476.85" x2="21350.07" y2="476.85" xlink:href="#linear-gradient-78"/><linearGradient id="linear-gradient-81" x1="21240.66" y1="514.52" x2="21308.49" y2="514.52" xlink:href="#linear-gradient-78"/><linearGradient id="linear-gradient-82" x1="21223.09" y1="560.34" x2="21286.9" y2="560.34" gradientTransform="matrix(-1, 0, 0, 1, 22169.37, -73.91)" xlink:href="#linear-gradient-78"/><linearGradient id="linear-gradient-83" x1="21204.14" y1="606.16" x2="21267.95" y2="606.16" gradientTransform="matrix(-1, 0, 0, 1, 22169.37, -73.91)" xlink:href="#linear-gradient-78"/><linearGradient id="linear-gradient-84" x1="21182.25" y1="651.98" x2="21250.08" y2="651.98" xlink:href="#linear-gradient-78"/><linearGradient id="linear-gradient-85" x1="21163.03" y1="697.79" x2="21230.87" y2="697.79" xlink:href="#linear-gradient-78"/><linearGradient id="linear-gradient-86" x1="11226.21" y1="472.91" x2="11249.05" y2="472.91" gradientTransform="matrix(-1, 0, 0, 1, 12141.8, 0)" xlink:href="#linear-gradient-6"/><linearGradient id="linear-gradient-87" x1="11226.2" y1="468.43" x2="11248.41" y2="468.43" gradientTransform="matrix(-1, 0, 0, 1, 12141.8, 0)" xlink:href="#linear-gradient-10"/><linearGradient id="linear-gradient-88" x1="11228.31" y1="462.18" x2="11234.75" y2="462.18" gradientTransform="matrix(-1, 0, 0, 1, 12141.8, 0)" xlink:href="#linear-gradient-44"/><linearGradient id="linear-gradient-89" x1="11180.66" y1="472.42" x2="11189.42" y2="472.42" gradientTransform="matrix(-1, 0, 0, 1, 12141.8, 0)" xlink:href="#linear-gradient-6"/><linearGradient id="linear-gradient-90" x1="11180.72" y1="465.67" x2="11193.57" y2="465.67" gradientTransform="matrix(-1, 0, 0, 1, 12141.8, 0)" xlink:href="#linear-gradient-10"/><linearGradient id="linear-gradient-91" x1="11187.4" y1="456.82" x2="11195.09" y2="456.82" gradientTransform="matrix(-1, 0, 0, 1, 12141.8, 0)" xlink:href="#linear-gradient-44"/><linearGradient id="linear-gradient-92" x1="8858.66" y1="463.64" x2="8970.15" y2="309.5" gradientTransform="matrix(-1, 0, 0, 1, 9808.8, 0)" gradientUnits="userSpaceOnUse"><stop offset="0" stop-color="#fdf53f"/><stop offset="0.66" stop-color="#e57a58"/><stop offset="1" stop-color="#d93c65"/></linearGradient><linearGradient id="linear-gradient-93" x1="10329.86" y1="-188.83" x2="10397.21" y2="-149.92" gradientTransform="matrix(-1, 0, 0, 1, 12141.8, 0)" xlink:href="#linear-gradient-3"/><linearGradient id="linear-gradient-94" x1="11213.32" y1="428.33" x2="11217.01" y2="420.96" gradientTransform="matrix(-1, 0, 0, 1, 12141.8, 0)" xlink:href="#linear-gradient-92"/><linearGradient id="linear-gradient-95" x1="11222.64" y1="344.71" x2="11195.26" y2="368.96" gradientTransform="matrix(-1, 0, 0, 1, 12141.8, 0)" xlink:href="#linear-gradient-44"/><linearGradient id="linear-gradient-96" x1="10330.24" y1="-189.48" x2="10397.58" y2="-150.57" gradientTransform="matrix(-1, 0, 0, 1, 12141.8, 0)" xlink:href="#linear-gradient-3"/><linearGradient id="linear-gradient-97" x1="10338.84" y1="-204.38" x2="10406.18" y2="-165.47" gradientTransform="matrix(-1, 0, 0, 1, 12141.8, 0)" xlink:href="#linear-gradient-3"/><linearGradient id="linear-gradient-98" x1="11273.96" y1="347.01" x2="11295.52" y2="347.01" gradientTransform="matrix(-1, 0, 0, 1, 12141.8, 0)" xlink:href="#linear-gradient-44"/><linearGradient id="linear-gradient-99" x1="11253" y1="289.39" x2="11252.77" y2="329.65" gradientTransform="matrix(-1, 0, 0, 1, 12141.8, 0)" xlink:href="#linear-gradient-44"/><linearGradient id="linear-gradient-100" x1="11193.07" y1="362.8" x2="11305.98" y2="362.8" gradientTransform="matrix(-1, 0, 0, 1, 12141.8, 0)" xlink:href="#linear-gradient-10"/><linearGradient id="linear-gradient-101" x1="11293.92" y1="312.74" x2="11409.24" y2="312.74" gradientTransform="matrix(-1, 0, 0, 1, 12141.8, 0)" xlink:href="#linear-gradient-10"/><linearGradient id="linear-gradient-102" x1="11233.45" y1="356.92" x2="11206.07" y2="381.17" gradientTransform="matrix(-1, 0, 0, 1, 12141.8, 0)" xlink:href="#linear-gradient-44"/><linearGradient id="linear-gradient-103" x1="11293.23" y1="344.48" x2="11300.95" y2="344.48" gradientTransform="matrix(-1, 0, 0, 1, 12141.8, 0)" xlink:href="#linear-gradient-44"/><linearGradient id="linear-gradient-104" x1="8929.53" y1="285.61" x2="8910.15" y2="300.45" gradientTransform="matrix(-1, 0, 0, 1, 9808.8, 0)" xlink:href="#linear-gradient-44"/><linearGradient id="linear-gradient-105" x1="8915.92" y1="273.91" x2="8933.47" y2="296.5" gradientTransform="matrix(-1, 0, 0, 1, 9808.8, 0)" xlink:href="#linear-gradient-10"/><linearGradient id="linear-gradient-106" x1="8927.13" y1="282.47" x2="8907.75" y2="297.3" gradientTransform="matrix(-1, 0, 0, 1, 9808.8, 0)" xlink:href="#linear-gradient-44"/><linearGradient id="linear-gradient-107" x1="650.13" y1="269.67" x2="692.66" y2="171.37" xlink:href="#linear-gradient-6"/></defs><title>img-icon4</title><g class="cls-1"><path class="cls-2" d="M571.76,706.55S220,710.48,122,622,60.87,445.15,135.9,420.14s87.83-51,47.46-86.08S91.71,227,176.85,154.63,359.13,186.2,435.22,172.4s45.95-60.27,146-28.18,78-61.35,158.45-69.83,72.2,97.21,154.95,57.32,150.43-34.39,186,29,20.13,148.68-57.92,199.53-69.67,47.38-40.5,97.35,55.32,214.28-77.46,237.75S571.76,706.55,571.76,706.55Z" transform="translate(-59.83 -73.91)"/><path class="cls-3" d="M572.67,695.7s-316.37,3.63-404.49-78-55-163,12.52-186.06,79-47,42.68-79.37S141,253.53,217.52,186.82s163.92,29.11,232.35,16.38,41.33-55.57,131.32-26,70.15-56.57,142.5-64.38S788.62,202.46,863,165.68,998.31,134,1030.3,192.39s18.1,137.08-52.09,184S915.56,420,941.79,466.11s49.75,197.58-69.66,219.22S572.67,695.7,572.67,695.7Z" transform="translate(-59.83 -73.91)"/></g><g class="cls-4"><path class="cls-5" d="M355.81,670.46a2.24,2.24,0,0,0-1.7-3.55c-19.82-.7-102.64-7.94-99.43-80.56,3.66-82.47,9.73-105.94-29-134.06-35.22-25.61-66.15-22.15-90.23-10.31a1.8,1.8,0,0,0,.79,3.4c16.11-.13,53,2.57,66.66,28.63,17.67,33.75,16.16,117.72,52.25,157.2,35.66,39,66.13,37.81,98.71,40.14a2.16,2.16,0,0,0,1.9-.89Z" transform="translate(-59.83 -73.91)"/></g><path class="cls-6" d="M89.81,395a3.67,3.67,0,0,1,.78-6.08c6.52-3.11,18.19-10.17,29.69-24.59S161,319.25,207.4,337s47,105,41.54,190S331.87,659,331.87,659l23.4,14.32s-86.75-30.72-109.63-99.2-.43-163.93-55.5-172.27C137.29,393.83,124.38,424.05,89.81,395Z" transform="translate(-59.83 -73.91)"/><g class="cls-4"><path class="cls-7" d="M63.54,488.05a3.13,3.13,0,0,1-2.93-5.15c11.27-13,36.1-36.33,65.75-30.12,40.63,8.52,67.29,32.54,94.38,105.88C247.07,630,330,668.12,353.4,673a2.32,2.32,0,0,1,1.82,2.34h0a2.31,2.31,0,0,1-2.81,2.22c-16.37-3.82-102.17-24.92-141.75-56.12C169.1,588.65,119.74,476.37,63.54,488.05Z" transform="translate(-59.83 -73.91)"/></g><path class="cls-8" d="M91.1,472.26a67.16,67.16,0,0,1,21.65-1.48c1.81.12,3.61.39,5.41.62s3.59.58,5.36,1A77.77,77.77,0,0,1,134,475.51a93.72,93.72,0,0,1,35.62,24.54c9.87,10.7,17.56,23.17,23.9,36.15,1.52,3.28,3,6.59,4.46,9.88s2.79,6.59,4.31,9.82l2.24,4.87,2.34,4.82c1.53,3.24,3.24,6.37,4.87,9.55,3.42,6.27,7,12.46,10.9,18.42a194.17,194.17,0,0,0,12.68,17.19,149.16,149.16,0,0,0,31.57,28.56,176.34,176.34,0,0,0,18.49,10.76c6.38,3.22,12.92,6.13,19.54,8.88,13.23,5.48,26.81,10.17,40.31,15a.34.34,0,0,1,.21.44.33.33,0,0,1-.43.21c-6.82-2.24-13.64-4.48-20.43-6.82s-13.57-4.75-20.26-7.38a208.76,208.76,0,0,1-38.65-19.29,146.81,146.81,0,0,1-32.38-28.69,195.5,195.5,0,0,1-13-17.38c-4-6-7.63-12.26-11.11-18.58-1.67-3.2-3.41-6.36-5-9.61L201.84,562l-2.28-4.9c-1.56-3.26-2.93-6.58-4.4-9.87s-2.88-6.53-4.37-9.77c-6.19-12.81-13.69-25.06-23.27-35.54a105.62,105.62,0,0,0-15.79-14.17,81.49,81.49,0,0,0-28.68-13.38c-1.71-.46-3.46-.77-5.2-1.12s-3.5-.58-5.27-.74a75.42,75.42,0,0,0-10.63-.41,58.79,58.79,0,0,0-10.54,1.22h0a.57.57,0,0,1-.27-1.11Z" transform="translate(-59.83 -73.91)"/><path class="cls-8" d="M94.35,390.84a31.06,31.06,0,0,0,7.28.24,39.66,39.66,0,0,0,7.19-1.18,41.81,41.81,0,0,0,13.12-6.1,50.09,50.09,0,0,0,5.63-4.56,57.73,57.73,0,0,0,4.92-5.33c.75-1,1.5-1.9,2.21-2.88l2.12-3a54.72,54.72,0,0,1,4.87-5.85A76.06,76.06,0,0,1,166.5,345a57.33,57.33,0,0,1,14.72-4,48.27,48.27,0,0,1,7.7-.34,41.35,41.35,0,0,1,7.66,1.09c1.26.28,2.49.68,3.73,1.07s2.42.9,3.59,1.46a40.37,40.37,0,0,1,6.69,3.86,51.57,51.57,0,0,1,11,10.64c6.2,8.07,10.47,17.32,13.69,26.77a148.32,148.32,0,0,1,4.1,14.4c1.16,4.85,2.1,9.74,2.9,14.64,1.52,9.83,2.58,19.71,3.11,29.61a.45.45,0,0,1-.43.48.46.46,0,0,1-.49-.41c-1.09-9.83-2.39-19.63-4.3-29.3-1-4.83-2-9.65-3.27-14.4s-2.65-9.46-4.34-14.06c-3.36-9.18-7.61-18.1-13.58-25.69a55.56,55.56,0,0,0-4.83-5.33,43.4,43.4,0,0,0-5.49-4.56,37.39,37.39,0,0,0-6.17-3.53c-1.06-.51-2.18-.91-3.28-1.32s-2.26-.71-3.41-1a40.37,40.37,0,0,0-7-1,44.64,44.64,0,0,0-7.12.28,53.85,53.85,0,0,0-13.86,3.71,73.92,73.92,0,0,0-24,16,49.78,49.78,0,0,0-4.74,5.44l-2.2,3c-.77,1-1.56,2-2.38,2.95a61.63,61.63,0,0,1-5.31,5.41,51.75,51.75,0,0,1-6.05,4.59,43.09,43.09,0,0,1-13.93,5.78,35.57,35.57,0,0,1-15,.23.39.39,0,0,1-.29-.45.38.38,0,0,1,.43-.29Z" transform="translate(-59.83 -73.91)"/><path class="cls-9" d="M143.16,456.36l325.37-5.49c13.1-.22,23.61,11,22.84,24.4l-11.2,192.59a19.84,19.84,0,0,1-19.41,18.9L148,689.86a14.44,14.44,0,0,1-14.4-14.06l-7.48-201A17.58,17.58,0,0,1,143.16,456.36Z" transform="translate(-59.83 -73.91)"/><path class="cls-10" d="M148.15,461.27,465,456a21.93,21.93,0,0,1,22.24,23.22L476.36,662.49a19.12,19.12,0,0,1-18.9,18l-304.6,2.95a13.9,13.9,0,0,1-14-13.38L131.55,478.8A16.89,16.89,0,0,1,148.15,461.27Z" transform="translate(-59.83 -73.91)"/><path class="cls-11" d="M154.07,467.59l301.75-5A20.85,20.85,0,0,1,477,484.71L466.61,659.2a18.2,18.2,0,0,1-18,17.12l-290,2.8a13.23,13.23,0,0,1-13.35-12.73l-6.94-182.11A16.08,16.08,0,0,1,154.07,467.59Z" transform="translate(-59.83 -73.91)"/><path class="cls-12" d="M465.76,455.89l-318.21,5.25a17,17,0,0,0-16.67,17.61l.52,13.48H487.32l.77-13A22,22,0,0,0,465.76,455.89Z" transform="translate(-59.83 -73.91)"/><g class="cls-13"><path class="cls-14" d="M157.56,467.66a2.86,2.86,0,1,1-2.86-2.86A2.86,2.86,0,0,1,157.56,467.66Z" transform="translate(-59.83 -73.91)"/><path class="cls-14" d="M157.56,476a2.86,2.86,0,1,1-2.86-2.86A2.87,2.87,0,0,1,157.56,476Z" transform="translate(-59.83 -73.91)"/><path class="cls-14" d="M157.56,484.43a2.86,2.86,0,1,1-2.86-2.86A2.86,2.86,0,0,1,157.56,484.43Z" transform="translate(-59.83 -73.91)"/></g><circle class="cls-15" cx="208.18" cy="563.98" r="45.36" transform="translate(-448.7 560.31) rotate(-76.45)"/><circle class="cls-16" cx="148.35" cy="490.07" r="10"/><path class="cls-14" d="M232.49,580.36a29.14,29.14,0,1,1-24.09-45.52c.49,0,1,0,1.46,0v-7.39c-.48,0-1,0-1.46,0a36.52,36.52,0,1,0,30.07,57.23Z" transform="translate(-59.83 -73.91)"/><path class="cls-17" d="M288.19,529.48a6.65,6.65,0,1,1-6.6-6.69A6.65,6.65,0,0,1,288.19,529.48Z" transform="translate(-59.83 -73.91)"/><circle class="cls-18" cx="281.54" cy="529.44" r="6.43" transform="translate(-351.73 280.24) rotate(-45)"/><path class="cls-19" d="M275.62,529.08c0-.25.05-.5.09-.74Z" transform="translate(-59.83 -73.91)"/><path class="cls-20" d="M276.26,526.73a5.92,5.92,0,0,1,5.32-3.22,5.39,5.39,0,0,1,1.07.1Z" transform="translate(-59.83 -73.91)"/><path class="cls-21" d="M288.19,569.77a6.65,6.65,0,1,1-6.6-6.69A6.65,6.65,0,0,1,288.19,569.77Z" transform="translate(-59.83 -73.91)"/><path class="cls-22" d="M288,569.77a6.43,6.43,0,1,1-6.39-6.47A6.42,6.42,0,0,1,288,569.77Z" transform="translate(-59.83 -73.91)"/><path class="cls-23" d="M275.62,569.37c0-.25.05-.5.09-.74Z" transform="translate(-59.83 -73.91)"/><path class="cls-24" d="M276.26,567a5.92,5.92,0,0,1,5.32-3.22,5.39,5.39,0,0,1,1.07.1Z" transform="translate(-59.83 -73.91)"/><path class="cls-25" d="M288.19,610.06a6.65,6.65,0,1,1-6.6-6.69A6.65,6.65,0,0,1,288.19,610.06Z" transform="translate(-59.83 -73.91)"/><circle class="cls-26" cx="281.54" cy="610.02" r="6.43" transform="translate(-408.71 303.84) rotate(-45)"/><path class="cls-27" d="M275.62,609.66c0-.25.05-.5.09-.74Z" transform="translate(-59.83 -73.91)"/><path class="cls-28" d="M276.26,607.31a5.92,5.92,0,0,1,5.32-3.22,5.39,5.39,0,0,1,1.07.1Z" transform="translate(-59.83 -73.91)"/><path class="cls-15" d="M298.41,529.13l0,1.14c.09,3.06,2,5.49,4.34,5.5L432.1,536c2.42,0,4.38-2.55,4.37-5.72h0c0-3.1-1.9-5.63-4.27-5.7l-129.35-1.4C300.35,523.16,298.32,525.86,298.41,529.13Z" transform="translate(-59.83 -73.91)"/><path class="cls-15" d="M298.41,569.23l0,1.13c.09,3.06,2,5.5,4.34,5.51l129.32.27c2.42,0,4.38-2.56,4.37-5.72h0c0-3.11-1.9-5.64-4.27-5.7l-129.35-1.4C300.35,563.25,298.32,566,298.41,569.23Z" transform="translate(-59.83 -73.91)"/><path class="cls-15" d="M298.41,609.32l0,1.13c.09,3.07,2,5.5,4.34,5.51l129.32.27c2.42,0,4.38-2.55,4.37-5.72h0c0-3.1-1.9-5.63-4.27-5.7l-129.35-1.4C300.35,603.34,298.32,606.05,298.41,609.32Z" transform="translate(-59.83 -73.91)"/><path class="cls-29" d="M444.41,640.93l-277.62,4.92a8,8,0,0,0-7.77,9.28l1.22,7.66a8,8,0,0,0,7.95,6.76l275.17-1.09a8,8,0,0,0,7.94-7.17l1.23-11.5A8,8,0,0,0,444.41,640.93Z" transform="translate(-59.83 -73.91)"/><path class="cls-30" d="M383.9,603.1c-1.1-1.07-2.24-2.27-3.52-3.66l-1.2-1.31,1.7.52c1.43.44,2.88.81,4.33,1.11l.54.11-1.31,3.77Zm-1.63-3c.61.65,1.2,1.25,1.76,1.82l.45-1.29C383.74,600.43,383,600.25,382.27,600.06Z" transform="translate(-59.83 -73.91)"/><g class="cls-31"><path class="cls-32" d="M183.21,199.63c13.33,20.87,35.15,36.66,56.88,49.56,28.42,16.88,59.33,31.92,79.59,58,21.16,27.27,27.78,63.18,28.62,97.7s-3.42,69.09-1.05,103.53c2.25,32.76,11.43,66.59,33.49,90.66-21.46-6.59-36.46-28-42-50.06-5.88-23.57-3.27-48.28-2.16-72.54s.4-49.72-11.21-71c-22.8-41.85-78.11-53.32-110.91-87.89-17-17.88-27.14-41.33-32.73-65.34-3.81-16.36-5.63-33.08-6.81-49.86A4.49,4.49,0,0,1,183.21,199.63Z" transform="translate(-59.83 -73.91)"/></g><path class="cls-33" d="M265.84,340.55l-2-172.63a15.73,15.73,0,0,1,18.09-15.73l46.85,7.09a15.74,15.74,0,0,1,13.38,15.56V332.23Z" transform="translate(-59.83 -73.91)"/><g class="cls-4"><path class="cls-34" d="M1136.28,515.64a3.3,3.3,0,0,0,3-5.48c-12.08-13.68-38.65-38-70-31.1-42.91,9.51-70.85,35.26-98.65,113.24-27,75.8-114.35,117.22-139.07,122.64a2.42,2.42,0,0,0-1.9,2.49h0a2.45,2.45,0,0,0,3,2.32c17.29-4.24,107.88-27.62,149.41-61.13C1025.73,623.44,1076.64,504,1136.28,515.64Z" transform="translate(-59.83 -73.91)"/></g><path class="cls-8" d="M1106.56,500.55a62.64,62.64,0,0,0-11.15-1.13,79.51,79.51,0,0,0-11.23.59c-1.86.2-3.7.55-5.55.86s-3.67.75-5.47,1.27a85.7,85.7,0,0,0-30.1,14.52,112.08,112.08,0,0,0-16.47,15.16c-10,11.19-17.77,24.24-24.15,37.85-1.54,3.45-3,6.89-4.5,10.38s-2.94,7.05-4.55,10.51L991,595.78,988.56,601c-1.61,3.46-3.42,6.83-5.15,10.24-3.62,6.74-7.39,13.4-11.56,19.83a210.36,210.36,0,0,1-13.54,18.58,155.23,155.23,0,0,1-34,30.78c-12.76,8.51-26.61,15.2-40.75,20.86S855,711.8,840.58,716.67a.44.44,0,0,1-.3-.82c14.23-5.36,28.54-10.52,42.47-16.51s27.55-12.7,40-21.29a158,158,0,0,0,33-30.6,205.51,205.51,0,0,0,13.19-18.33c4.07-6.35,7.75-13,11.29-19.62,1.68-3.38,3.45-6.72,5-10.16l2.42-5.13,2.3-5.18c1.57-3.44,3-7,4.44-10.45s3-7,4.61-10.52c6.57-13.84,14.59-27.16,24.93-38.63A99.33,99.33,0,0,1,1061.47,503a83.69,83.69,0,0,1,11.07-3.39c1.87-.47,3.77-.78,5.67-1.13s3.81-.57,5.74-.71a70.8,70.8,0,0,1,23,1.38.72.72,0,0,1,.54.88.73.73,0,0,1-.86.54Z" transform="translate(-59.83 -73.91)"/><path class="cls-35" d="M838,630.36l-1.31-3.77.54-.12a43.58,43.58,0,0,0,4.33-1.1l1.7-.52-1.2,1.31c-1.27,1.39-2.42,2.59-3.51,3.66Zm0-3.05.44,1.28c.57-.57,1.15-1.17,1.76-1.81C839.4,627,838.66,627.15,837.93,627.31Z" transform="translate(-59.83 -73.91)"/><g class="cls-31"><path class="cls-36" d="M1039.19,226.35c-13.32,20.87-35.15,36.66-56.88,49.56-28.42,16.88-59.32,31.92-79.59,58-21.16,27.28-27.78,63.19-28.62,97.71s3.42,69.08,1,103.53c-2.25,32.76-11.43,66.58-33.49,90.65,21.47-6.58,36.46-28,42-50.06,5.87-23.56,3.26-48.27,2.15-72.53s-.4-49.72,11.22-71c22.79-41.85,78.1-53.32,110.9-87.89,17-17.88,27.14-41.34,32.74-65.34,3.81-16.37,5.63-33.08,6.8-49.86A4.49,4.49,0,0,0,1039.19,226.35Z" transform="translate(-59.83 -73.91)"/></g><path class="cls-37" d="M899.77,638l-.06-2.63.36,0c1,.1,1.95.16,2.93.17l1.17,0-1,.58c-1.08.61-2,1.13-2.94,1.59Zm.59-1.92,0,.89c.47-.24,1-.5,1.47-.79C901.35,636.11,900.85,636.08,900.36,636Z" transform="translate(-59.83 -73.91)"/><g class="cls-31"><path class="cls-38" d="M1106.74,425c-12.53,10.42-29.37,15.95-45.57,19.69-21.19,4.89-43.57,8.14-61.5,20.45C981,478,969.61,499.16,962.18,520.62s-11.67,44-20,65.11c-8,20.08-20.49,39.45-39.13,50.12,14.77.17,28.45-10.23,36.32-23,8.4-13.59,11.71-29.6,15.86-45s9.7-31.25,21.25-42.29c22.66-21.67,59.63-17.79,87.1-32.9,14.21-7.81,25.28-20.47,33.59-34.41a208.16,208.16,0,0,0,14.24-29.88A3,3,0,0,0,1106.74,425Z" transform="translate(-59.83 -73.91)"/></g><path class="cls-39" d="M1003.2,406.69a125,125,0,0,0-14.57-18.86,2.64,2.64,0,0,0-4.6,1.84c.2,10.26-4.66,20.68-11,29.08C965,429.44,954.51,438.22,947,449.28c-15.56,22.76-17,52.35-13.7,79.72s10.92,54.27,11.49,81.83c.28,13.14-1.14,26.62-6.83,38.47-5.59,11.63-15.8,21.54-28.35,24.44a.6.6,0,0,0-.44.81h0a.59.59,0,0,0,.48.39c16,2.48,31.63-9.62,37.91-24.6s5.12-32.22,2.39-48.34-6.9-32.23-6.18-48.57A82.38,82.38,0,0,1,960,508c8.92-11.9,20.87-21.12,31.25-31.77s19.56-23.67,20.6-38.51C1012.6,426.82,1008.85,416,1003.2,406.69Z" transform="translate(-59.83 -73.91)"/><path class="cls-11" d="M989.58,410.61a33.35,33.35,0,0,1-.48,4.48c-.25,1.47-.55,2.94-.92,4.39a62.37,62.37,0,0,1-2.76,8.53c-.52,1.41-1.16,2.75-1.76,4.13-.29.69-.65,1.35-1,2l-1,2c-.72,1.31-1.48,2.6-2.22,3.9L977,443.84c-.86,1.23-1.75,2.43-2.63,3.65-.42.61-.91,1.18-1.37,1.77L971.62,451c-.93,1.19-1.91,2.28-2.87,3.41l-2.87,3.37a163.76,163.76,0,0,0-10.81,13.93,82.88,82.88,0,0,0-8.24,15.43c-1.18,2.68-2,5.49-2.91,8.27-.7,2.85-1.53,5.66-2,8.57a140.22,140.22,0,0,0-2.08,17.5c-.12,2.95-.19,5.9-.27,8.85l.09,8.85h0a.44.44,0,0,1-.42.43.43.43,0,0,1-.42-.4c-.74-11.82-.63-23.78,1.43-35.55a82.66,82.66,0,0,1,13.07-33.13,169.22,169.22,0,0,1,10.88-14.16c1.88-2.29,3.86-4.52,5.7-6.79l1.39-1.7c.45-.57.94-1.13,1.36-1.73.86-1.18,1.74-2.35,2.58-3.54l2.42-3.66c.75-1.25,1.51-2.5,2.24-3.77s1.42-2.55,2.06-3.87,1.31-2.62,1.86-4a76,76,0,0,0,3-8.24c.43-1.4.81-2.81,1.13-4.24a40.37,40.37,0,0,0,.76-4.3v0a.41.41,0,0,1,.46-.37A.42.42,0,0,1,989.58,410.61Z" transform="translate(-59.83 -73.91)"/><path class="cls-40" d="M891.06,664.47a11.65,11.65,0,0,1-11.62,11.61H250.85a11.65,11.65,0,0,1-11.63-11.61L234,303.24c0-6.39,7.53-18.86,21.32-17.92l614.33-15.9a29.29,29.29,0,0,1,30.06,30Z" transform="translate(-59.83 -73.91)"/><path class="cls-41" d="M879.59,653.33a11,11,0,0,1-11,11H266a11,11,0,0,1-11-11L250.07,325.4c.58-19.74,17.89-26.83,28.37-26.41l588.8-15.8a20.54,20.54,0,0,1,21.1,21.07Z" transform="translate(-59.83 -73.91)"/><path class="cls-14" d="M261.52,496.93a1,1,0,0,1-1-1l-.39-26.59a1,1,0,0,1,1-1h0a1,1,0,0,1,1,1l.39,26.59a1,1,0,0,1-1,1Z" transform="translate(-59.83 -73.91)"/><path class="cls-14" d="M260.56,431.75a1,1,0,0,1-1-1l-1.49-101.86c0-6.83,2.14-12.29,6.26-16.25,7.5-7.18,19.23-6.83,19.72-6.8l188-5.05a1,1,0,0,1,1,1,1,1,0,0,1-1,1l-188.07,5.05c-.54,0-11.44-.36-18.33,6.25-3.72,3.56-5.62,8.54-5.65,14.79l1.49,101.84a1,1,0,0,1-1,1Z" transform="translate(-59.83 -73.91)"/><path class="cls-11" d="M281.56,635.14C282.19,608,282,368,280.4,347.29s30.73-24.61,80.29-27,467.76-11.57,478.53-12.44c24.2-2,29.21,34.22,26.79,112.75-1.82,59-4.83,156.2-6.22,200.9a24.67,24.67,0,0,1-24.61,23.91c-100.63.28-486.34,1.38-512,2.15C293.62,648.49,281.31,645.88,281.56,635.14Z" transform="translate(-59.83 -73.91)"/><path class="cls-42" d="M926.19,706.07H216.84A15.91,15.91,0,0,1,201,690.2h0a15.91,15.91,0,0,1,15.87-15.87H926.19a15.91,15.91,0,0,1,15.87,15.87h0A15.91,15.91,0,0,1,926.19,706.07Z" transform="translate(-59.83 -73.91)"/><g class="cls-43"><path class="cls-14" d="M1012.48,384.76a1,1,0,0,1-.38-1.92c1.21-.51,2.43-1,3.62-1.6a1,1,0,1,1,.84,1.81c-1.21.57-2.45,1.12-3.69,1.63A.91.91,0,0,1,1012.48,384.76Z" transform="translate(-59.83 -73.91)"/><path class="cls-14" d="M973.84,392.48h-1.28a1,1,0,0,1,0-2h0c2.57,0,5.16,0,7.71-.2a1,1,0,0,1,1.07.93,1,1,0,0,1-.94,1.06C978.25,392.41,976,392.48,973.84,392.48Zm-13.88-1h-.14c-2.59-.36-5.19-.84-7.75-1.4a1,1,0,1,1,.44-2c2.5.55,5,1,7.59,1.37a1,1,0,0,1-.14,2Zm33-.85a1,1,0,0,1-.18-2c2.51-.48,5-1.07,7.51-1.75a1,1,0,1,1,.53,1.92c-2.52.7-5.1,1.3-7.67,1.79A.58.58,0,0,1,992.92,390.66Zm-52.79-4.07a1,1,0,0,1-.34-.06c-2.46-.88-4.92-1.88-7.3-3a1,1,0,1,1,.83-1.82c2.33,1.06,4.74,2,7.15,2.9a1,1,0,0,1-.34,1.94Zm-18.41-8.87a1,1,0,0,1-.52-.15c-2.22-1.36-4.42-2.84-6.54-4.38a1,1,0,0,1-.22-1.39,1,1,0,0,1,1.4-.22c2.07,1.51,4.23,2.95,6.41,4.29a1,1,0,0,1-.53,1.85ZM905.5,365.3a1,1,0,0,1-.68-.27c-1.9-1.79-3.76-3.68-5.52-5.61a1,1,0,0,1,.07-1.42,1,1,0,0,1,1.41.07c1.73,1.9,3.55,3.75,5.41,5.51a1,1,0,0,1,0,1.41A1,1,0,0,1,905.5,365.3Zm-13.35-15.44a1,1,0,0,1-.82-.43c-1.5-2.14-2.94-4.36-4.26-6.61a1,1,0,1,1,1.72-1c1.3,2.2,2.7,4.39,4.17,6.49a1,1,0,0,1-.24,1.39A1,1,0,0,1,892.15,349.86ZM882.21,332a1,1,0,0,1-.92-.61c-1-2.4-2-4.87-2.81-7.35a1,1,0,0,1,1.89-.64c.82,2.43,1.75,4.85,2.76,7.21a1,1,0,0,1-.53,1.31A1,1,0,0,1,882.21,332Zm-6.07-19.5a1,1,0,0,1-1-.8c-.51-2.56-.93-5.17-1.25-7.77a1,1,0,1,1,2-.24c.31,2.54.73,5.11,1.23,7.61a1,1,0,0,1-.78,1.18Zm-2-20.33h0a1,1,0,0,1-1-1c0-2.62.12-5.26.33-7.86a1,1,0,0,1,2,.16c-.21,2.55-.32,5.14-.33,7.71A1,1,0,0,1,874.16,292.19Zm2.17-20.31-.21,0a1,1,0,0,1-.77-1.18c.55-2.56,1.2-5.13,1.94-7.63a1,1,0,1,1,1.92.57c-.73,2.45-1.37,5-1.9,7.47A1,1,0,0,1,876.33,271.88Z" transform="translate(-59.83 -73.91)"/><path class="cls-14" d="M882.64,252.38a1,1,0,0,1-.4-.08,1,1,0,0,1-.51-1.32c.54-1.22,1.11-2.45,1.71-3.66a1,1,0,1,1,1.79.88c-.58,1.18-1.14,2.39-1.67,3.59A1,1,0,0,1,882.64,252.38Z" transform="translate(-59.83 -73.91)"/><path class="cls-14" d="M939.55,199a1,1,0,0,1-.34-1.94c1.26-.46,2.54-.9,3.82-1.31a1,1,0,0,1,1.25.64,1,1,0,0,1-.64,1.26c-1.25.4-2.51.84-3.74,1.29A1.07,1.07,0,0,1,939.55,199Z" transform="translate(-59.83 -73.91)"/><path class="cls-14" d="M1068.16,325.64a1,1,0,0,1-.33-.06,1,1,0,0,1-.61-1.27c.83-2.37,1.58-4.81,2.23-7.26a1,1,0,1,1,1.93.52c-.66,2.49-1.42,5-2.27,7.4A1,1,0,0,1,1068.16,325.64Zm4.69-19.54h-.13a1,1,0,0,1-.86-1.13c.34-2.49.58-5,.72-7.56a1,1,0,0,1,2,.12c-.15,2.57-.4,5.16-.74,7.71A1,1,0,0,1,1072.85,306.1Zm.66-20.1a1,1,0,0,1-1-.93c0-.49-.07-1-.11-1.47-.16-2-.39-4.07-.68-6.08a1,1,0,1,1,2-.28c.29,2.05.53,4.13.7,6.2,0,.5.07,1,.11,1.5a1,1,0,0,1-.93,1.06Zm-3.34-19.81a1,1,0,0,1-1-.74c-.66-2.43-1.43-4.86-2.28-7.24a1,1,0,0,1,.6-1.27,1,1,0,0,1,1.28.6c.87,2.42,1.65,4.9,2.33,7.38a1,1,0,0,1-.7,1.23A1.17,1.17,0,0,1,1070.17,266.19Zm-7.25-18.74a1,1,0,0,1-.89-.55c-1.15-2.25-2.39-4.47-3.7-6.62a1,1,0,0,1,.33-1.38,1,1,0,0,1,1.37.34c1.34,2.19,2.61,4.46,3.78,6.75a1,1,0,0,1-.44,1.35A1,1,0,0,1,1062.92,247.45ZM1052,230.56a1,1,0,0,1-.78-.38c-1.57-2-3.24-3.91-5-5.75a1,1,0,1,1,1.46-1.36c1.75,1.88,3.45,3.85,5.06,5.86a1,1,0,0,1-.79,1.63Zm-14-14.38a1,1,0,0,1-.64-.23c-1.94-1.62-4-3.19-6-4.65a1,1,0,0,1,1.17-1.63c2.09,1.49,4.15,3.09,6.12,4.74a1,1,0,0,1,.12,1.41A1,1,0,0,1,1038,216.18Zm-16.63-11.3a1.07,1.07,0,0,1-.48-.12c-2.21-1.2-4.5-2.33-6.81-3.35a1,1,0,0,1-.5-1.32,1,1,0,0,1,1.32-.51c2.35,1,4.69,2.2,7,3.42a1,1,0,0,1-.48,1.88Zm-18.56-7.74a1,1,0,0,1-.29,0c-2.41-.73-4.89-1.38-7.35-1.92a1,1,0,0,1,.43-2c2.51.55,5,1.21,7.5,2a1,1,0,0,1-.29,2Zm-47.41-2.51a1,1,0,0,1-.19-2c2.53-.48,5.1-.86,7.66-1.14a1,1,0,1,1,.22,2c-2.51.27-5,.65-7.51,1.11A.55.55,0,0,1,955.41,194.63Zm27.68-1.32H983c-2.5-.23-5-.36-7.58-.39a1,1,0,0,1-1-1,1,1,0,0,1,1-1c2.58,0,5.19.17,7.73.4a1,1,0,0,1-.09,2Z" transform="translate(-59.83 -73.91)"/><path class="cls-14" d="M1061.43,340.72a.91.91,0,0,1-.48-.13,1,1,0,0,1-.4-1.36c.63-1.14,1.25-2.32,1.84-3.5a1,1,0,0,1,1.34-.45,1,1,0,0,1,.45,1.34c-.6,1.21-1.23,2.41-1.88,3.58A1,1,0,0,1,1061.43,340.72Z" transform="translate(-59.83 -73.91)"/><path class="cls-44" d="M1036,336.76a1.2,1.2,0,0,0,.16-1.38l-7-12.77a63.77,63.77,0,0,0,6.92-19.38l13.51-5.43a1.18,1.18,0,0,0,.75-1.17l-.87-17.46a1.21,1.21,0,0,0-.87-1.09l-14-4.06a63.32,63.32,0,0,0-8.82-18.58l5.72-13.41a1.2,1.2,0,0,0-.3-1.36l-13-11.73a1.2,1.2,0,0,0-1.38-.16l-12.77,7a63.77,63.77,0,0,0-19.38-6.92l-5.43-13.51a1.18,1.18,0,0,0-1.17-.75l-17.46.87a1.21,1.21,0,0,0-1.09.87l-4.06,14a63.32,63.32,0,0,0-18.58,8.82l-13.41-5.72a1.2,1.2,0,0,0-1.36.3l-11.73,13a1.21,1.21,0,0,0-.16,1.38l7,12.77a63.49,63.49,0,0,0-6.91,19.38l-13.52,5.43a1.18,1.18,0,0,0-.75,1.17l.87,17.46a1.21,1.21,0,0,0,.87,1.09l14,4.06A63.44,63.44,0,0,0,920.6,328l-5.72,13.41a1.2,1.2,0,0,0,.3,1.36l13,11.73a1.21,1.21,0,0,0,1.38.16l12.77-7a63.49,63.49,0,0,0,19.38,6.91l5.43,13.52a1.18,1.18,0,0,0,1.17.75l17.46-.87a1.21,1.21,0,0,0,1.09-.87l4.06-14a63.58,63.58,0,0,0,18.58-8.82l13.41,5.72a1.2,1.2,0,0,0,1.36-.3Z" transform="translate(-59.83 -73.91)"/><path class="cls-14" d="M973.17,308.77a17,17,0,1,1,15-9,17,17,0,0,1-15,9Zm0-31.06a14,14,0,1,0,13.42,9.92A13.93,13.93,0,0,0,973.15,277.71Z" transform="translate(-59.83 -73.91)"/><path class="cls-14" d="M972.84,335.21a43.75,43.75,0,0,1-43.61-41.51c0-.74-.06-1.48-.06-2.21a43.69,43.69,0,0,1,87.33-2.16c0,.73.06,1.47.06,2.21a43.89,43.89,0,0,1-.58,7.07l-3-.48a40.32,40.32,0,0,0,.54-6.59c0-.69,0-1.38-.06-2.06h0a40.73,40.73,0,0,0-42.11-38.63l-.56,0a40.73,40.73,0,0,0-38.66,40.61c0,.68,0,1.37.06,2.06a40.7,40.7,0,0,0,63.25,31.8l1.67,2.49a43.64,43.64,0,0,1-22.1,7.31C974.31,335.19,973.57,335.21,972.84,335.21Z" transform="translate(-59.83 -73.91)"/><path class="cls-45" d="M916,221.45l-4.49-6.82a35.56,35.56,0,0,0,3-11.13l7.31-3.63a.69.69,0,0,0,.37-.69L921,189.47a.66.66,0,0,0-.53-.57l-8-1.65a35.58,35.58,0,0,0-5.76-10l2.6-7.75a.67.67,0,0,0-.22-.74l-7.77-6a.68.68,0,0,0-.77,0l-6.82,4.5a35.72,35.72,0,0,0-11.13-3l-3.64-7.3a.65.65,0,0,0-.68-.37l-9.72,1.26a.68.68,0,0,0-.57.53l-1.64,8a35.47,35.47,0,0,0-10,5.75l-7.74-2.6a.68.68,0,0,0-.75.23l-6,7.76a.66.66,0,0,0,0,.78l4.49,6.82a35.56,35.56,0,0,0-3,11.13L836,199.88a.68.68,0,0,0-.37.69l1.27,9.71a.65.65,0,0,0,.53.57l8,1.65a35.75,35.75,0,0,0,5.75,10l-2.6,7.74a.66.66,0,0,0,.23.74l7.76,6a.69.69,0,0,0,.78,0l6.82-4.5a35.72,35.72,0,0,0,11.13,3l3.64,7.3a.65.65,0,0,0,.68.37l9.72-1.26a.68.68,0,0,0,.57-.53l1.64-8a35.75,35.75,0,0,0,10-5.75l7.74,2.6A.68.68,0,0,0,910,230l6-7.76A.66.66,0,0,0,916,221.45Z" transform="translate(-59.83 -73.91)"/><path class="cls-14" d="M878.93,210.08a10.24,10.24,0,0,1-9.48-6.45,10.2,10.2,0,1,1,19-7.51h0a10.21,10.21,0,0,1-9.48,14Zm0-17.4a7.18,7.18,0,0,0-6.68,9.84,7.2,7.2,0,0,0,9.34,4,7.18,7.18,0,0,0,4-9.34h0A7.19,7.19,0,0,0,878.92,192.68Z" transform="translate(-59.83 -73.91)"/><path class="cls-14" d="M910.92,242.53a1,1,0,0,1-.79-.39,1,1,0,0,1,.18-1.4c1-.79,2.05-1.64,3-2.51a1,1,0,1,1,1.33,1.49c-1,.91-2.06,1.78-3.13,2.6A1,1,0,0,1,910.92,242.53Z" transform="translate(-59.83 -73.91)"/><path class="cls-14" d="M878.36,253.4h0a53.09,53.09,0,0,1-8.34-.75,1,1,0,1,1,.34-2,51.53,51.53,0,0,0,8,.72,1,1,0,0,1,0,2Zm13.24-1.56a1,1,0,0,1-.24-2,53,53,0,0,0,6.51-2.09l1.14-.47a1,1,0,0,1,.77,1.85l-1.18.48a54.24,54.24,0,0,1-6.76,2.17A1,1,0,0,1,891.6,251.84Zm-34.18-3.05a1,1,0,0,1-.4-.09,53.32,53.32,0,0,1-7.35-4,1,1,0,0,1-.29-1.38,1,1,0,0,1,1.38-.29,53.21,53.21,0,0,0,7.07,3.86,1,1,0,0,1-.41,1.91Zm-17.36-12.57a1,1,0,0,1-.74-.33,53.09,53.09,0,0,1-5.13-6.61,1,1,0,0,1,.29-1.39,1,1,0,0,1,1.38.29,52.62,52.62,0,0,0,4.94,6.37,1,1,0,0,1-.07,1.41A1,1,0,0,1,840.06,236.22Zm-10.87-18.47a1,1,0,0,1-1-.68,53,53,0,0,1-2.07-8.11,1,1,0,1,1,2-.34,53.23,53.23,0,0,0,2,7.81,1,1,0,0,1-.62,1.27A1.25,1.25,0,0,1,829.19,217.75Z" transform="translate(-59.83 -73.91)"/><path class="cls-14" d="M826.58,196.42h-.09a1,1,0,0,1-.91-1.08c.12-1.34.29-2.7.51-4a1,1,0,1,1,2,.32c-.21,1.29-.37,2.6-.48,3.89A1,1,0,0,1,826.58,196.42Z" transform="translate(-59.83 -73.91)"/><path class="cls-14" d="M847.27,159a1,1,0,0,1-.8-.4,1,1,0,0,1,.2-1.4c1.08-.82,2.21-1.6,3.35-2.33a1,1,0,0,1,1.38.3,1,1,0,0,1-.31,1.38c-1.09.71-2.18,1.46-3.22,2.24A1,1,0,0,1,847.27,159Z" transform="translate(-59.83 -73.91)"/><path class="cls-14" d="M931.07,194.59a1,1,0,0,1-1-.88,51.77,51.77,0,0,0-1.56-7.78,1,1,0,0,1,1.92-.54,51.84,51.84,0,0,1,1.62,8.08,1,1,0,0,1-.87,1.11Zm-6.68-20a1,1,0,0,1-.87-.5,51.36,51.36,0,0,0-4.47-6.54,1,1,0,1,1,1.55-1.25,53.68,53.68,0,0,1,4.66,6.79,1,1,0,0,1-.87,1.5Zm-14-15.76a1,1,0,0,1-.6-.2,51.71,51.71,0,0,0-6.69-4.24,1,1,0,0,1,.93-1.77,53.44,53.44,0,0,1,7,4.41,1,1,0,0,1-.6,1.8Zm-48-7.8a1,1,0,0,1-.32-2,53,53,0,0,1,8-2,1,1,0,0,1,1.16.82,1,1,0,0,1-.83,1.15,51.47,51.47,0,0,0-7.69,1.92A1.12,1.12,0,0,1,862.4,151Zm28.91-1.19a.9.9,0,0,1-.23,0,50.72,50.72,0,0,0-7.83-1.28,1,1,0,0,1-.91-1.09,1,1,0,0,1,1.08-.91,53.41,53.41,0,0,1,8.13,1.33,1,1,0,0,1-.24,2Z" transform="translate(-59.83 -73.91)"/><path class="cls-14" d="M930.32,211.69a.76.76,0,0,1-.21,0,1,1,0,0,1-.77-1.18c.27-1.28.49-2.58.66-3.87a1,1,0,0,1,1.13-.86,1,1,0,0,1,.85,1.13c-.17,1.33-.4,2.68-.69,4A1,1,0,0,1,930.32,211.69Z" transform="translate(-59.83 -73.91)"/><path class="cls-14" d="M878.74,224.9A25.17,25.17,0,0,1,853.83,203a24.17,24.17,0,0,1-.22-3.27,25.14,25.14,0,0,1,50.07-3.22,25.54,25.54,0,0,1,.22,3.27c0,.7,0,1.39-.09,2.08l-3-.25c0-.61.08-1.22.08-1.83a23.09,23.09,0,0,0-.19-2.88,22.14,22.14,0,0,0-44.1,2.81,22.15,22.15,0,0,0,25,22,22.11,22.11,0,0,0,10.87-4.58l1.86,2.35a25.17,25.17,0,0,1-12.34,5.2A25.84,25.84,0,0,1,878.74,224.9Z" transform="translate(-59.83 -73.91)"/></g><path class="cls-14" d="M525.67,518.67l-57-41.74,57.12-46.36a3.85,3.85,0,0,0-4.86-6l-61,49.5a3.86,3.86,0,0,0,.15,6.1l61,44.7a3.86,3.86,0,0,0,4.56-6.22Z" transform="translate(-59.83 -73.91)"/><path class="cls-14" d="M646.52,474.09l-61-49.5a3.85,3.85,0,1,0-4.86,6l57.12,46.36-57,41.74a3.86,3.86,0,0,0,4.56,6.22l61-44.7a3.86,3.86,0,0,0,.15-6.1Z" transform="translate(-59.83 -73.91)"/><path class="cls-14" d="M564,413.64a3.84,3.84,0,0,0-4.49,3.07L537,536.44a3.86,3.86,0,0,0,3.07,4.5,3.71,3.71,0,0,0,1.41,0,3.83,3.83,0,0,0,3.09-3.08l22.53-119.72A3.85,3.85,0,0,0,564,413.64Z" transform="translate(-59.83 -73.91)"/><path class="cls-46" d="M771.11,450.32c-1,45.63-4.1,203-2.61,258.81.16,5.91,4.21,10.65,9.26,10.84,25,1,116.56,3.38,157.43,1.38,8.51-.42,15.28-8.49,15.45-18.45.85-47.89,2.72-182.61-1.73-244.32-.53-7.39-5.49-13.28-11.8-14-27.21-3.18-119.19-11-154.49-8.28C776.26,436.76,771.27,442.86,771.11,450.32Z" transform="translate(-59.83 -73.91)"/><path class="cls-47" d="M782.26,464.32C780.91,501.15,776.67,623.68,778,669c.19,6.62,4.65,12,10.31,12.36,23.28,1.6,102.71,5.11,136.86,1.91,6.15-.57,11-6.39,11.31-13.6,1.73-37.57,6.7-151.66,5.41-196.46-.21-7.15-4.94-13-11-13.63-25.19-2.64-109.59-8.94-138.61-7.09C786.82,452.83,782.49,458,782.26,464.32Z" transform="translate(-59.83 -73.91)"/><path class="cls-48" d="M845.64,716c-6.2,0-11.24-5.83-11.24-13s5-13,11.24-13,11.24,5.82,11.24,13S851.84,716,845.64,716Zm0-24c-5.09,0-9.24,4.92-9.24,11s4.15,11,9.24,11,9.24-4.93,9.24-11S850.74,692,845.64,692Z" transform="translate(-59.83 -73.91)"/><path class="cls-11" d="M832.85,444.25h0a2.49,2.49,0,0,0,2.13,2.63c5.9.36,22.52,1.38,29.95,1.89a2.51,2.51,0,0,0,2.33-3.13l0-.29a2.42,2.42,0,0,0-2-2.12c-5-.54-20.17-2-30.21-1.61A2.48,2.48,0,0,0,832.85,444.25Z" transform="translate(-59.83 -73.91)"/><path class="cls-49" d="M927,528l.29-43.22c0-5.21-3.31-9.61-7.63-9.93l-112-8.47c-4.55-.34-8.31,3.86-8.51,9.34,0,0-5.13,129.94-5.13,131.52h0l-1.83,51c-.21,5.48,3.4,10.1,8,10.24l117.56,3.6c4.55.14,8.32-4.4,8.36-9.88l.55-80.21h0l.36-54Z" transform="translate(-59.83 -73.91)"/><path class="cls-14" d="M842.56,593.92l-36.51-26.75,36.6-29.71a2.47,2.47,0,0,0-3.11-3.83l-39.08,31.72a2.44,2.44,0,0,0-.91,2,2.47,2.47,0,0,0,1,1.93l39.08,28.64a2.47,2.47,0,0,0,2.92-4Z" transform="translate(-59.83 -73.91)"/><path class="cls-14" d="M920,565.35l-39.08-31.72a2.47,2.47,0,1,0-3.11,3.83l36.6,29.71-36.5,26.75a2.47,2.47,0,0,0,1.46,4.46,2.5,2.5,0,0,0,1.46-.48l39.08-28.64a2.46,2.46,0,0,0,.09-3.91Z" transform="translate(-59.83 -73.91)"/><path class="cls-14" d="M867.15,526.62a2.48,2.48,0,0,0-2.89,2L849.83,605.3a2.47,2.47,0,1,0,4.85.92l14.44-76.72A2.47,2.47,0,0,0,867.15,526.62Z" transform="translate(-59.83 -73.91)"/><path class="cls-50" d="M379.14,596.28l341.67-1.49a5.86,5.86,0,0,1,5.91,5.88L726,720.27a5.85,5.85,0,0,1-6,5.82c-30.13-.9-338.92-4.86-344.83-4.62s-2.66-94.2-1.79-119.54A5.85,5.85,0,0,1,379.14,596.28Z" transform="translate(-59.83 -73.91)"/><path class="cls-14" d="M720.14,721.41h0c-19.25-.58-203.75-2.88-292.42-4l-49.28-.62H378l-.08-.41c-2.09-11.82-2.06-51.34.11-114.3a1.17,1.17,0,0,1,1.16-1.13l341.67-1.49a1.16,1.16,0,0,1,.84.34,1.12,1.12,0,0,1,.34.84l-.73,119.59A1.16,1.16,0,0,1,720.14,721.41Zm-341.31-5.6,48.86.61c88.67,1.11,273.18,3.41,292.44,4h0a.17.17,0,0,0,.14-.17l.73-119.6a.15.15,0,0,0,0-.12.14.14,0,0,0-.13,0L379.19,602a.17.17,0,0,0-.17.17C376.88,664.31,376.82,703.57,378.83,715.81Z" transform="translate(-59.83 -73.91)"/><path class="cls-51" d="M393.76,627.16h0c0,3.24,1.08,5.86,2.41,5.86H527c1.34,0,2.41-2.62,2.41-5.86h0c0-3.23-1.07-5.85-2.41-5.85H396.17C394.84,621.31,393.76,623.93,393.76,627.16Z" transform="translate(-59.83 -73.91)"/><path class="cls-51" d="M393.76,647.13h0c0,3.23,1.08,5.85,2.41,5.85H527c1.34,0,2.41-2.62,2.41-5.85h0c0-3.24-1.07-5.86-2.41-5.86H396.17C394.84,641.27,393.76,643.89,393.76,647.13Z" transform="translate(-59.83 -73.91)"/><path class="cls-51" d="M393.76,667.09h0c0,3.23,1.08,5.86,2.41,5.86H527c1.34,0,2.41-2.63,2.41-5.86h0c0-3.23-1.07-5.86-2.41-5.86H396.17C394.84,661.23,393.76,663.86,393.76,667.09Z" transform="translate(-59.83 -73.91)"/><path class="cls-51" d="M393.76,687.05h0c0,3.24,1.08,5.86,2.41,5.86H527c1.34,0,2.41-2.62,2.41-5.86h0c0-3.23-1.07-5.85-2.41-5.85H396.17C394.84,681.2,393.76,683.82,393.76,687.05Z" transform="translate(-59.83 -73.91)"/><circle class="cls-14" cx="562.61" cy="631.29" r="22.77" transform="translate(-239.96 961.6) rotate(-76.85)"/><circle class="cls-14" cx="619.19" cy="631.29" r="22.77" transform="translate(-324.86 548.83) rotate(-45)"/><circle class="cls-14" cx="615.95" cy="558.13" r="22.77"/><path class="cls-52" d="M576.14,626.48a14.62,14.62,0,1,1-13.53-9.07l.74,0v-3.71h-.74A18.31,18.31,0,1,0,579.54,625Z" transform="translate(-59.83 -73.91)"/><path class="cls-53" d="M626.74,644.41a14.63,14.63,0,1,1-7.8-27l.74,0v-3.71h-.74a18.33,18.33,0,1,0,9.63,33.92Z" transform="translate(-59.83 -73.91)"/><path class="cls-54" d="M688,640.26a14.63,14.63,0,1,1-12.1-22.85l.74,0v-3.71h-.74A18.33,18.33,0,1,0,691,642.43Z" transform="translate(-59.83 -73.91)"/><g class="cls-55"><path class="cls-14" d="M581.16,663.7h-37.1a4.22,4.22,0,0,0,0,8.43h37.1a4.22,4.22,0,1,0,0-8.43Z" transform="translate(-59.83 -73.91)"/><path class="cls-14" d="M637.74,663.7h-37.1a4.22,4.22,0,0,0,0,8.43h37.1a4.22,4.22,0,1,0,0-8.43Z" transform="translate(-59.83 -73.91)"/><path class="cls-14" d="M657.22,672.13h37.1a4.22,4.22,0,1,0,0-8.43h-37.1a4.22,4.22,0,0,0,0,8.43Z" transform="translate(-59.83 -73.91)"/><rect class="cls-14" x="480.02" y="602.91" width="45.53" height="33.26" rx="4.22"/><rect class="cls-14" x="536.6" y="602.91" width="45.53" height="33.26" rx="4.22"/><rect class="cls-14" x="593.18" y="602.91" width="45.53" height="33.26" rx="4.22"/></g><path class="cls-56" d="M308.3,661.38s-.83,4.69-1.24,9.34a3.22,3.22,0,0,0,3.07,3.47c6.19.26,19.42.76,24.17.55a1,1,0,0,0,.92-1.43h0a2.33,2.33,0,0,0-1.19-1.26l-21.87-10Z" transform="translate(-59.83 -73.91)"/><path class="cls-57" d="M307.62,658.62l.67,5.62s3.83,1.78,6.44-.23l-1.58-6.26Z" transform="translate(-59.83 -73.91)"/><path class="cls-58" d="M308.12,553.05c-.29,1.47-1.54,73.18,6.12,105.31a1.08,1.08,0,0,1-.64,1.27,18.88,18.88,0,0,1-6.24,1.27,1.87,1.87,0,0,1-1.86-1.35c-2.2-7.45-12.69-44.81-14.06-80.5-1.54-39.87,0-1.35,0-1.35l.89-24.65Z" transform="translate(-59.83 -73.91)"/><path class="cls-59" d="M283.15,663.83s-1.32,2.37-2.6,8.67a1.94,1.94,0,0,0,1.72,2.33c2,.21,5.19.46,7.71.45a2,2,0,0,0,1.92-2.18,16.35,16.35,0,0,0-3.83-9Z" transform="translate(-59.83 -73.91)"/><path class="cls-60" d="M282,656.61l1.55,8.49s1.54,1.14,4.59.31l-.74-9.13Z" transform="translate(-59.83 -73.91)"/><path class="cls-61" d="M277.78,555.25c-6.27,37.84,1.36,93.51,3.93,104.41a1.7,1.7,0,0,0,1.38,1.29,11.41,11.41,0,0,0,4.9-.19,1.57,1.57,0,0,0,1.12-1.44c.34-8.81-.28-62.9,5.57-84.27a4.81,4.81,0,0,1,1.87-2.68l11.34-8.06.87-13Z" transform="translate(-59.83 -73.91)"/><path class="cls-62" d="M317.73,483.56c-18.79-.31-39.52,4.93-39.52,4.93-5.6,32.68-1,70.37-1,70.37,14.55,3.81,30.95-2.33,30.95-2.33,2.42-13.66,13.7-52.1,13.7-52.1a62,62,0,0,0,23-7.29c-4.75-5.51-7-12.51-8-16.65A63.36,63.36,0,0,1,317.73,483.56Z" transform="translate(-59.83 -73.91)"/><path class="cls-63" d="M373.23,455.88a3.62,3.62,0,0,0-4.19-1.17c-2.76,11.68-17.26,21.15-32.15,25.78,1,4.14,3.21,11.14,8,16.65C369.57,483.24,373.23,455.88,373.23,455.88Z" transform="translate(-59.83 -73.91)"/><path class="cls-64" d="M372.78,456.45c.19.62-2,1.55-3.36-1-.05-1.2-.78-6.36-.06-7.34,3.83-5.22,11.25-11.77,11.25-11.77a1.77,1.77,0,0,1,.23,2.46l-3.61,3.75a17.12,17.12,0,0,1,2.11,4.16,5.06,5.06,0,0,1-.51,3.71,43.13,43.13,0,0,1-2.31,3.78A5,5,0,0,1,372.78,456.45Z" transform="translate(-59.83 -73.91)"/><path class="cls-65" d="M375.66,445l-3.28,2.78-1,2.77,2.93,3.25s1-5.5,1.72-6.69S376.34,445.37,375.66,445Z" transform="translate(-59.83 -73.91)"/><path class="cls-66" d="M285.42,506.68l-7.21-18.19s-17.55,11.93-20.43,27A41.67,41.67,0,0,1,273,519.62C274.33,512.48,285.42,506.68,285.42,506.68Z" transform="translate(-59.83 -73.91)"/><path class="cls-67" d="M300.75,523.8s-19.7,11.14-26.35,1.63a7.49,7.49,0,0,1-1.37-5.81,41.67,41.67,0,0,0-15.25-4.09A20.92,20.92,0,0,0,260,529.84c11.65,21.3,43.32-1.18,43.32-1.18Z" transform="translate(-59.83 -73.91)"/><path class="cls-68" d="M298.39,537.89l10.75-37.55a1.08,1.08,0,0,1,.93-.79c1.94-.23,7.59-.87,14.11-1.42,7.85-.66,17-1.2,22.41-.74a1.09,1.09,0,0,1,.9,1.58c-3.1,6.27-15.84,31.76-22.22,40.12a1.1,1.1,0,0,1-.89.43l-24.95-.23A1.1,1.1,0,0,1,298.39,537.89Z" transform="translate(-59.83 -73.91)"/><path class="cls-69" d="M325.29,494.88l7.8-1.3a.55.55,0,0,1,.62.72l-.77,2.34a.55.55,0,0,1-.46.38l-7.5,1a.56.56,0,0,1-.62-.68l.48-2A.54.54,0,0,1,325.29,494.88Z" transform="translate(-59.83 -73.91)"/><path class="cls-70" d="M319.45,501.48l.65-3.35a.75.75,0,0,1,.68-.62l15.75-1.6a.77.77,0,0,1,.83.95l-1,4.17a.78.78,0,0,1-.71.59l-15.39.77A.77.77,0,0,1,319.45,501.48Z" transform="translate(-59.83 -73.91)"/><path class="cls-71" d="M301,528.82s-1.49-6.16-.89-8.35,1.78-5,5.68-4.37a57.7,57.7,0,0,1,8.5,2.27,2.23,2.23,0,0,1-3.2,1.93l1.84,1.42s-.26,2.28-2.76,1.06l1.71,1.89a2,2,0,0,1-2.92.67C307.09,524.14,306.21,529.56,301,528.82Z" transform="translate(-59.83 -73.91)"/><path class="cls-72" d="M298.7,468.31l-6,17.28a.62.62,0,0,0,.28.75c1.63.9,7.51,3.51,14.58-1a2.91,2.91,0,0,0,1.35-2.09l1.94-15Z" transform="translate(-59.83 -73.91)"/><path class="cls-73" d="M311.71,452.3s6.56,12.35,5.72,17.34-9,4.64-16.08.58l-5-13.34Z" transform="translate(-59.83 -73.91)"/><path class="cls-74" d="M301.66,463.67a.5.5,0,0,0,.22-.74,13.5,13.5,0,0,1-1.82-3.88s-1.18-.76,3-1.76,10.42-2.55,11.74-6.12-2.09-12.2-7.44-5.24a.51.51,0,0,1-.81,0c-.88-1.14-3.19-3.51-6.4-2.07-3,1.34-3.34,3.54-3.3,4.65a.5.5,0,0,1-.6.52c-1.51-.29-5.15-.54-6.85,3.2-1.4,3.07-.49,4.81.34,5.67a.51.51,0,0,1-.22.84c-1,.3-2.29,1.15-2.16,3.49.18,3.23,3.79,2.94,4.82,2.79a.53.53,0,0,1,.45.16c.88,1,4.86,5.12,9.15,5.62a.51.51,0,0,0,.54-.68l-1.86-5.41a.52.52,0,0,1,.28-.63Z" transform="translate(-59.83 -73.91)"/><path class="cls-75" d="M302.41,464.44s-4.67-3.21-5-.51,4.21,3.91,6.47,2.91Z" transform="translate(-59.83 -73.91)"/><path class="cls-76" d="M914.31,253.55,622,252.15c-3.52,0-6.38,3.86-6.35,8.66l.64,115.65c0,4.82,3,8.67,6.51,8.53l290.66-6.23c3.38-.14,6.08-3.87,6.12-8.48l1-108C920.63,257.49,917.81,253.58,914.31,253.55Z" transform="translate(-59.83 -73.91)"/><path class="cls-14" d="M622.6,377.69a1.19,1.19,0,0,1-1.1-1.28l-.64-115.66a1.38,1.38,0,0,1,.26-.87,1,1,0,0,1,.83-.44l292.32,1.41a1,1,0,0,1,.82.44,1.46,1.46,0,0,1,.26.87l-1,108a1.18,1.18,0,0,1-1.05,1.28h0Zm-.66-117.25a.54.54,0,0,0-.08.3l.64,115.66a.43.43,0,0,0,.11.3l290.62-6.23a.38.38,0,0,0,.1-.29l1-108a.45.45,0,0,0-.07-.27Z" transform="translate(-59.83 -73.91)"/><g class="cls-4"><rect class="cls-14" x="574.01" y="239.41" width="14.23" height="54.36"/><rect class="cls-14" x="597.78" y="258.09" width="14.23" height="35.68"/><rect class="cls-14" x="621.55" y="211.92" width="14.23" height="81.86"/><rect class="cls-14" x="645.32" y="274.11" width="14.23" height="19.66"/><rect class="cls-14" x="669.09" y="222.86" width="14.23" height="70.91"/><rect class="cls-14" x="692.86" y="235.14" width="14.23" height="58.63"/><rect class="cls-14" x="716.63" y="248.48" width="14.23" height="45.29"/><rect class="cls-14" x="740.4" y="195.37" width="14.23" height="98.4"/><rect class="cls-14" x="764.17" y="205.78" width="14.23" height="87.99"/><rect class="cls-14" x="787.95" y="221.52" width="14.23" height="72.25"/><rect class="cls-14" x="811.72" y="275.93" width="14.23" height="17.84"/><rect class="cls-14" x="835.49" y="241.28" width="14.23" height="52.5"/></g><path class="cls-77" d="M558,220.42c-2.8-10.72-10.52-28.11-31.43-30.71-27.78-3.45-243.37-5.52-282.11-5.87a7,7,0,0,0-6.95,5.92c-1.43,9.42-3.7,28.3-2,44.11a7,7,0,0,0,7.18,6.24l308.81-10.93A7,7,0,0,0,558,220.42Zm-15.66-.92L251.85,229.78a6.72,6.72,0,0,1-7-6.59,184.41,184.41,0,0,1,1.23-22.45,7.66,7.66,0,0,1,7.69-6.81c114.65,1.07,251.08,3.16,271.5,5.7,10.41,1.3,16.44,7.82,20,15A3.41,3.41,0,0,1,542.3,219.5Z" transform="translate(-59.83 -73.91)"/><path class="cls-78" d="M251.89,183.17c0,14.05.25,48.11,1.8,65.9a6.33,6.33,0,0,0,6.35,5.78c16.26-.1,63-.64,84.86-3.67a6.32,6.32,0,0,0,5.4-5.5c1.49-12,4.83-43.88.83-61a6.36,6.36,0,0,0-5.89-5c-14.87-.68-63.3-2.85-87-2.89A6.35,6.35,0,0,0,251.89,183.17Z" transform="translate(-59.83 -73.91)"/><path class="cls-79" d="M271.72,188.23l1.56,49.25a6.74,6.74,0,0,0,6.91,6.53l42.24-1.1a6.74,6.74,0,0,0,6.56-6.74V190.25a6.75,6.75,0,0,0-6.4-6.74l-43.79-2.22A6.74,6.74,0,0,0,271.72,188.23Z" transform="translate(-59.83 -73.91)"/><rect class="cls-14" x="459.66" y="141.92" width="4" height="122.02"/><rect class="cls-14" x="483.4" y="274.23" width="123.25" height="4" transform="translate(207.11 746.4) rotate(-89.81)"/><circle class="cls-80" cx="533.42" cy="340.55" r="14.31" transform="translate(20.23 708.2) rotate(-76.8)"/><circle class="cls-81" cx="473.59" cy="266.64" r="8.5"/><path class="cls-82" d="M523.59,392.6l-4.9-26.73a9.1,9.1,0,0,1,8.95-10.74h12.17a10.59,10.59,0,0,1,10.56,11.42L548.23,394a12.73,12.73,0,0,1-5,9.15c-4.43,3.36-10.69,10.34-12.05,23.45-2.15,20.77,17.35,27.74,29.35,25.51,9.36-1.75,14.46-13,12.44-21.51a5,5,0,0,1,4.77-6.19h0a4.92,4.92,0,0,1,4.78,3.73c2.35,9.38,5.4,33.56-23.93,38.31-34.73,5.63-68.42-31.39-38.74-61.33A14.19,14.19,0,0,0,523.59,392.6Z" transform="translate(-59.83 -73.91)"/><circle class="cls-83" cx="473.59" cy="139.83" r="14.31"/><circle class="cls-81" cx="473.59" cy="139.83" r="8.5"/><path class="cls-84" d="M778.42,220.91l-49.3,5.2a10.33,10.33,0,0,1-11.4-10.27v-56.9a10.33,10.33,0,0,1,8.85-10.22l49.29-7.1a10.33,10.33,0,0,1,11.8,10.22v58.8A10.32,10.32,0,0,1,778.42,220.91Z" transform="translate(-59.83 -73.91)"/><path class="cls-14" d="M738.54,210.33a7.31,7.31,0,1,1,7.31-7.31A7.32,7.32,0,0,1,738.54,210.33Zm0-11.72A4.41,4.41,0,1,0,743,203,4.42,4.42,0,0,0,738.54,198.61Z" transform="translate(-59.83 -73.91)"/><path class="cls-14" d="M738.54,187.43A15.61,15.61,0,0,1,754.13,203c0,.54,0,1.06-.08,1.58a1.07,1.07,0,0,0,1.21,1.18l2.27-.34a1.06,1.06,0,0,0,.9-1c0-.48.05-1,.05-1.44a20,20,0,0,0-19.94-19.94,18.26,18.26,0,0,0-2.46.16,1.06,1.06,0,0,0-.92,1.23l.38,2.21a1.06,1.06,0,0,0,1.17.87A13.83,13.83,0,0,1,738.54,187.43Z" transform="translate(-59.83 -73.91)"/><path class="cls-14" d="M738.54,176.19A26.86,26.86,0,0,1,765.37,203h0a1.07,1.07,0,0,0,1.21,1.06l2.22-.33.92-1.07a31.21,31.21,0,0,0-31.18-30.85,30.35,30.35,0,0,0-4.39.32,1.05,1.05,0,0,0-.88,1.22l.38,2.2a1,1,0,0,0,1.18.87A26.67,26.67,0,0,1,738.54,176.19Z" transform="translate(-59.83 -73.91)"/><path class="cls-14" d="M738.54,165a38.11,38.11,0,0,1,38,36.44,1.06,1.06,0,0,0,1.22,1l2.2-.33a1.05,1.05,0,0,0,.91-1.09,42.46,42.46,0,0,0-42.36-40.39,41.88,41.88,0,0,0-6.27.48,1,1,0,0,0-.88,1.23l.37,2.19a1.07,1.07,0,0,0,1.21.87A37.94,37.94,0,0,1,738.54,165Z" transform="translate(-59.83 -73.91)"/><path class="cls-85" d="M597.52,154.45c1.81-11.23-8.31-27.86-29.19-15.06C568.1,134,544,115.77,530.23,150c-1.48-8.61-20-5.52-24.12,8.62-6.64-4-24.2,12.76-2.55,17.22,27.64,5.69,91.57,8.62,104.18-10.06S597.52,154.45,597.52,154.45Z" transform="translate(-59.83 -73.91)"/><path class="cls-86" d="M690.94,139.43c1.14-7.07-5.25-17.56-18.4-9.49-.15-3.4-15.37-14.89-24,6.7-.94-5.43-12.6-3.48-15.21,5.43-4.19-2.5-15.25,8-1.61,10.85,17.43,3.6,57.73,5.44,65.68-6.34S690.94,139.43,690.94,139.43Z" transform="translate(-59.83 -73.91)"/><polygon class="cls-87" points="753.88 32.99 756.05 52.57 741.85 45.62 753.88 32.99"/><path class="cls-88" d="M724.39,105.43l58,40.52a5,5,0,0,0,7.05-1.39L828,84.76a2,2,0,0,0-2.13-3Z" transform="translate(-59.83 -73.91)"/><polygon class="cls-89" points="753.87 32.99 664.56 31.52 747.69 42.66 748.52 48.06 753.87 32.99"/><polygon class="cls-90" points="743.98 48.37 756.05 52.57 747.69 42.66 743.98 48.37"/><path class="cls-91" d="M833.12,125.07l5-.15a1,1,0,0,1,.06,2h0l-5,.15h0a1,1,0,1,1-.06-2Z" transform="translate(-59.83 -73.91)"/><path class="cls-91" d="M843.14,124.84l5,0a1,1,0,0,1,1,1,1,1,0,0,1-1,1h0l-5,0h0a1,1,0,1,1,0-2Z" transform="translate(-59.83 -73.91)"/><path class="cls-91" d="M853.15,124.82l5,.06a1,1,0,1,1,0,2h0l-5,0h0a1,1,0,0,1,0-2Z" transform="translate(-59.83 -73.91)"/><path class="cls-91" d="M863.16,125l5,.15a1,1,0,1,1-.06,2h0l-5-.14h0a1,1,0,0,1-1-1,1,1,0,0,1,1-1Z" transform="translate(-59.83 -73.91)"/><path class="cls-91" d="M873.17,125.31l5,.23a1,1,0,0,1,.94,1,1,1,0,0,1-1,.94h0l-5-.22h0a1,1,0,0,1-.94-1,1,1,0,0,1,1-.94Z" transform="translate(-59.83 -73.91)"/><path class="cls-91" d="M883.17,125.8l5,.31a1,1,0,1,1-.12,2h0l-5-.31h0a1,1,0,0,1,.12-2Z" transform="translate(-59.83 -73.91)"/><path class="cls-91" d="M893.16,126.47l5,.39a1,1,0,0,1-.15,2h0l-5-.39h0a1,1,0,1,1,.15-2Z" transform="translate(-59.83 -73.91)"/><path class="cls-91" d="M903.14,127.3l5,.49a1,1,0,0,1,.87,1.06,1,1,0,0,1-1.06.87h0l-5-.48h0a1,1,0,0,1,.19-1.94Z" transform="translate(-59.83 -73.91)"/><path class="cls-91" d="M913.11,128.32l5,.59a1,1,0,0,1-.22,1.92h0l-5-.58h0a1,1,0,0,1,.23-1.93Z" transform="translate(-59.83 -73.91)"/><path class="cls-91" d="M923.05,129.54l5,.69a1,1,0,1,1-.26,1.91h0l-4.94-.68h0a1,1,0,1,1,.26-1.92Z" transform="translate(-59.83 -73.91)"/><path class="cls-91" d="M933,131l4.95.8a1,1,0,0,1,.79,1.11,1,1,0,0,1-1.1.79h0l-4.93-.79h0A1,1,0,1,1,933,131Z" transform="translate(-59.83 -73.91)"/><path class="cls-91" d="M942.85,132.64l4.93.92a1,1,0,0,1,.76,1.12.94.94,0,0,1-1.11.76h0l-4.9-.92h0a1,1,0,0,1-.77-1.12,1,1,0,0,1,1.12-.76Z" transform="translate(-59.83 -73.91)"/><path class="cls-91" d="M952.69,134.55l4.9,1.06a1,1,0,1,1-.4,1.86h0l-4.88-1.05h0a1,1,0,0,1,.4-1.87Z" transform="translate(-59.83 -73.91)"/><path class="cls-91" d="M962.48,136.74l4.87,1.21a1,1,0,0,1-.46,1.85h0L962,138.6h0a1,1,0,0,1,.46-1.85Z" transform="translate(-59.83 -73.91)"/><path class="cls-91" d="M972.19,139.25l4.83,1.38a.95.95,0,1,1-.52,1.82h0l-4.79-1.36h0a1,1,0,0,1-.65-1.17.94.94,0,0,1,1.17-.65Z" transform="translate(-59.83 -73.91)"/><path class="cls-91" d="M981.82,142.1l4.77,1.57a.94.94,0,1,1-.59,1.79h0l-4.73-1.55h0a.94.94,0,1,1,.59-1.79Z" transform="translate(-59.83 -73.91)"/><path class="cls-91" d="M991.32,145.34l4.7,1.79a.94.94,0,1,1-.67,1.75h0l-4.66-1.77h0a.94.94,0,0,1,.67-1.76Z" transform="translate(-59.83 -73.91)"/><path class="cls-91" d="M1000.67,149l4.6,2a.94.94,0,0,1-.76,1.71h0l-4.55-2h0a.94.94,0,1,1,.76-1.72Z" transform="translate(-59.83 -73.91)"/><path class="cls-91" d="M1009.8,153.24l4.47,2.32a.93.93,0,0,1-.86,1.66l0,0-4.41-2.29h0a.93.93,0,0,1,.86-1.66Z" transform="translate(-59.83 -73.91)"/><path class="cls-91" d="M1018.65,158c1.43.88,2.87,1.75,4.29,2.65a.93.93,0,0,1-1,1.56h0c-1.4-.89-2.82-1.74-4.22-2.61l0,0a.93.93,0,0,1,1-1.58Z" transform="translate(-59.83 -73.91)"/><path class="cls-91" d="M1027.13,163.43l4.15,2.82a.93.93,0,1,1-1,1.53h0l-4.12-2.8h0a.93.93,0,0,1,1-1.53Z" transform="translate(-59.83 -73.91)"/><path class="cls-91" d="M1035.37,169.16l4,3a.92.92,0,0,1-1.1,1.48h0l-4-3,0,0a.92.92,0,1,1,1.1-1.48Z" transform="translate(-59.83 -73.91)"/><path class="cls-91" d="M1043.36,175.25l3.88,3.2a.93.93,0,0,1,.12,1.3.92.92,0,0,1-1.29.12l0,0-3.84-3.16,0,0a.92.92,0,0,1-.13-1.29.93.93,0,0,1,1.3-.13Z" transform="translate(-59.83 -73.91)"/><path class="cls-91" d="M1051,181.77l3.67,3.43a.91.91,0,1,1-1.24,1.34l0,0-3.63-3.39,0,0a.93.93,0,0,1,0-1.3.92.92,0,0,1,1.3,0Z" transform="translate(-59.83 -73.91)"/><path class="cls-91" d="M1058.25,188.77l3.41,3.71a.92.92,0,0,1-.06,1.29.9.9,0,0,1-1.28-.06l0,0-3.36-3.65,0,0a.9.9,0,0,1,.06-1.28.91.91,0,0,1,1.29.05Z" transform="translate(-59.83 -73.91)"/><path class="cls-91" d="M1064.9,196.34l3,4a.91.91,0,0,1-1.45,1.09l0,0-3-3.94,0,0a.91.91,0,0,1,.18-1.27.9.9,0,0,1,1.27.17Z" transform="translate(-59.83 -73.91)"/><path class="cls-91" d="M1070.76,204.57l2.54,4.38a.9.9,0,0,1-1.56.9l0,0-2.48-4.27,0-.05a.9.9,0,1,1,1.56-.91Z" transform="translate(-59.83 -73.91)"/><path class="cls-91" d="M1075.51,213.51l1.84,4.73a.9.9,0,0,1-1.68.65l0-.08-1.79-4.58,0-.07a.9.9,0,0,1,.51-1.17.89.89,0,0,1,1.16.52Z" transform="translate(-59.83 -73.91)"/><path class="cls-91" d="M1078.75,223.12l.91,5a.9.9,0,0,1-.73,1,.89.89,0,0,1-1-.72v-.09l-.88-4.83,0-.09a.9.9,0,0,1,1.77-.32Z" transform="translate(-59.83 -73.91)"/><path class="cls-91" d="M1080,233.21a45.49,45.49,0,0,1-.19,5.09.89.89,0,1,1-1.77-.16,47,47,0,0,0,.17-4.89.9.9,0,1,1,1.79,0Z" transform="translate(-59.83 -73.91)"/><path class="cls-91" d="M1079.1,243.34l-1.26,4.93a.89.89,0,1,1-1.72-.44l0-.08,1.21-4.76,0-.09a.89.89,0,0,1,1.73.44Z" transform="translate(-59.83 -73.91)"/><path class="cls-91" d="M1076.11,253l-2.16,4.6a.88.88,0,0,1-1.6-.75l0-.07,2.09-4.46,0-.07a.89.89,0,0,1,1.61.75Z" transform="translate(-59.83 -73.91)"/><path class="cls-91" d="M1071.44,262l-2.82,4.2a.88.88,0,0,1-1.47-1l0-.05,2.75-4.1,0-.05a.89.89,0,0,1,1.23-.24.88.88,0,0,1,.24,1.22Z" transform="translate(-59.83 -73.91)"/><path class="cls-91" d="M1065.54,270.24l-3.29,3.82a.88.88,0,0,1-1.33-1.15l0,0,3.23-3.75,0,0a.87.87,0,0,1,1.24-.09.88.88,0,0,1,.09,1.24Z" transform="translate(-59.83 -73.91)"/><path class="cls-91" d="M1058.77,277.71l-3.62,3.49a.87.87,0,0,1-1.24,0,.89.89,0,0,1,0-1.24l0,0,3.57-3.44,0,0a.87.87,0,0,1,1.24,0,.88.88,0,0,1,0,1.24Z" transform="translate(-59.83 -73.91)"/><path class="cls-91" d="M1051.39,284.54l-3.87,3.21a.87.87,0,0,1-1.23-.11.88.88,0,0,1,.12-1.23h0l3.82-3.18,0,0a.87.87,0,0,1,1.22.12.86.86,0,0,1-.11,1.22Z" transform="translate(-59.83 -73.91)"/><path class="cls-91" d="M1043.59,290.86l-3.88,3.13h0a.87.87,0,0,1-1.09-1.35l3.9-3.15a.87.87,0,1,1,1.09,1.35h0Z" transform="translate(-59.83 -73.91)"/><path class="cls-91" d="M1035.87,297.18l-3.79,3.24h0a.86.86,0,1,1-1.12-1.31l3.8-3.26a.86.86,0,0,1,1.22.09.87.87,0,0,1-.09,1.22h0Z" transform="translate(-59.83 -73.91)"/><path class="cls-91" d="M1028.36,303.74l-3.64,3.4,0,0a.85.85,0,0,1-1.21-.05.85.85,0,0,1,0-1.21l3.67-3.43a.86.86,0,0,1,1.22,0,.88.88,0,0,1,0,1.22h0Z" transform="translate(-59.83 -73.91)"/><path class="cls-91" d="M1021.18,310.64l-3.42,3.61,0,0a.85.85,0,1,1-1.24-1.17l3.45-3.66a.86.86,0,1,1,1.25,1.17h0Z" transform="translate(-59.83 -73.91)"/><path class="cls-91" d="M1014.51,318l-3,3.91,0,0a.85.85,0,0,1-1.34-1l3.09-4a.86.86,0,1,1,1.35,1h0Z" transform="translate(-59.83 -73.91)"/><path class="cls-91" d="M1008.73,326l-2.35,4.32,0,.08a.85.85,0,0,1-1.49-.81l2.43-4.47a.85.85,0,0,1,1.49.81h0Z" transform="translate(-59.83 -73.91)"/><path class="cls-91" d="M1004.55,334.86a32.32,32.32,0,0,0-1.16,4.73.84.84,0,0,1-1,.69.85.85,0,0,1-.7-1,35,35,0,0,1,1.22-5,.84.84,0,0,1,1.07-.54.83.83,0,0,1,.54,1.06Z" transform="translate(-59.83 -73.91)"/><path class="cls-91" d="M1003,344.43a33,33,0,0,0,.35,4.86.84.84,0,1,1-1.66.24,34.71,34.71,0,0,1-.38-5.1.83.83,0,0,1,.84-.84.84.84,0,0,1,.85.84Z" transform="translate(-59.83 -73.91)"/><path class="cls-91" d="M1004.35,354.08l1.5,4.69,0,.07a.83.83,0,0,1-.54,1.05.85.85,0,0,1-1.06-.54l-1.54-4.83a.85.85,0,0,1,.54-1.06.84.84,0,0,1,1.05.55h0Z" transform="translate(-59.83 -73.91)"/><path class="cls-91" d="M1007.69,363.37l2.06,4.52v0a.84.84,0,0,1-.41,1.11.85.85,0,0,1-1.11-.41l-2.08-4.58a.83.83,0,1,1,1.51-.69h0Z" transform="translate(-59.83 -73.91)"/><path class="cls-91" d="M1011.94,372.36l2.26,4.46a.83.83,0,1,1-1.48.75h0l-2.26-4.45a.84.84,0,0,1,.37-1.12.83.83,0,0,1,1.12.36Z" transform="translate(-59.83 -73.91)"/><path class="cls-91" d="M1016.24,381.46l1.67,4.77a.82.82,0,0,1-.5,1,.83.83,0,0,1-1.06-.5v0l-1.64-4.67,0-.05a.83.83,0,1,1,1.56-.55Z" transform="translate(-59.83 -73.91)"/><path class="cls-91" d="M1019.28,391.08l1.1,4.92a.82.82,0,1,1-1.6.36v0l-1.09-4.83v-.05a.82.82,0,0,1,1.61-.36Z" transform="translate(-59.83 -73.91)"/><path class="cls-91" d="M1021.23,401l.61,5a.82.82,0,1,1-1.63.19v0l-.6-4.92v0a.82.82,0,0,1,1.63-.19Z" transform="translate(-59.83 -73.91)"/><path class="cls-91" d="M1022.2,411l.12,5a.82.82,0,0,1-.79.84.82.82,0,0,1-.84-.8v0l-.12-4.95v0a.81.81,0,0,1,.79-.84.82.82,0,0,1,.84.8Z" transform="translate(-59.83 -73.91)"/><path class="cls-91" d="M1022.2,421.06l-.36,5a.81.81,0,0,1-1.61-.11v0l.35-4.95v0a.82.82,0,0,1,.87-.75.8.8,0,0,1,.75.87Z" transform="translate(-59.83 -73.91)"/><path class="cls-91" d="M1021.24,431.08l-.84,5a.81.81,0,1,1-1.59-.27v0l.83-4.89v0a.81.81,0,1,1,1.59.27Z" transform="translate(-59.83 -73.91)"/><path class="cls-91" d="M1019.31,441l-1.33,4.86a.82.82,0,0,1-1,.57.8.8,0,0,1-.56-1v0l1.31-4.78v0a.8.8,0,1,1,1.55.42Z" transform="translate(-59.83 -73.91)"/><path class="cls-91" d="M1016.41,450.61l-1.81,4.7a.8.8,0,1,1-1.49-.57v0l1.78-4.63v0a.8.8,0,0,1,1.5.58Z" transform="translate(-59.83 -73.91)"/><path class="cls-91" d="M1012.57,459.92l-2.26,4.5a.79.79,0,1,1-1.42-.71v0l2.22-4.43,0,0a.8.8,0,0,1,1.07-.35.79.79,0,0,1,.36,1.07Z" transform="translate(-59.83 -73.91)"/><path class="cls-91" d="M1007.84,468.81l-2.68,4.26a.79.79,0,0,1-1.09.25.78.78,0,0,1-.25-1.09l0,0,2.63-4.2,0,0a.8.8,0,1,1,1.35.85Z" transform="translate(-59.83 -73.91)"/><path class="cls-91" d="M1002.29,477.2l-3.06,4a.79.79,0,1,1-1.25-1l0,0,3-3.94,0,0a.79.79,0,0,1,1.26,1Z" transform="translate(-59.83 -73.91)"/><path class="cls-91" d="M996,485.06l-3.38,3.72a.79.79,0,0,1-1.11.05.78.78,0,0,1-.06-1.11l0,0,3.34-3.68,0,0a.79.79,0,1,1,1.16,1.06Z" transform="translate(-59.83 -73.91)"/><path class="cls-91" d="M989.08,492.36l-3.67,3.43a.78.78,0,1,1-1.07-1.14l0,0,3.63-3.4,0,0a.79.79,0,1,1,1.07,1.15Z" transform="translate(-59.83 -73.91)"/><path class="cls-91" d="M981.61,499.08l-3.91,3.16a.79.79,0,0,1-1.1-.12.78.78,0,0,1,.12-1.1h0l3.87-3.12,0,0a.78.78,0,0,1,1,1.21Z" transform="translate(-59.83 -73.91)"/><path class="cls-91" d="M973.68,505.25l-4.11,2.89a.78.78,0,0,1-1.08-.19.77.77,0,0,1,.19-1.08l0,0,4.07-2.85,0,0a.78.78,0,0,1,1.08.19.77.77,0,0,1-.19,1.08Z" transform="translate(-59.83 -73.91)"/><path class="cls-91" d="M965.37,510.89l-4.28,2.63a.77.77,0,0,1-.81-1.31h0l4.24-2.61,0,0a.77.77,0,0,1,.81,1.32Z" transform="translate(-59.83 -73.91)"/><path class="cls-91" d="M956.74,516l-4.41,2.39a.77.77,0,1,1-.73-1.35h0l4.37-2.38h0a.77.77,0,0,1,1,.31.78.78,0,0,1-.31,1Z" transform="translate(-59.83 -73.91)"/><path class="cls-91" d="M947.86,520.69l-4.52,2.17a.77.77,0,0,1-1-.36.76.76,0,0,1,.36-1h0l4.49-2.15h0a.76.76,0,1,1,.66,1.38Z" transform="translate(-59.83 -73.91)"/><path class="cls-91" d="M938.76,524.92l-4.61,2a.75.75,0,0,1-1-.4.77.77,0,0,1,.4-1h0l4.58-2h0a.76.76,0,1,1,.59,1.4Z" transform="translate(-59.83 -73.91)"/><path class="cls-91" d="M929.49,528.75l-4.69,1.77a.75.75,0,0,1-1-.44.76.76,0,0,1,.44-1h0l4.66-1.76h0a.75.75,0,0,1,1,.44.76.76,0,0,1-.44,1Z" transform="translate(-59.83 -73.91)"/><path class="cls-91" d="M920.08,532.2l-4.75,1.6a.75.75,0,0,1-1-.47.76.76,0,0,1,.47-1h0l4.72-1.59h0a.76.76,0,0,1,1,.48.75.75,0,0,1-.48,1Z" transform="translate(-59.83 -73.91)"/><path class="cls-92" d="M885.09,720.23a2,2,0,0,0,2-2V477.48a2,2,0,1,0-4,0V718.21A2,2,0,0,0,885.09,720.23Z" transform="translate(-59.83 -73.91)"/><path class="cls-93" d="M939.67,720.23a2,2,0,0,0,2-2V477.48a2,2,0,1,0-4,0V718.21A2,2,0,0,0,939.67,720.23Z" transform="translate(-59.83 -73.91)"/><path class="cls-94" d="M1073.77,721.76a2,2,0,0,0,.78-.17,2,2,0,0,0,1.07-2.64l-103-242.26a2,2,0,0,0-3.71,1.57l103,242.27A2,2,0,0,0,1073.77,721.76Z" transform="translate(-59.83 -73.91)"/><path class="cls-95" d="M1010.15,721.76a2,2,0,0,0,.79-.17A2,2,0,0,0,1012,719L909,476.69a2,2,0,0,0-3.71,1.57l103,242.27A2,2,0,0,0,1010.15,721.76Z" transform="translate(-59.83 -73.91)"/><path class="cls-96" d="M882,479.69h94.35a2.84,2.84,0,0,0,2.84-2.84h0a2.84,2.84,0,0,0-2.84-2.84H882a2.84,2.84,0,0,0-2.83,2.84h0A2.84,2.84,0,0,0,882,479.69Z" transform="translate(-59.83 -73.91)"/><path class="cls-97" d="M922.71,516.53h63.81a2,2,0,0,0,0-4H922.71a2,2,0,0,0,0,4Z" transform="translate(-59.83 -73.91)"/><rect class="cls-98" x="882.47" y="484.41" width="63.81" height="4.03"/><rect class="cls-99" x="901.42" y="530.23" width="63.81" height="4.03"/><path class="cls-100" d="M981.12,654h63.81a2,2,0,0,0,0-4H981.12a2,2,0,0,0,0,4Z" transform="translate(-59.83 -73.91)"/><path class="cls-101" d="M1000.34,699.81h63.8a2,2,0,1,0,0-4h-63.8a2,2,0,1,0,0,4Z" transform="translate(-59.83 -73.91)"/><path class="cls-102" d="M893.4,471.8c3.91.34,10.7.89,16.06,1.13a15.65,15.65,0,0,0,6.14-.6c0,.12,0,.23,0,.34a1.11,1.11,0,0,1-1.06,1,185.31,185.31,0,0,1-21,0,.79.79,0,0,1-.64-1.18A7,7,0,0,1,893.4,471.8Z" transform="translate(-59.83 -73.91)"/><path class="cls-103" d="M909.46,472.93c-5.36-.24-12.15-.79-16.06-1.13,3.84-4.72,16.06-7.9,16.06-7.9h3.45a14.54,14.54,0,0,1,2.69,8.43A15.65,15.65,0,0,1,909.46,472.93Z" transform="translate(-59.83 -73.91)"/><path class="cls-104" d="M913.49,458.27l-.33,6.39a1.45,1.45,0,0,1-1.24,1.37,5.6,5.6,0,0,1-2.59-.22,1.72,1.72,0,0,1-1.16-1.32l-1.12-6.22Z" transform="translate(-59.83 -73.91)"/><path class="cls-105" d="M958.29,472.88a3.12,3.12,0,0,0,2.79-2.06v0a2.21,2.21,0,0,1-1.48,2.52,9.74,9.74,0,0,1-4.12.64,4.08,4.08,0,0,1-3.08-1.42h0C953.66,473.2,955.46,473.27,958.29,472.88Z" transform="translate(-59.83 -73.91)"/><path class="cls-106" d="M950.29,458.23h2.84c4.34-.09,7.06,9,8,12.59a3.12,3.12,0,0,1-2.79,2.06c-2.83.39-4.63.32-5.9-.31-2.35-3.08-3.51-7.6-4.06-10.23A3.58,3.58,0,0,1,950.29,458.23Z" transform="translate(-59.83 -73.91)"/><path class="cls-107" d="M952.77,452.3l1.58,6.28a1.71,1.71,0,0,1-.89,1.93,6.07,6.07,0,0,1-3.27.8,1.43,1.43,0,0,1-1.16-.95l-2.32-6.61Z" transform="translate(-59.83 -73.91)"/><path class="cls-108" d="M954.65,454.12c-2,1.74-8.36,2-8.36,2-23-55.27-32.44-63.12-32.44-63.12,3.32,20.86.53,67,.53,67-3.8,1.68-8.69,0-8.69,0a356.05,356.05,0,0,0-11.76-87.41c15.56-.35,23.84-5.67,26.54-7.81C933.44,385.7,954.65,454.12,954.65,454.12Z" transform="translate(-59.83 -73.91)"/><path class="cls-109" d="M916.52,301.24c2.94,14.69,1.89,41,1.19,53-.19,3.37,2.16,8,4.06,11.24a1,1,0,0,1-.4,1.4c-3.19,1.64-14,6.71-26.48,7.34a1.76,1.76,0,0,1-1.79-1.33c-9.28-34.63-20.05-56.77-20.05-56.77C884.94,297.11,916.52,301.24,916.52,301.24Z" transform="translate(-59.83 -73.91)"/><path class="cls-110" d="M912.28,391.66a.73.73,0,0,0,.63-1.12,23.31,23.31,0,0,0-9.13-7.92.74.74,0,1,0-.64,1.33,22.2,22.2,0,0,1,8.51,7.36A.73.73,0,0,0,912.28,391.66Z" transform="translate(-59.83 -73.91)"/><path class="cls-111" d="M935,343.4c-.94,6.85-3.74,14.32-9.33,22.25l-2.13-1.74a65.41,65.41,0,0,0,1.06-21.25C928,342,932.12,342.68,935,343.4Z" transform="translate(-59.83 -73.91)"/><path class="cls-112" d="M913.23,319.36l3.29-18.12S938.5,318,935,343.4c-2.87-.72-7-1.42-10.4-.74C923.59,334.52,920.58,325.68,913.23,319.36Z" transform="translate(-59.83 -73.91)"/><path class="cls-113" d="M873.05,316.1l8.48,18.28c-1.37,11-7.3,15.8-13.69,17.63a38.8,38.8,0,0,0-2.85-11.9C873.16,331.68,873.05,316.1,873.05,316.1Z" transform="translate(-59.83 -73.91)"/><path class="cls-114" d="M865,340.11a38.8,38.8,0,0,1,2.85,11.9c-17.05,6.62-21.56-6.21-21.56-6.21l3.15-.56C856.55,346,861.52,343.7,865,340.11Z" transform="translate(-59.83 -73.91)"/><path class="cls-115" d="M880.86,293.54,885,308.6a2.93,2.93,0,0,0,3.92,1.95,58.83,58.83,0,0,0,5.9-2.7,3.94,3.94,0,0,0,1.39-5.67l-8.51-12.7Z" transform="translate(-59.83 -73.91)"/><path class="cls-116" d="M838.47,335.72l105,38.2A8,8,0,0,1,948,384.8l-.32.7a7.46,7.46,0,0,1-9.93,3.69L835.82,342Z" transform="translate(-59.83 -73.91)"/><ellipse class="cls-117" cx="730.39" cy="238.83" rx="51.82" ry="50.88"/><path class="cls-118" d="M732.56,312.74c0,31.27,25.81,56.62,57.66,56.62s57.66-25.35,57.66-56.62-25.82-56.62-57.66-56.62S732.56,281.47,732.56,312.74Zm8.47,0c0-26.68,22-48.3,49.19-48.3s49.19,21.62,49.19,48.3-22,48.3-49.19,48.3S741,339.41,741,312.74Z" transform="translate(-59.83 -73.91)"/><path class="cls-14" d="M843.49,319.87h-.06a.49.49,0,0,1-.43-.56c.17-1.31.28-2.66.35-4a.47.47,0,0,1,.52-.47.5.5,0,0,1,.48.52c-.07,1.36-.19,2.73-.36,4.07A.51.51,0,0,1,843.49,319.87ZM843.1,304a.49.49,0,0,1-.49-.41,51.43,51.43,0,0,0-3.06-10.46h0a53,53,0,0,0-49.33-32.65,53.77,53.77,0,0,0-28.57,8.17.51.51,0,0,1-.69-.16.49.49,0,0,1,.16-.69,54.76,54.76,0,0,1,29.1-8.32,54,54,0,0,1,50.25,33.26h0a51.41,51.41,0,0,1,3.12,10.67.5.5,0,0,1-.4.58Z" transform="translate(-59.83 -73.91)"/><path class="cls-119" d="M924.41,363.61l-9.92-.81-4.3,4s1,1.41,4.19.6a45,45,0,0,1,7.54-1s4.39,2,4.44-1.73Z" transform="translate(-59.83 -73.91)"/><path class="cls-120" d="M847.54,348.14c-.85.67-3.79-.73-5.59-1.69a2.07,2.07,0,0,1-1-2.45c.43-1.36,1.15-3.13,2-3.35C844.46,340.28,851.08,345.38,847.54,348.14Z" transform="translate(-59.83 -73.91)"/><path class="cls-14" d="M941.36,387.84a.5.5,0,0,1-.47-.34.51.51,0,0,1,.31-.64c2.92-1,4.44-2.63,4.54-4.82a5.37,5.37,0,0,0-3.51-5.15L929.62,372A.5.5,0,0,1,930,371l12.6,4.92a6.34,6.34,0,0,1,4.14,6.12c-.07,1.82-1,4.29-5.2,5.73A.51.51,0,0,1,941.36,387.84Z" transform="translate(-59.83 -73.91)"/><path class="cls-14" d="M925.92,370.49a.57.57,0,0,1-.18,0l-1.63-.64a.5.5,0,0,1-.29-.64.5.5,0,0,1,.65-.29l1.63.64a.5.5,0,0,1,.29.65A.51.51,0,0,1,925.92,370.49Z" transform="translate(-59.83 -73.91)"/><path class="cls-121" d="M880,278.76s-3.39,7.79-3.62,11.88-1.11,6.74,3.62,7.56,8.71-1.53,10.86-5.6c0,0,3.38-6.28,2.63-8.85S880,278.76,880,278.76Z" transform="translate(-59.83 -73.91)"/><path class="cls-122" d="M889.23,289.67h-.6s2.46-5.05.3-5.94-10.73-2.63-12.58-5.68a5.65,5.65,0,0,1,2.18-7.77.32.32,0,0,1,.41.15l.2.37a.32.32,0,0,0,.59-.06h0a.32.32,0,0,1,.57-.09c.57.91,2.1,2.39,6.21,3.15,5.83,1.07,9.69,3.43,9.79,7.46a.32.32,0,0,0,.49.27c.43-.26,1.12-.39,2,.39,1.6,1.34.95,4.84-2.56,7.71a.31.31,0,0,0,0,.51c.64.42,1.59,1.4-.87,2.72s-4,1.2-4.56,1.05a.31.31,0,0,1-.25-.33l.22-3.57a.32.32,0,0,0-.32-.34Z" transform="translate(-59.83 -73.91)"/><path class="cls-123" d="M889.08,290.41s1.3-5,3.53-3.58-1.16,5.58-3,5.77Z" transform="translate(-59.83 -73.91)"/><path class="cls-124" d="M690.8,232.18H659.32a4.36,4.36,0,0,1-4.36-4.36V196.26a4.36,4.36,0,0,1,4-4.34l33.54-2.72a4.36,4.36,0,0,1,4.7,4.61l-2.06,34.28A4.35,4.35,0,0,1,690.8,232.18Z" transform="translate(-59.83 -73.91)"/><path class="cls-14" d="M663.81,226a3.33,3.33,0,0,1-3.33-3.33V202.47a1,1,0,1,1,2.06,0v20.24a1.24,1.24,0,0,0,.4.92,1.26,1.26,0,0,0,.94.34l24-1.43a1.27,1.27,0,0,0,1.2-1.26V201.41a1.27,1.27,0,0,0-1.4-1.26l-19.94,2a1.27,1.27,0,0,0-.91,2l7.61,10.5a1.25,1.25,0,0,0,1,.52h0a1.25,1.25,0,0,0,1-.5l8.38-11.17a1,1,0,0,1,1.66,1.24l-8.38,11.17a3.34,3.34,0,0,1-5.37,0l-7.61-10.5a3.33,3.33,0,0,1,2.37-5.27l20-2a3.33,3.33,0,0,1,3.66,3.32v19.87a3.35,3.35,0,0,1-3.13,3.33L664,226Z" transform="translate(-59.83 -73.91)"/></svg>