<svg id="_7d1857de-4e1d-4ad3-937b-baacafe47dc3" data-name="7d1857de-4e1d-4ad3-937b-baacafe47dc3" xmlns="http://www.w3.org/2000/svg" xmlns:xlink="http://www.w3.org/1999/xlink" viewBox="0 0 1026.02 717.21"><defs><style>.cls-1,.cls-3{fill:#6c63ff;}.cls-1,.cls-13,.cls-5{opacity:0.1;}.cls-1,.cls-27,.cls-31,.cls-5,.cls-8{isolation:isolate;}.cls-2{opacity:0.5;}.cls-4{fill:none;stroke:#535461;stroke-miterlimit:10;stroke-width:2px;}.cls-6{fill:#ffd037;}.cls-7{fill:#a8a8a8;}.cls-8{opacity:0.2;}.cls-9{fill:#e6e6f0;}.cls-10{fill:#fdc2cc;}.cls-11{fill:#565171;}.cls-12{fill:#b45181;}.cls-14{fill:#f569bc;}.cls-15{fill:#f7df1e;}.cls-16{fill:url(#linear-gradient);}.cls-17{fill:#4f4d59;}.cls-18{fill:#c48c96;}.cls-19{fill:#714b4f;}.cls-20{fill:#ba7855;}.cls-21{fill:#503f43;}.cls-22{fill:#e44d26;}.cls-23{fill:#f16529;}.cls-24{fill:#ebebeb;}.cls-25,.cls-31{fill:#fff;}.cls-26{fill:url(#linear-gradient-2);}.cls-27,.cls-34{opacity:0.05;}.cls-28{fill:#264de4;}.cls-29{fill:#2965f1;}.cls-30{fill:#47465a;}.cls-31{opacity:0.3;}.cls-32{fill:#e1a0a7;}.cls-33{fill:#8f5a6a;}.cls-35{fill:url(#linear-gradient-3);}.cls-36{fill:url(#linear-gradient-4);}.cls-37{fill:#7952b3;fill-rule:evenodd;}</style><linearGradient id="linear-gradient" x1="889.16" y1="30.14" x2="889.16" y2="368.7" gradientTransform="matrix(1, 0, 0, -1, -84.99, 646.93)" gradientUnits="userSpaceOnUse"><stop offset="0" stop-color="gray" stop-opacity="0.25"/><stop offset="0.54" stop-color="gray" stop-opacity="0.12"/><stop offset="1" stop-color="gray" stop-opacity="0.1"/></linearGradient><linearGradient id="linear-gradient-2" x1="376.51" y1="-45.06" x2="376.51" y2="350.15" xlink:href="#linear-gradient"/><linearGradient id="linear-gradient-3" x1="-1742.65" y1="649.73" x2="-1701.78" y2="684.9" gradientTransform="translate(5597.93 -1447.1) scale(2.96 2.99)" gradientUnits="userSpaceOnUse"><stop offset="0" stop-color="#5a9fd4"/><stop offset="1" stop-color="#306998"/></linearGradient><linearGradient id="linear-gradient-4" x1="-1685.98" y1="706.26" x2="-1700.59" y2="685.58" gradientTransform="translate(5597.93 -1447.1) scale(2.96 2.99)" gradientUnits="userSpaceOnUse"><stop offset="0" stop-color="#ffd43b"/><stop offset="1" stop-color="#ffe873"/></linearGradient></defs><title>img-icon1</title><ellipse class="cls-1" cx="814.66" cy="585.13" rx="211.36" ry="41.08"/><g class="cls-2"><path class="cls-3" d="M633.62,103.56c-2.85.81-6.34,2.92-8.06,8.69-3.37,11.31,4.46,19,1.88,30.79a23.07,23.07,0,0,1-4,8.64c-3.15,4.27-6.57,6.29-9.89,9.28a29.52,29.52,0,0,0-8.69,14.27,39.57,39.57,0,0,0-.39,18.55c1.18,5.12,3.19,8.85,4.95,13a95.57,95.57,0,0,1,5.11,16.37,39.57,39.57,0,0,1,1.12,8.32,72.73,72.73,0,0,1-1,11.12L609.86,276a99.16,99.16,0,0,0-1.31,13.21,65.71,65.71,0,0,0,1.53,13.19c1.68,8.84,3.49,18,7.34,22.68s10.41,3,14.44-6.47c3.83-9.06,3.92-21.15,7.3-30.83,5.33-15.25,15.92-17.3,21.8-31.85,5.64-14,3.91-31.08,6.77-47,2-11.41,6.41-21.81,9-33.08,3.72-16.23,3.35-33.08.38-45.56a60.65,60.65,0,0,0-14.18-27.54c-2.49-2.75-5.16-5.2-8.29-5.45-3.33-.26-6.24,3.93-9.53,5.19C641.31,104,637.49,102.46,633.62,103.56Z" transform="translate(0 -0.09)"/><path class="cls-4" d="M651.65,98.16S646,242.5,622.29,327.61" transform="translate(0 -0.09)"/><path class="cls-4" d="M625.42,112.93s25.35,23.08,20.54,67" transform="translate(0 -0.09)"/><path class="cls-4" d="M604.15,178.61s41.61,8.37,38.52,33.26" transform="translate(0 -0.09)"/><path class="cls-4" d="M677.18,130s-16.84,14.74-31.84,56.49" transform="translate(0 -0.09)"/><path class="cls-4" d="M660.73,256.18s-11.49,9-20.71-22.51" transform="translate(0 -0.09)"/><path class="cls-4" d="M611.15,274.59s23.43-3.06,25.59-17.73" transform="translate(0 -0.09)"/></g><path class="cls-3" d="M690.26,6.75c-5.8.86-12.78,3.55-15.65,11.84-5.63,16.26,11.48,28.57,7.54,45.56A25.55,25.55,0,0,1,675,76.4c-6,5.91-12.86,8.49-19.36,12.5s-13.25,10.32-16.3,20c-2.93,9.31-1.66,19.59,1.39,27.27s7.66,13.41,11.78,19.73A133.77,133.77,0,0,1,665,180.6a47.09,47.09,0,0,1,3.32,12.33c.53,5.2-.14,10.79-.81,16.26l-5.95,48.74c-.79,6.48-1.59,13.06-1.14,19.3.51,7.19,2.64,13.47,4.74,19.6,4.52,13.22,9.36,27,17.89,34.28s21.91,5.72,29.12-7.82c6.86-12.89,5.6-30.68,11.45-44.53,9.22-21.83,30.9-23.6,41.33-44.32,10-19.88,4.41-45.31,8.43-68.41,2.88-16.55,10.68-31.35,14.68-47.64,5.77-23.47,3-48.32-4.62-67s-19.67-32-32.6-42.23c-5.48-4.35-11.29-8.28-17.8-9C726.13-.61,720.6,5.21,714,6.68,706.21,8.29,698.13,5.58,690.26,6.75Z" transform="translate(0 -0.09)"/><path class="cls-4" d="M726.94.93s5.46,211.89-33.56,334.42" transform="translate(0 -0.09)"/><path class="cls-4" d="M674.39,19.61s55.2,37,50.47,101.16" transform="translate(0 -0.09)"/><path class="cls-4" d="M638.16,113.78s87.12,17.26,83.68,53.54" transform="translate(0 -0.09)"/><path class="cls-4" d="M783.55,50.85s-33.11,19.71-59.19,79.41" transform="translate(0 -0.09)"/><path class="cls-4" d="M764.44,234.72s-22.7,12-45.53-35.61" transform="translate(0 -0.09)"/><path class="cls-4" d="M664,255.93s48.13-1.73,50.87-23.08" transform="translate(0 -0.09)"/><path class="cls-3" d="M67.25,578.59s8.38,11-3.87,27.5S41,636.61,45.12,646.93c0,0,18.48-30.73,33.52-31.16S83.8,597.07,67.25,578.59Z" transform="translate(0 -0.09)"/><path class="cls-5" d="M67.25,578.59A13.64,13.64,0,0,1,69,582c14.68,17.24,22.49,33.33,8.39,33.74-13.14.38-28.9,23.87-32.68,29.81a10.68,10.68,0,0,0,.45,1.35s18.48-30.73,33.52-31.16S83.8,597.07,67.25,578.59Z" transform="translate(0 -0.09)"/><path class="cls-6" d="M82.83,592.56c0,3.86-.43,7-1,7s-1-3.13-1-7,.54-2,1.07-2S82.83,588.7,82.83,592.56Z" transform="translate(0 -0.09)"/><path class="cls-6" d="M88.18,597.16c-3.39,1.85-6.34,3-6.59,2.49s2.28-2.35,5.67-4.19,2-.5,2.31,0S91.56,595.31,88.18,597.16Z" transform="translate(0 -0.09)"/><path class="cls-3" d="M23,578.59s-8.38,11,3.87,27.5,22.35,30.51,18.26,40.83c0,0-18.48-30.73-33.52-31.16S6.44,597.07,23,578.59Z" transform="translate(0 -0.09)"/><path class="cls-5" d="M23,578.59A13.48,13.48,0,0,0,21.3,582c-14.68,17.24-22.49,33.33-8.39,33.74,13.14.38,28.9,23.87,32.68,29.81a10.68,10.68,0,0,1-.45,1.35S26.66,616.2,11.62,615.77,6.44,597.07,23,578.59Z" transform="translate(0 -0.09)"/><path class="cls-6" d="M7.41,592.56c0,3.86.43,7,1,7s1-3.13,1-7-.54-2-1.07-2S7.41,588.7,7.41,592.56Z" transform="translate(0 -0.09)"/><path class="cls-6" d="M2.06,597.16c3.39,1.85,6.34,3,6.59,2.49S6.37,597.3,3,595.46s-2-.5-2.31,0S-1.32,595.31,2.06,597.16Z" transform="translate(0 -0.09)"/><path class="cls-7" d="M10.08,645.49s23.43-.72,30.49-5.75,36-11,37.79-3,35.21,40.11,8.76,40.32-61.46-4.12-68.51-8.41S10.08,645.49,10.08,645.49Z" transform="translate(0 -0.09)"/><path class="cls-8" d="M87.59,674.28c-26.45.21-61.46-4.12-68.51-8.41-5.37-3.27-7.51-15-8.22-20.41h-.78s1.48,18.9,8.53,23.19,42.06,8.63,68.51,8.41c7.64-.06,10.27-2.78,10.13-6.8C96.19,672.72,93.28,674.24,87.59,674.28Z" transform="translate(0 -0.09)"/><path class="cls-3" d="M982.36,574a11.66,11.66,0,0,0,3.83-5.78c.5-2.3-.48-5-2.68-5.89-2.46-.94-5.09.76-7.08,2.49s-4.28,3.69-6.89,3.32a10.47,10.47,0,0,0,3.24-9.81,4,4,0,0,0-.9-2c-1.37-1.46-3.84-.83-5.48.32-5.2,3.66-6.65,10.72-6.68,17.08-.52-2.29-.08-4.68-.1-7s-.66-5-2.64-6.22a8,8,0,0,0-4-.95c-2.34-.09-4.94.15-6.54,1.86-2,2.12-1.47,5.69.26,8s4.35,3.8,6.77,5.42a15,15,0,0,1,4.84,4.61,4.26,4.26,0,0,1,.36.82h14.65A40.82,40.82,0,0,0,982.36,574Z" transform="translate(0 -0.09)"/><ellipse class="cls-1" cx="552.35" cy="439.13" rx="427.67" ry="41.08"/><ellipse class="cls-1" cx="223.66" cy="676.13" rx="211.36" ry="41.08"/><path class="cls-9" d="M439.72,426.41l-3.35,4.87s3.65,4.87,4,5.48,10.65-.3,10.65-.3l.91-3.65-1.52-4.26Z" transform="translate(0 -0.09)"/><polygon class="cls-10" points="327.09 423.58 320.39 424.79 324.65 433.02 329.22 435.45 333.48 438.49 334.7 435.15 331.65 428.75 327.09 423.58"/><path class="cls-11" d="M436.68,344.52s35.62,8.52,42.31,18c0,0,6.09,5.18,0,14.61s-14.61,30.75-14.61,30.75-6.09,20.7-8.52,22.22-16.44,2.74-17.66-3c0,0,7.91-12.48,7.91-18.27s13.09-33.18,13.09-33.18-29.83-3.35-39.27-1.22S424.2,341.17,436.68,344.52Z" transform="translate(0 -0.09)"/><path class="cls-5" d="M436.68,344.52s35.62,8.52,42.31,18c0,0,6.09,5.18,0,14.61s-14.61,30.75-14.61,30.75-6.09,20.7-8.52,22.22-16.44,2.74-17.66-3c0,0,7.91-12.48,7.91-18.27s13.09-33.18,13.09-33.18-29.83-3.35-39.27-1.22S424.2,341.17,436.68,344.52Z" transform="translate(0 -0.09)"/><path class="cls-11" d="M429.37,352.74c-.07,1.77-.26,3.76-.53,5.9-1.95,15.5-8.3,38.55-8.3,38.55s-6.39,13.7-8.22,22.53-14.31,11-14.31,11-34.1,4-41.1,2.44-18,4.57-23.44,3.65-8.83-13.7-8.83-13.7a66,66,0,0,0,27.4-5.78c14-6.39,34.1-3.35,34.1-3.35a11.45,11.45,0,0,0,7-5.78c2.13-4.57,2.13-32.27,1.52-34.1-4-12-3.67-19.7-2.52-24.19a12,12,0,0,1,2.52-5.34Z" transform="translate(0 -0.09)"/><path class="cls-5" d="M429.37,352.74c-.07,1.77-.26,3.76-.53,5.9-3.06.24-11.64.47-18-3.46-6-3.68-14.73-4.93-18.66-5.32a12,12,0,0,1,2.52-5.34Z" transform="translate(0 -0.09)"/><path class="cls-9" d="M433.58,348.93c-1.42,4-3.6,8.69-3.6,8.69s-11.26,1.52-19.18-3.35-20.7-5.48-20.7-5.48c2.07-1.27,3.47-5.13,4.34-8.51a52.13,52.13,0,0,0,1.14-5.8s37.44,7.61,39,8.83C435.16,343.79,434.54,346.21,433.58,348.93Z" transform="translate(0 -0.09)"/><path class="cls-10" d="M500.3,220.62,454.89,248l-4.51,2.72V237.36l3.13-1.5,38.27-18.29s1.83-33.18,6.7-28S500.3,220.62,500.3,220.62Z" transform="translate(0 -0.09)"/><path class="cls-5" d="M454.89,248l-4.51,2.72V237.36l3.13-1.5A99.39,99.39,0,0,0,454.89,248Z" transform="translate(0 -0.09)"/><path class="cls-12" d="M419.94,252.93l32.57-18.87s.61,18.27,4.26,21c0,0-13.39,4-18.57,12.48Z" transform="translate(0 -0.09)"/><path class="cls-5" d="M419.94,252.93l32.57-18.87s.61,18.27,4.26,21c0,0-13.39,4-18.57,12.48Z" transform="translate(0 -0.09)"/><path class="cls-10" d="M500,269s-15.49,6.75-25.75,9.23a20.22,20.22,0,0,1-7.13.82c-7-1.22,1.83-10,1.83-10l3.68-.57,19.76-3.08s2.13-30.44,5.78-28S500,269,500,269Z" transform="translate(0 -0.09)"/><path class="cls-10" d="M434.55,241.62s-13.09,9.74-8.22,21.92-25.27-7.31-25.27-7.31,9.74-14.61,11.87-25.57S434.55,241.62,434.55,241.62Z" transform="translate(0 -0.09)"/><path class="cls-5" d="M433.58,348.93a69.13,69.13,0,0,0-17.6-4.1c-8.8-1-16.86-2.69-21.53-4.55a52.13,52.13,0,0,0,1.14-5.8s37.44,7.61,39,8.83C435.16,343.79,434.54,346.21,433.58,348.93Z" transform="translate(0 -0.09)"/><path class="cls-5" d="M474.25,278.25a20.22,20.22,0,0,1-7.13.82c-7-1.22,1.83-10,1.83-10l3.68-.57C474.17,270.87,475.74,274.57,474.25,278.25Z" transform="translate(0 -0.09)"/><path class="cls-12" d="M413.24,247.1s-11.87-.3-16.13,4.57-3.35,18-3.35,18-.89,26.29,5.78,41a2,2,0,0,1,.07,1.51c-.07.18-.07.07-.07.07s-4.26,19.18-8.52,22.53,9.13,7.31,25,9.13,22.22,6.39,22.22,6.39,2.74-3,3-9.74S437,284.85,437,284.85s16.74,4.26,26.79-.91c0,0,4.57,2.44,8.83-4.26s-3-14-3-14-6.7,6.7-25.27-2.13S419,246.8,413.24,247.1Z" transform="translate(0 -0.09)"/><path class="cls-9" d="M322.22,424.28h-3.65v5.18l3.65,8.22s4.87.91,5.18.91,4.26-.91,4.26-.91l1.22-2.13S319.48,430.36,322.22,424.28Z" transform="translate(0 -0.09)"/><path class="cls-12" d="M436.68,429.15l-5.48,12.18,23.14,11,18.27.61s1.52-4.26-4.57-6.39l-4.87-.91s-6.39-11.57-7-17c0,0-6.09,1.22-7,5.78C449.16,434.32,440.64,438.58,436.68,429.15Z" transform="translate(0 -0.09)"/><path class="cls-12" d="M319.48,423.06l-1.86,1.52-8.18,6.7,18.87,25s10.65,4.57,15.53,0c0,0,3-3-3.65-5.48,0,0-5.18.91-5.18-4.26s1.22-10.65,3-11.87c0,0-4.57-1.52-5.78-.3a19.52,19.52,0,0,0-2.44,3.35S318.87,433.41,319.48,423.06Z" transform="translate(0 -0.09)"/><path class="cls-5" d="M412.33,231.27a37.84,37.84,0,0,1-1.22,4.56,15.83,15.83,0,0,0,20.27,8.71,24.48,24.48,0,0,1,2.57-2.31S414.46,220.31,412.33,231.27Z" transform="translate(0 -0.09)"/><path class="cls-5" d="M410.65,271.93s9.44,12.48,23.14,12.79" transform="translate(0 -0.09)"/><g class="cls-13"><path d="M467.07,284.15a2.92,2.92,0,0,1-.56-.21c-.29.15-.59.3-.9.43A5.61,5.61,0,0,0,467.07,284.15Z" transform="translate(0 -0.09)"/><path d="M470.31,266.93a15.44,15.44,0,0,0-1.06-1.22s-2,2-6.94,2.38A16.83,16.83,0,0,0,470.31,266.93Z" transform="translate(0 -0.09)"/><path d="M439.72,284.85l.06.65a60.71,60.71,0,0,0,12.18,1A63.22,63.22,0,0,1,439.72,284.85Z" transform="translate(0 -0.09)"/><path d="M418.72,343.93c-15.83-1.83-29.22-5.78-25-9.13s8.52-22.53,8.52-22.53,0,.11.07-.07a2,2,0,0,0-.07-1.51c-6.67-14.75-5.78-41-5.78-41s-.91-13.09,3.35-18c3.17-3.63,10.56-4.38,14.13-4.53a5.57,5.57,0,0,0-1,0s-11.87-.3-16.13,4.57-3.35,18-3.35,18-.89,26.29,5.78,41a2,2,0,0,1,.07,1.51c-.07.18-.07.07-.07.07s-4.23,19.12-8.53,22.47,9.13,7.31,25,9.13,22.22,6.39,22.22,6.39a7.42,7.42,0,0,0,.84-1.23C435.68,347.58,429.32,345.13,418.72,343.93Z" transform="translate(0 -0.09)"/></g><circle class="cls-10" cx="426.33" cy="229.05" r="15.83"/><path class="cls-5" d="M448.86,222.06c-1.31,3.28-5.22,4.52-8.65,5.37-4.9,1.2-10.18,2.38-14.87.52a3.25,3.25,0,0,0-2-.39,2.65,2.65,0,0,0-1.32,1.15c-5.17,7.36-4.33,17.17-5.67,26.07-.42,2.77-1.13,5.63-3,7.7-3.64,4-10.51,3.85-13.86,8.1-2.21,2.8-2.23,6.69-2.21,10.26q0,5.71-.1,11.43c-.06,2.5-.18,5.09-1.31,7.31-1.92,3.76-6.2,5.55-10.15,7-2.46.92-5,1.85-7.64,1.6s-5.28-2-5.62-4.64c-.47-3.58,3.22-6.08,5.76-8.66,4.06-4.11,5.73-10.09,5.88-15.87a17.11,17.11,0,0,0-1-6.87c-.93-2.27-2.59-4.18-3.59-6.42-3.08-6.9.72-14.88,5.27-20.92s10.14-11.93,11.11-19.42a26.94,26.94,0,0,1,.69-4.81c.7-2.18,2.36-8.2,4.19-9.58a21.72,21.72,0,0,1,10-4.16c2.81-.41,5.68-.26,8.47-.8,3.26-.63,6.29-2.18,9.55-2.76,7-1.25,14.7,6.94,17.79,13.4C447.43,218.65,449.66,220.05,448.86,222.06Z" transform="translate(0 -0.09)"/><path class="cls-14" d="M448.86,221.45c-1.31,3.28-5.22,4.52-8.65,5.37-4.9,1.2-10.18,2.38-14.87.52a3.25,3.25,0,0,0-2-.39A2.65,2.65,0,0,0,422,228.1c-5.17,7.36-4.33,17.17-5.67,26.07-.42,2.77-1.13,5.63-3,7.7-3.64,4-10.51,3.85-13.86,8.1-2.21,2.8-2.23,6.69-2.21,10.26q0,5.72-.1,11.43c-.06,2.5-.18,5.09-1.31,7.31-1.92,3.76-6.2,5.55-10.15,7-2.46.92-5,1.85-7.64,1.6s-5.28-2-5.62-4.64c-.47-3.58,3.22-6.08,5.76-8.66,4.06-4.11,5.73-10.09,5.88-15.87a17.11,17.11,0,0,0-1-6.87c-.93-2.27-2.59-4.18-3.59-6.42-3.08-6.9.72-14.88,5.27-20.92s10.14-11.93,11.11-19.42a26.94,26.94,0,0,1,.69-4.81c.7-2.18,2.36-8.2,4.19-9.58a21.72,21.72,0,0,1,10-4.16c2.81-.41,5.68-.26,8.47-.8,3.26-.63,6.29-2.18,9.55-2.76,7-1.25,14.7,6.94,17.79,13.4C447.43,218,449.66,219.44,448.86,221.45Z" transform="translate(0 -0.09)"/><path class="cls-15" d="M500.58,190.36H763.74V453.5H500.58Z" transform="translate(0 -0.09)"/><path d="M569.22,410.93l20.14-12.19c3.89,6.89,7.42,12.72,15.9,12.72,8.13,0,13.25-3.18,13.25-15.54V311.83h24.73v84.43c0,25.61-15,37.27-36.92,37.27-19.78,0-31.26-10.25-37.09-22.61m87.44-2.65,20.13-11.66c5.3,8.66,12.19,15,24.38,15,10.25,0,16.78-5.12,16.78-12.19,0-8.48-6.71-11.48-18-16.43l-6.18-2.65c-17.84-7.59-29.68-17.13-29.68-37.27,0-18.55,14.13-32.68,36.21-32.68,15.72,0,27,5.48,35.15,19.78l-19.25,12.37c-4.24-7.6-8.83-10.6-15.9-10.6-7.24,0-11.84,4.59-11.84,10.6,0,7.42,4.59,10.42,15.19,15l6.18,2.65c21,9,32.86,18.19,32.86,38.86,0,22.26-17.49,34.45-41,34.45-23,0-37.8-11-45-25.26" transform="translate(0 -0.09)"/><path class="cls-16" d="M878.62,600.21s-10.27.72-16.61-10.28a36.76,36.76,0,0,0-4.37-6.21,21,21,0,0,1-3.07-11.15c.35-8.15-8.15-52.79-8.15-52.79s1.06-17-7.44-27.63c-5.6-7-13.65-27-18.5-39.92a2.67,2.67,0,0,0,1.14.6l-.2-1.11h.2l-2.51-13.79A63.23,63.23,0,0,1,810,424.05l.57-.12,7.52-1.58s12.22-17.37,13-25.91h2.41a294.6,294.6,0,0,1,33.86,1.77h0s-.08-.27-.18-.62h0a42.64,42.64,0,0,1-1.1-5.23h.7l7-.46S897.82,365,889,360s-18.07,22.32-18.07,22.32l-3,.54-.81.15c.08-.12.16-.23.25-.34s-39.32-1.76-45.39-11.34c0,0-17.36-13.82-18.07-23a10.4,10.4,0,0,0-6.24-8.84,13.63,13.63,0,0,0-6.89-1.29l-8.13.56.57,1H783a27,27,0,0,1-1.28-3.6h.17c-.06-.25-.11-.5-.16-.75a19.14,19.14,0,0,0,14.23-23c0-.18-.09-.37-.14-.55a7.66,7.66,0,0,0,2.39-.07c3-.61,5.11-3.65,5.19-6.69v-.71a10.27,10.27,0,0,0-4-7.9c-1.62-1.35-3.56-2.31-5-3.81-1.75-1.79-2.71-4.19-4.07-6.3a18.72,18.72,0,0,0-9.6-7.47c-2.93-1-6.53-1.1-8.78,1-1.16,1.09-1.83,2.67-3.13,3.59-1.87,1.34-4.41.94-6.7,1.21a12.79,12.79,0,0,0-9.63,7.21,16.7,16.7,0,0,0-1.58,7.62,20.56,20.56,0,0,0,.64,5.35c.44,1.74,1.09,3.42,1.57,5.16,1,3.6,1.23,7.39,2.38,10.94a13.8,13.8,0,0,0,4.43,6.73l-.34,1.46c-.22,0-5.74,1.23-9.55,9.56-3,6.57-13.21,13.35-17.7,16.09a7.39,7.39,0,0,0-3.34,4.64,24.28,24.28,0,0,0-.57,5.89c-.08,4.27.81,10.18,4.24,17.67,7.79,17,13.46,24.44,13.46,24.44s.43,5.21.46,10.7c0,4.09-.3,8.16-1.17,10.2-.74,1.72-1,6.11-.94,11.13,0,9.62.94,22.17.94,22.17s2.71.52,6.9,1.13l2.61,45.92a22.08,22.08,0,0,1-5,15.34,33.74,33.74,0,0,1-6.29,6c-7.44,5.31-23.38,61.29-23.38,61.29a19.63,19.63,0,0,1,2.06.15l-4.9,13.67s19.58,15,31.49,10.9a11.53,11.53,0,0,1,4-.56c2.35,0,7.38-1.86,4.58-4.31a180.27,180.27,0,0,1-15.27-15.88,8.14,8.14,0,0,1,1.1.65v-.11l.17.11a11.25,11.25,0,0,1,.13-1.45l-.17-.06c.36-3.68,1.5-13,3.76-14.08C750,579,771,537.52,771,537.52l20.9-53.85s16.65,28.7,30.82,33.65v12s7.79,35.43,10.63,39.32,0,19.48,0,19.48a9.56,9.56,0,0,0,1.91,1.68l-2.27,12.84s16.3-.71,43.93,7.79C876.85,610.48,887.48,605.88,878.62,600.21ZM813.44,414.93l-3.45.86-.68.17c-.07-.43-.12-.68-.12-.68a7,7,0,0,1-2.51.61,46.19,46.19,0,0,1-2.1-11.95,80.35,80.35,0,0,1-2.11-14.8c0-2.58.43-4.83,1.4-6.1l1.15.09.8.76.06.05.41.37h0l.43.38.07.06.46.41.08.07.47.4h0l.53.44.12.1.56.45h0l.55.44.13.1.61.46.13.09.58.43.1.07.66.47.16.11.7.48h.06l.68.45.16.11.73.47.16.1.68.42.13.08.78.46.19.11.81.45h.06l.79.42.19.1.84.42.17.08.78.36.15.07.88.38.21.09.91.37h0C816.34,400.43,813.44,414.93,813.44,414.93Z" transform="translate(0 -0.09)"/><path class="cls-17" d="M726.06,583.09l-6.57,18.33s18,13.8,29.7,10.94a32.49,32.49,0,0,1,5.37-.87c2.42-.18,6.59-2,4-4.19-8.3-7.26-19.37-20.75-19.37-20.75Z" transform="translate(0 -0.09)"/><path class="cls-17" d="M835.35,581.36,832.24,599s15.91-.69,42.89,7.61c0,0,10.38-4.5,1.73-10,0,0-10,.69-16.25-10s-10-9.34-10-9.34Z" transform="translate(0 -0.09)"/><path class="cls-18" d="M753,453.4l3,53.68a22.2,22.2,0,0,1-5.29,15.7,32.42,32.42,0,0,1-5.71,5.33c-7.26,5.19-22.83,59.83-22.83,59.83s17.64,1,22.48,4.5c0,0,1-13.83,3.8-15.22s23.17-41.85,23.17-41.85L792,482.8s16.25,28,30.09,32.86v11.76s7.61,34.59,10.38,38.39,0,19,0,19,8,10,26.28-.69c0,0-5.88-6.57-5.53-14.53s-8-51.53-8-51.53,1-16.6-7.26-27-22-50.13-22-50.13l-9.52-20.48Z" transform="translate(0 -0.09)"/><g class="cls-13"><path d="M725.54,587.93s15.56-54.64,22.83-59.83a32.62,32.62,0,0,0,6-5.68,22,22,0,0,0,5-15.34l-3-53.69,51-31.44-.69-1.49L753.21,453.4l3,53.69a22,22,0,0,1-5,15.34,32.62,32.62,0,0,1-6,5.68c-7.25,5.18-22.83,59.82-22.83,59.82s17.64,1,22.48,4.5A10.58,10.58,0,0,1,745,591C738.23,588.68,725.54,587.93,725.54,587.93Z" transform="translate(0 -0.09)"/><path d="M835.87,584.82s2.77-15.22,0-19-10.38-38.39-10.38-38.39V515.65c-13.83-4.84-30.09-32.86-30.09-32.86l-1.2,3.14c4.69,7.44,17.2,25.9,28.19,29.74v11.76S830,562,832.77,565.82s0,19,0,19,3.86,4.86,12.38,4.2C838.78,588.49,835.87,584.82,835.87,584.82Z" transform="translate(0 -0.09)"/></g><path class="cls-19" d="M872,393.22l-6.79.45-3.58.24v-8.65l4.7-.85,2.91-.53s9-26.63,17.64-21.79S872,393.22,872,393.22Z" transform="translate(0 -0.09)"/><path class="cls-19" d="M763.07,321.93s-4.5,17.29-5.88,28S789.35,352,789.35,352s-12.8-15.56-5.53-23.86Z" transform="translate(0 -0.09)"/><path class="cls-9" d="M799.38,393.93l.69,6.57-10.72-.69-10.72-9.34-10.72-30.1L761,349.64l-5.19-6.57,2.08-8s1,.83,2.55,2.05c5.27,4,17.62,12.41,26.65,10.09a12.57,12.57,0,0,0,1.23-.39L801.82,370Z" transform="translate(0 -0.09)"/><path class="cls-5" d="M760.65,333s-5.53,1-9.34,9.34c-2.92,6.38-12.8,13-17.21,15.67a7.38,7.38,0,0,0-3.35,4.66c-.89,3.94-1.23,11.29,3.61,21.86,7.61,16.6,13.14,23.86,13.14,23.86s1.38,16.6-.69,21.44,0,31.47,0,31.47,36.31,6.92,48.42,0,10.38-33.55,10.38-33.55S817,452,821.17,452.69l-2.42-13.49s-13.49-14.53-14.18-33.2c0,0-4.15-16.95-.69-21.44,0,0,58.45,4.84,61.91.69,0,0-38.39-1.73-44.27-11.07,0,0-16.95-13.49-17.64-22.48a9.94,9.94,0,0,0-5.19-8.15,13.53,13.53,0,0,0-7.75-1.73l-7.81.54s13.49,23.86,12.8,27,.69,28.36.69,28.36S781,364.17,774.14,360.37s-14.88-19.44-14.88-19.44l1.38-7.9" transform="translate(0 -0.09)"/><path class="cls-5" d="M799.38,393.93l.69,6.57-10.72-.69-10.72-9.34-10.72-30.1L761,349.64l-5.19-6.57,2.08-8s1,.83,2.55,2.05l-.48,2.73s8,15.62,14.87,19.43,22.48,37.35,22.48,37.35-1.38-25.25-.69-28.36c.47-2.11-5.59-13.77-9.53-21.06a12.57,12.57,0,0,0,1.23-.39L801.82,370Z" transform="translate(0 -0.09)"/><path class="cls-5" d="M865.22,393.67l-3.58.24v-8.65l4.7-.85C864.7,386.58,864.76,390.42,865.22,393.67Z" transform="translate(0 -0.09)"/><path class="cls-18" d="M760.65,332s-5.53,1-9.34,9.34c-2.92,6.38-12.8,13-17.21,15.67a7.38,7.38,0,0,0-3.35,4.66c-.89,3.94-1.23,11.29,3.61,21.86,7.61,16.6,13.14,23.86,13.14,23.86s1.38,16.6-.69,21.44,0,31.47,0,31.47,36.31,6.92,48.42,0,10.38-33.55,10.38-33.55,11.4,24.17,15.56,24.91l-2.42-13.49s-13.49-14.53-14.18-33.2c0,0-4.15-17-.69-21.44,0,0,13.49,14.53,28.71,14.18a285.41,285.41,0,0,1,33.2,1.73s-3.46-11.07,0-15.22c0,0-38.39-1.73-44.27-11.07,0,0-16.95-13.49-17.64-22.48a9.94,9.94,0,0,0-5.19-8.15,13.53,13.53,0,0,0-7.75-1.73l-7.81.54s13.49,23.86,12.8,27,.69,28.36.69,28.36S781,363.13,774.14,359.33s-14.88-19.4-14.88-19.4l1.38-7.9" transform="translate(0 -0.09)"/><path class="cls-5" d="M753,368.32s8.3,28,13.14,31.47,34.24,21.1,42.89,16.95c0,0,2.08,10.38-1,12.8,0,0-32.25-1.26-32.51-1.38,0,0-21.1-2.77-24.56-13.14s-7.61-28-7.61-28Z" transform="translate(0 -0.09)"/><ellipse class="cls-20" cx="797.31" cy="398.15" rx="1.21" ry="1.73"/><ellipse class="cls-20" cx="800.76" cy="410.25" rx="1.21" ry="1.73"/><g class="cls-13"><path d="M749.24,459.93s-2.08-26.63,0-31.47.69-21.44.69-21.44-5.53-7.26-13.14-23.86c-4.85-10.57-4.5-17.92-3.61-21.86a7.38,7.38,0,0,1,3.35-4.66c4.41-2.7,14.28-9.29,17.21-15.67,2.15-4.68,4.84-7.05,6.78-8.23l.13-.76s-5.53,1-9.34,9.34c-2.92,6.38-12.8,13-17.21,15.67a7.38,7.38,0,0,0-3.35,4.66c-.89,3.94-1.23,11.29,3.61,21.86,7.61,16.6,13.14,23.86,13.14,23.86s1.38,16.6-.69,21.44,0,31.47,0,31.47,25.94,4.94,41.28,2.29C772.6,464.42,749.24,459.93,749.24,459.93Z" transform="translate(0 -0.09)"/><path d="M795.92,368.32c-.47,2.13,0,14.66.39,22.34,1.67,3.41,2.72,5.68,2.72,5.68s-1.38-25.25-.69-28.36-11.49-24.66-12.7-26.8l-2.52.17S796.62,365.21,795.92,368.32Z" transform="translate(0 -0.09)"/><path d="M835,397.37c-15.22.35-28.71-14.18-28.71-14.18a5.61,5.61,0,0,0-.87,1.87c4,3.72,15,12.93,27.16,12.65a285.41,285.41,0,0,1,33.2,1.73s-.07-.23-.18-.62A276.78,276.78,0,0,0,835,397.37Z" transform="translate(0 -0.09)"/><path d="M808,426.42s.14,2.16.06,5.4c3.6,7.14,10.15,19.35,13.08,19.84l-.51-2.84C815.61,442.5,808,426.42,808,426.42Z" transform="translate(0 -0.09)"/></g><path class="cls-19" d="M817.71,422.93l-7.35,1.55-5.8,1.22,3.11-8.65,2.17-.54,3.37-.84s4.84-24.21,14.53-22.48S817.71,422.93,817.71,422.93Z" transform="translate(0 -0.09)"/><path class="cls-5" d="M810.37,424.51l-5.8,1.22,3.11-8.65,2.17-.54A34.34,34.34,0,0,1,810.37,424.51Z" transform="translate(0 -0.09)"/><path class="cls-18" d="M753,367.63s8.3,28,13.14,31.47,34.24,21.1,42.89,16.95c0,0,2.08,10.38-1,12.8,0,0-32.25-1.26-32.51-1.38,0,0-21.1-2.77-24.56-13.14s-7.61-28-7.61-28Z" transform="translate(0 -0.09)"/><path class="cls-5" d="M763.41,322.67s-.7,2.71-1.64,6.65a18.67,18.67,0,0,0,20.61,9.5c-.83-3.55-.65-7.14,1.78-9.92Z" transform="translate(0 -0.09)"/><circle class="cls-19" cx="777.94" cy="319.81" r="18.68"/><path class="cls-5" d="M794.16,314.76a9.9,9.9,0,0,0,4.16.26,6.85,6.85,0,0,0,5.06-6.53,10,10,0,0,0-3.85-7.71c-1.58-1.32-3.47-2.25-4.92-3.72-1.71-1.75-2.65-4.09-4-6.15a18.22,18.22,0,0,0-9.37-7.29c-2.86-1-6.37-1.08-8.57,1-1.13,1.07-1.79,2.6-3,3.51-1.83,1.3-4.31.92-6.54,1.18a12.47,12.47,0,0,0-9.4,7,17.6,17.6,0,0,0-.92,12c.43,1.7,1.07,3.34,1.53,5,1,3.52,1.2,7.21,2.32,10.68s3.43,6.87,6.93,7.91a21.84,21.84,0,0,1,2.23-11.29,3.28,3.28,0,0,1,1.58-1.76,3.82,3.82,0,0,1,1.9,0,19,19,0,0,0,12.65-2.56c1.33-.8,3.4-3.56,4.81-3.83C788.53,312.15,792.26,314.34,794.16,314.76Z" transform="translate(0 -0.09)"/><path class="cls-21" d="M794.16,314.07a9.9,9.9,0,0,0,4.16.26,6.85,6.85,0,0,0,5.06-6.53,10,10,0,0,0-3.85-7.71c-1.58-1.32-3.47-2.25-4.92-3.72-1.71-1.75-2.65-4.09-4-6.15a18.22,18.22,0,0,0-9.37-7.29c-2.86-1-6.37-1.08-8.57,1-1.13,1.07-1.79,2.6-3,3.51-1.83,1.3-4.31.92-6.54,1.18a12.47,12.47,0,0,0-9.4,7,17.6,17.6,0,0,0-.92,12c.43,1.7,1.07,3.34,1.53,5,1,3.52,1.2,7.21,2.32,10.68s3.43,6.87,6.93,7.91a21.9,21.9,0,0,1,2.25-11.28,3.28,3.28,0,0,1,1.58-1.76,3.82,3.82,0,0,1,1.9,0,19,19,0,0,0,12.65-2.56c1.33-.8,3.4-3.56,4.81-3.83C788.53,311.46,792.26,313.65,794.16,314.07Z" transform="translate(0 -0.09)"/><path class="cls-22" d="M980.51,252.42l-15.24,170.7-68.5,19-68.31-19-15.22-170.7Z" transform="translate(0 -0.09)"/><path class="cls-23" d="M896.87,427.6l55.35-15.34,13-145.88H896.87Z" transform="translate(0 -0.09)"/><path class="cls-24" d="M867.25,308.26h29.62V287.32h-52.5l.5,5.62,5.15,57.7h46.86V329.7H869.17ZM872,361.11H851L853.94,394l42.84,11.94h.1V384.08h-.09l-23.32-6.3Z" transform="translate(0 -0.09)"/><path d="M828.81,206h10.64v10.51h9.73V206h10.64v31.84H849.18V227.2h-9.73v10.66H828.81Zm45,10.56h-9.37V206h29.38v10.56h-9.37v21.28H873.82V216.58h0ZM898.49,206h11.1l6.83,11.19L923.24,206h11.1v31.84h-10.6V222.08l-7.32,11.32h-.18l-7.33-11.32v15.78H898.49Zm41.14,0h10.64v21.31h15v10.52H939.66V206Z" transform="translate(0 -0.09)"/><path class="cls-25" d="M896.8,350.64h25.78l-2.43,27.16-23.35,6.3v21.83L939.73,394l.31-3.54L945,335.36l.51-5.62H896.8v20.9Zm0-42.43v.05h50.58l.42-4.71,1-10.62.5-5.62H896.8V308.2Z" transform="translate(0 -0.09)"/><path class="cls-26" d="M366.73,378.44c-2-5.71-4.76-13-7-14.66a1.79,1.79,0,0,0-.44-.27H359v-7.05l-5.26.84a51.14,51.14,0,0,1-1.91-7.81,3.62,3.62,0,0,0,4,.79c-.09-.14-.16-.29-.24-.44l.24-.1a9.69,9.69,0,0,1-1.27-4.79,17.35,17.35,0,0,1,.73-4.52c.94-3.25,2.53-6.29,3.42-9.55a23.12,23.12,0,0,0,.8-6.46A23.57,23.57,0,0,0,357,313.77a6.26,6.26,0,0,0-1.86-2.43,24,24,0,0,0-2.28-1.11,12.37,12.37,0,0,1-3.31-3.3,29.73,29.73,0,0,0-14.37-9.59,8.45,8.45,0,0,0-4.59-.36c-3.53,1-4.82,5.33-7.68,7.62-2.53,2-6,2.23-9.16,2.91a15.6,15.6,0,0,0-8.53,4.47,9.24,9.24,0,0,0-2.29,6.18,6.18,6.18,0,0,0,2.53,5.52,7.94,7.94,0,0,0,6.7.95,22.79,22.79,0,0,0,15.55,28.23c.56.16,1.13.3,1.7.42l.62,1.1h0a47.11,47.11,0,0,1,4.27,11.17c-4.84,2.75-10.13,5.32-13.32,5.56a23.07,23.07,0,0,1-.69,3.69,20.4,20.4,0,0,1-4.19,8.25c-4.34,4.88-23.87,41.78-23.87,41.78s-.62,1.47-1.62,4c-12.13,1.49-31.92,3.64-37.45,2.53l-21.7-20.62s-7,5.35-6.4,11.85l-3.91-3.72s-20.62,15.73,11.94,26l49.54,5.75c-4.72,14.24-9.12,30.81-7.76,39.83h.41a19.16,19.16,0,0,0,2.83-.22l-.09,1.6-4.77,85.43s-1.09,15.73,13.56,22.79c0,0,17.91,52.63,10.85,58.6,0,0,.84.44,2.25,1.06l-14.73,13s-10.85,2.71-16.82,2.17a4.31,4.31,0,0,0-4.76,3.21.7.7,0,0,1-.06.34v1.05a.63.63,0,0,0,.07.35V680a2.29,2.29,0,0,0,.12.37v.12c.05.12.11.24.17.36v.08c.07.12.14.24.22.36l.07.1c.09.13.18.25.29.38l.08.1c.11.13.23.25.36.38H265l.4.34.09.07.49.35.12.08.57.33h.09l.61.3h.09l.71.29.15.06.79.26h.13l.85.22h.07l1,.19h.19l1,.15h.19l1.15.11c2.23.17,5.24.23,8.72.22h0v.56a.63.63,0,0,0,.07.35v.13a2.29,2.29,0,0,0,.12.37v.12c.05.12.11.24.17.36v.08c.07.12.14.24.22.36l.07.1c.09.13.18.25.29.38l.08.1c.11.13.23.25.36.38h.05l.4.34.09.07.49.35.12.08.56.33h.09l.61.3h.09l.71.29.15.06.79.26h.13l.85.22H289l1,.19h.19l1,.15h.19l1.15.11c14.11,1.09,59.14-2.17,59.14-2.17v-.13h0v-.16h0c.45-2.1,2.61-14.31-5.07-23.34q.35-.36.66-.75s-6-10.31-2.71-13.56-15.89-59.18-15.89-59.18-10.31-16.28-4.34-34.73-.54-38.52-.54-38.52,14.25-4.22,14.51-21.75V495.3a6.8,6.8,0,0,0,.9.06h.6s-2.71-9.77.54-16.82,10.31-.54,16.82-29.3c4.71-20.81,8.85-44.74,10.79-56.39A29.63,29.63,0,0,0,366.73,378.44Zm-123.82,61-4.95-4.7c1.64.68,3.46,1.34,5.49,2l18.65,2.19c-8.32.75-16.09,1.17-19.19.54Z" transform="translate(0 -0.09)"/><path class="cls-10" d="M290.14,436.7s-38.38,5.33-46.38,3.73l-21.32-20.26s-20.26,15.46,11.73,25.59l59.7,6.93Z" transform="translate(0 -0.09)"/><path class="cls-27" d="M290.14,436.7s-38.38,5.33-46.38,3.73l-21.32-20.26s-20.26,15.46,11.73,25.59l59.7,6.93Z" transform="translate(0 -0.09)"/><path class="cls-28" d="M215,450.15l-82.94-23-18.48-207.3H316.68l-18.5,207.27Z" transform="translate(0 -0.09)"/><path class="cls-29" d="M282.34,413.93l15.81-177.12h-83V432.52Z" transform="translate(0 -0.09)"/><path class="cls-24" d="M156,313.66l2.28,25.42h56.9V313.66Zm-4.58-51.46,2.31,25.42h61.44V262.2H151.43Zm63.75,117.49h-.11L186.75,372l-1.81-20.28H159.37l3.56,39.92L215,406.17h.12Z" transform="translate(0 -0.09)"/><path d="M161.39,163.49h30.79v12.88H174.26v12.88h17.92v12.88H161.39Zm37,0h30.79v11.2h-18v2.24h17.92v25.76h-30.8V190.93h17.92v-2.24H198.34v-25.2Zm37,0h30.79v11.2h-18v2.24h17.92v25.76h-30.8V190.93h17.92v-2.24H235.29v-25.2Z" transform="translate(0 -0.09)"/><path class="cls-25" d="M274.15,313.66l4.59-51.46H215v25.42h35.83l-2.31,26H215V339h31.31l-3,33L215,379.71v26.45l52.12-14.45.38-4.3,6-66.94.62-6.83Z" transform="translate(0 -0.09)"/><path class="cls-30" d="M304,653.12l-18.66,16.52s-10.66,2.67-16.52,2.13-8.53,9.06,5.33,10.13,58.1-2.13,58.1-2.13,4.26-17.06-8.53-26.65Z" transform="translate(0 -0.09)"/><path class="cls-27" d="M304,653.12l-18.66,16.52s-10.66,2.67-16.52,2.13-8.53,9.06,5.33,10.13,58.1-2.13,58.1-2.13,4.26-17.06-8.53-26.65Z" transform="translate(0 -0.09)"/><path class="cls-31" d="M332.92,672.4a29.61,29.61,0,0,1-.67,5.78s-44.24,3.2-58.1,2.13c-6.67-.51-9.5-3-10-5.38-.61,2.74,1.81,6.35,10,7,13.86,1.07,58.1-2.13,58.1-2.13A30.68,30.68,0,0,0,332.92,672.4Z" transform="translate(0 -0.09)"/><path class="cls-10" d="M325.85,350.93s11.73,16.52,7.46,27.72,22.39-11.73,22.39-11.73-8.53-15-4.26-31Z" transform="translate(0 -0.09)"/><path class="cls-30" d="M322.65,659.52,304,676s-10.66,2.67-16.52,2.13-8.53,9.06,5.33,10.13,58.1-2.13,58.1-2.13,4.26-17.06-8.53-26.65Z" transform="translate(0 -0.09)"/><path class="cls-11" d="M328,655.79c-2.78,3.43-6.7,4.75-10.8,5-9.32.44-19.58-5-19.58-5,6.93-5.86-10.66-57.57-10.66-57.57-14.39-6.93-13.33-22.39-13.33-22.39l4.66-83.9,1.18-21.08,14.93-9.06,11.76,9,11.16,8.56a44.24,44.24,0,0,1,1.4,8.32c1.3,19.59-14.19,24.2-14.19,24.2s6.4,19.72.53,37.85,4.26,34.12,4.26,34.12,19.19,55.44,16,58.64S328,655.79,328,655.79Z" transform="translate(0 -0.09)"/><path class="cls-27" d="M328,655.79c-2.78,3.43-6.7,4.75-10.8,5-9.32.44-19.58-5-19.58-5,6.93-5.86-10.66-57.57-10.66-57.57-14.39-6.93-13.33-22.39-13.33-22.39l4.66-83.9,1.18-21.08,14.93-9.06,11.76,9,11.16,8.56a44.24,44.24,0,0,1,1.4,8.32c1.3,19.59-14.19,24.2-14.19,24.2s6.4,19.72.53,37.85,4.26,34.12,4.26,34.12,19.19,55.44,16,58.64S328,655.79,328,655.79Z" transform="translate(0 -0.09)"/><path class="cls-11" d="M346.64,662.18c-9.06,11.19-30.38,0-30.38,0a3.39,3.39,0,0,0,.93-1.45C321.1,650.1,304,599.28,304,599.28c-14.39-6.93-16-23.45-16-23.45l-3.77-85.42-.49-11.06,22.43-8.56,6.89-2.63L336,485.75a41.38,41.38,0,0,1,1.44,11.18c-.29,17.21-14.26,21.37-14.26,21.37s6.4,19.72.53,37.85S328,590.22,328,590.22s19.19,55.44,16,58.64S346.64,662.18,346.64,662.18Z" transform="translate(0 -0.09)"/><path class="cls-5" d="M337.45,496.93c-4.61-.66-13.94-6.21-18.73-9.22-1.83-1.15-3-1.92-3-1.92s-4.8-13.33-17.59-3.2a47.79,47.79,0,0,1-13.9,7.86,32.8,32.8,0,0,1-5.93,1.49l1.18-21.08,14.93-9.06,11.76,9,6.89-2.63L336,485.75A41.38,41.38,0,0,1,337.45,496.93Z" transform="translate(0 -0.09)"/><path class="cls-32" d="M366.3,394.64c-1.9,11.44-6,35-10.6,55.39-6.4,28.25-13.33,21.85-16.52,28.78s-.53,16.52-.53,16.52c-5.33.53-22.92-11.19-22.92-11.19s-4.8-13.33-17.59-3.2-22.92,9.59-22.92,9.59c-2.67-17.59,17.06-64.5,17.06-64.5s19.19-36.25,23.45-41a19.93,19.93,0,0,0,4.12-8.1,22.41,22.41,0,0,0,.68-3.62c6.93-.53,24-12.26,24-12.26l13.33-2.13v6.93a1.79,1.79,0,0,1,.44.27c2.19,1.67,5,8.79,6.87,14.4A29.17,29.17,0,0,1,366.3,394.64Z" transform="translate(0 -0.09)"/><path class="cls-10" d="M304,444.7l-6.89-.8-52.81-6.13c-32-10.13-11.73-25.59-11.73-25.59l21.32,20.26c6.15,1.23,30.28-1.64,41.09-3l5.29-.7Z" transform="translate(0 -0.09)"/><path class="cls-5" d="M355.7,372.74S341.84,361.55,321,397.79s-25.59,30.38-25.59,30.38,4.26,16,2.13,19.19c0,0,14.39-1.07,19.72,0s38.38-40.51,38.38-40.51S372.76,383.4,355.7,372.74Z" transform="translate(0 -0.09)"/><path class="cls-5" d="M355.17,370.61s-13.86-11.19-34.65,25.05S294.93,426,294.93,426s16.52,18.12,21.85,19.19,38.38-40.51,38.38-40.51S372.23,381.27,355.17,370.61Z" transform="translate(0 -0.09)"/><path class="cls-5" d="M297.11,443.93c.22-3.95-1.27-10.89-2.13-14.49l5.29-.7,3.73,16Z" transform="translate(0 -0.09)"/><path class="cls-32" d="M355.7,371.67S341.84,360.48,321,396.73s-25.59,30.38-25.59,30.38,4.26,16,2.13,19.19c0,0,14.39-1.07,19.72,0s38.38-40.51,38.38-40.51S372.76,382.33,355.7,371.67Z" transform="translate(0 -0.09)"/><path class="cls-5" d="M352,337l-25.63,14.91a54.07,54.07,0,0,1,3,4.88,22.47,22.47,0,0,0,4.48.45c6.83,0,10-7.17,14.13-12C347.69,341.42,350.83,341.32,352,337Z" transform="translate(0 -0.09)"/><circle class="cls-10" cx="333.31" cy="333.74" r="22.39"/><path class="cls-5" d="M305,315.72a15.25,15.25,0,0,1,8.38-4.4c3.11-.67,6.52-.87,9-2.86,2.81-2.25,4.07-6.53,7.54-7.49a8.25,8.25,0,0,1,4.51.36,29.15,29.15,0,0,1,14.12,9.42,12.14,12.14,0,0,0,3.26,3.25,23.15,23.15,0,0,1,2.24,1.09,6,6,0,0,1,1.82,2.39,23.2,23.2,0,0,1,1.62,16.27c-.87,3.21-2.43,6.19-3.36,9.39s-1.16,6.82.53,9.68c-1.64.84-3.71-.22-4.74-1.75s-1.34-3.41-1.88-5.18a19.73,19.73,0,0,0-5.78-9c-1.68-1.48-4.68-2.48-5.85-.57-.45.74-.42,1.69-.81,2.46-.76,1.51-3,1.81-4.43,1a6.77,6.77,0,0,1-2.77-4.11c-2.19-7.43-5.94-12.1-13.88-8.93-3,1.18-6.45,2-9.3,0C301.58,324.06,302.31,318.75,305,315.72Z" transform="translate(0 -0.09)"/><path class="cls-33" d="M305,315.18a15.25,15.25,0,0,1,8.38-4.4c3.11-.67,6.52-.87,9-2.86,2.81-2.25,4.07-6.53,7.54-7.49a8.25,8.25,0,0,1,4.51.36,29.15,29.15,0,0,1,14.12,9.42,12.14,12.14,0,0,0,3.26,3.25,23.15,23.15,0,0,1,2.24,1.09,6,6,0,0,1,1.82,2.39,23.2,23.2,0,0,1,1.62,16.27c-.87,3.21-2.43,6.19-3.36,9.39s-1.16,6.82.53,9.68c-1.64.84-3.71-.22-4.74-1.75s-1.34-3.41-1.88-5.18a19.73,19.73,0,0,0-5.78-9c-1.68-1.48-4.68-2.48-5.85-.57-.45.74-.42,1.69-.81,2.46-.76,1.51-3,1.81-4.43,1a6.77,6.77,0,0,1-2.77-4.11c-2.19-7.43-5.94-12.1-13.88-8.93-3,1.18-6.45,2-9.3,0C301.58,323.53,302.31,318.22,305,315.18Z" transform="translate(0 -0.09)"/><path class="cls-27" d="M358.27,366.08H347.44s-21.32,10.66-21.85,10.13c-.36-.36-3.66.26-5.75.69a22.41,22.41,0,0,0,.68-3.62c6.93-.53,24-12.26,24-12.26l13.33-2.13v6.93A2.26,2.26,0,0,1,358.27,366.08Z" transform="translate(0 -0.09)"/><path class="cls-31" d="M351.57,678.79a29.61,29.61,0,0,1-.67,5.78s-44.24,3.2-58.1,2.13c-6.67-.51-9.5-3-10-5.38-.61,2.74,1.81,6.35,10,7,13.86,1.07,58.1-2.13,58.1-2.13A30.68,30.68,0,0,0,351.57,678.79Z" transform="translate(0 -0.09)"/><g class="cls-34"><path d="M293.07,480.41a45.62,45.62,0,0,1-17.73,9,7.48,7.48,0,0,0,.14,1.17s10.13.53,22.92-9.59a17.15,17.15,0,0,1,6.85-3.58C302.46,476,298.48,476.13,293.07,480.41Z" transform="translate(0 -0.09)"/><path d="M365.41,380.47c-1.91-5.61-4.68-12.72-6.87-14.4a1.79,1.79,0,0,0-.44-.27s-4.41.15-4.26.27c2.19,1.67,4.33,8.26,6.24,13.86a29.1,29.1,0,0,1,1.16,14.16c-1.9,11.44-6,35-10.6,55.39-6.4,28.25-13.33,21.85-16.52,28.78-2.62,5.68-1.31,13.14-.74,15.65a13.48,13.48,0,0,0,5.54,1.41s-2.67-9.59.53-16.52S349.58,478.27,356,450c4.63-20.44,8.7-44,10.6-55.39A29.1,29.1,0,0,0,365.41,380.47Z" transform="translate(0 -0.09)"/></g><path class="cls-3" d="M427.36,480a11.66,11.66,0,0,0,3.83-5.78c.5-2.3-.48-5.05-2.68-5.89-2.46-.94-5.09.76-7.08,2.49s-4.28,3.69-6.89,3.32a10.47,10.47,0,0,0,3.24-9.81,4,4,0,0,0-.9-2c-1.37-1.46-3.84-.83-5.48.32-5.2,3.66-6.65,10.72-6.68,17.08-.52-2.29-.08-4.68-.1-7s-.66-5-2.64-6.22a8,8,0,0,0-4-.95c-2.34-.09-4.94.15-6.54,1.86-2,2.12-1.47,5.69.26,8s4.35,3.8,6.77,5.42a15,15,0,0,1,4.84,4.61,4.26,4.26,0,0,1,.36.82h14.65A40.82,40.82,0,0,0,427.36,480Z" transform="translate(0 -0.09)"/><path class="cls-3" d="M454.27,667.81c2.33-2.17,4.52-4.73,5.2-7.84s-.65-6.85-3.63-8c-3.33-1.28-6.9,1-9.6,3.37s-5.8,5-9.33,4.5a14.21,14.21,0,0,0,4.39-13.3,5.55,5.55,0,0,0-1.22-2.7c-1.85-2-5.21-1.13-7.42.43-7,5-9,14.53-9.05,23.15-.71-3.11-.11-6.35-.13-9.54s-.89-6.72-3.58-8.44a10.83,10.83,0,0,0-5.46-1.28c-3.17-.12-6.7.2-8.86,2.52-2.69,2.88-2,7.71.35,10.88s5.9,5.16,9.17,7.35a20.27,20.27,0,0,1,6.55,6.25,6.56,6.56,0,0,1,.49,1.12H442A55.61,55.61,0,0,0,454.27,667.81Z" transform="translate(0 -0.09)"/><path class="cls-35" d="M550.29,489.46A150.32,150.32,0,0,0,525,491.62c-22.38,4-26.45,12.27-26.45,27.59v20.23h52.9v6.74H478.71c-15.37,0-28.84,9.27-33,26.91-4.86,20.22-5.07,32.83,0,53.94,3.76,15.71,12.74,26.91,28.12,26.91H492V629.69c0-17.52,15.1-33,33-33h52.84c14.71,0,26.45-12.15,26.45-27V519.21c0-14.38-12.09-25.19-26.45-27.59a163.37,163.37,0,0,0-27.56-2.16Zm-28.61,16.26a10.12,10.12,0,1,1-9.92,10.15,10.05,10.05,0,0,1,9.92-10.15Z" transform="translate(0 -0.09)"/><path class="cls-36" d="M610.9,546.18v23.57c0,18.27-15.44,33.65-33,33.65H525c-14.47,0-26.45,12.43-26.45,27v50.54c0,14.38,12.47,22.84,26.45,27,16.75,4.94,32.81,5.83,52.84,0,13.32-3.87,26.45-11.66,26.45-27V660.68H551.46v-6.74h79.29c15.38,0,21.11-10.76,26.45-26.91,5.53-16.62,5.29-32.61,0-53.94-3.8-15.36-11.05-26.91-26.45-26.91Zm-29.72,128a10.12,10.12,0,1,1-9.92,10.09A10,10,0,0,1,581.18,674.16Z" transform="translate(0 -0.09)"/><path class="cls-37" d="M373.41,31.68c-9.08,0-15.8,8.22-15.5,17.15.29,8.57-.09,19.67-2.79,28.73s-7.29,14.83-14.77,15.57v8.34c7.48.74,12.06,6.49,14.77,15.57s3.08,20.16,2.79,28.73c-.3,8.92,6.42,17.15,15.5,17.15h93.07c9.08,0,15.8-8.23,15.5-17.15-.29-8.57.09-19.68,2.79-28.73s7.28-14.83,14.76-15.57V93.13c-7.48-.74-12-6.49-14.76-15.57S481.69,57.4,482,48.83c.3-8.92-6.42-17.15-15.5-17.15Zm74.86,80.79c0,12.28-8.86,19.73-23.55,19.73h-25a2.75,2.75,0,0,1-2.7-2.79h0V65.19a2.75,2.75,0,0,1,2.7-2.8h24.87c12.25,0,20.29,6.87,20.29,17.42,0,7.4-5.41,14-12.3,15.19v.39c9.38,1.06,15.7,7.79,15.7,17.08ZM422,71.24H407.73V92.1h12c9.29,0,14.41-3.87,14.41-10.79,0-6.49-4.4-10.07-12.16-10.07Zm-14.26,29.13v23h14.79c9.67,0,14.79-4,14.79-11.56s-5.27-11.42-15.42-11.42Z" transform="translate(0 -0.09)"/></svg>