<?xml version="1.0" encoding="utf-8"?>
<!-- Generator: Adobe Illustrator 24.0.2, SVG Export Plug-In . SVG Version: 6.00 Build 0)  -->
<svg version="1.1" id="_7d1857de-4e1d-4ad3-937b-baacafe47dc3"
	 xmlns="http://www.w3.org/2000/svg" xmlns:xlink="http://www.w3.org/1999/xlink" x="0px" y="0px" viewBox="0 0 1026 717.2"
	 style="enable-background:new 0 0 1026 717.2;" xml:space="preserve">
<style type="text/css">
	.st0{opacity:0.1;fill:#6C63FF;enable-background:new    ;}
	.st1{opacity:0.5;}
	.st2{fill:#6C63FF;}
	.st3{fill:none;stroke:#535461;stroke-width:2;stroke-miterlimit:10;}
	.st4{opacity:0.1;enable-background:new    ;}
	.st5{fill:#FFD037;}
	.st6{fill:#A8A8A8;}
	.st7{opacity:0.2;enable-background:new    ;}
	.st8{fill:#E6E6F0;}
	.st9{fill:#FDC2CC;}
	.st10{fill:#565171;}
	.st11{fill:#B45181;}
	.st12{opacity:0.1;}
	.st13{fill:#F569BC;}
	.st14{fill:#F7DF1E;}
	.st15{fill:url(#SVGID_1_);}
	.st16{fill:#4F4D59;}
	.st17{fill:#C48C96;}
	.st18{fill:#714B4F;}
	.st19{fill:#BA7855;}
	.st20{fill:#503F43;}
	.st21{fill:url(#SVGID_2_);}
	.st22{opacity:5.000000e-02;enable-background:new    ;}
	.st23{fill:#264DE4;}
	.st24{fill:#2965F1;}
	.st25{fill:#EBEBEB;}
	.st26{fill:#FFFFFF;}
	.st27{fill:#47465A;}
	.st28{opacity:0.3;fill:#FFFFFF;enable-background:new    ;}
	.st29{fill:#E1A0A7;}
	.st30{fill:#8F5A6A;}
	.st31{opacity:5.000000e-02;}
</style>
<title>img-icon1</title>
<ellipse class="st0" cx="814.7" cy="585.1" rx="211.4" ry="41.1"/>
<g class="st1">
	<path class="st2" d="M633.6,103.5c-2.8,0.8-6.3,2.9-8.1,8.7c-3.4,11.3,4.5,19,1.9,30.8c-0.7,3.1-2.1,6.1-4,8.6
		c-3.2,4.3-6.6,6.3-9.9,9.3c-4.2,3.8-7.2,8.8-8.7,14.3c-1.6,6.1-1.7,12.4-0.4,18.6c1.2,5.1,3.2,8.9,5,13c2.2,5.3,3.9,10.8,5.1,16.4
		c0.7,2.7,1,5.5,1.1,8.3c0,3.7-0.4,7.4-1,11.1l-4.8,33.4c-0.7,4.4-1.2,8.8-1.3,13.2c0.1,4.4,0.6,8.9,1.5,13.2
		c1.7,8.8,3.5,18,7.3,22.7s10.4,3,14.4-6.5c3.8-9.1,3.9-21.1,7.3-30.8c5.3-15.3,15.9-17.3,21.8-31.9c5.6-14,3.9-31.1,6.8-47
		c2-11.4,6.4-21.8,9-33.1c3.7-16.2,3.3-33.1,0.4-45.6c-2.3-10.3-7.1-19.7-14.2-27.5c-2.5-2.8-5.2-5.2-8.3-5.4
		c-3.3-0.3-6.2,3.9-9.5,5.2C641.3,103.9,637.5,102.4,633.6,103.5z"/>
	<path class="st3" d="M651.7,98.1c0,0-5.7,144.3-29.4,229.4"/>
	<path class="st3" d="M625.4,112.8c0,0,25.3,23.1,20.5,67"/>
	<path class="st3" d="M604.2,178.5c0,0,41.6,8.4,38.5,33.3"/>
	<path class="st3" d="M677.2,129.9c0,0-16.8,14.7-31.8,56.5"/>
	<path class="st3" d="M660.7,256.1c0,0-11.5,9-20.7-22.5"/>
	<path class="st3" d="M611.2,274.5c0,0,23.4-3.1,25.6-17.7"/>
</g>
<path class="st2" d="M690.3,6.7c-5.8,0.9-12.8,3.6-15.7,11.8c-5.6,16.3,11.5,28.6,7.5,45.6c-1.2,4.7-3.7,8.9-7.1,12.3
	c-6,5.9-12.9,8.5-19.4,12.5s-13.3,10.3-16.3,20c-2.9,9.3-1.7,19.6,1.4,27.3s7.7,13.4,11.8,19.7c5,7.8,9.2,16.1,12.5,24.7
	c1.7,3.9,2.8,8.1,3.3,12.3c0.5,5.2-0.1,10.8-0.8,16.3l-6,48.7c-0.8,6.5-1.6,13.1-1.1,19.3c0.5,7.2,2.6,13.5,4.7,19.6
	c4.5,13.2,9.4,27,17.9,34.3s21.9,5.7,29.1-7.8c6.9-12.9,5.6-30.7,11.5-44.5c9.2-21.8,30.9-23.6,41.3-44.3c10-19.9,4.4-45.3,8.4-68.4
	c2.9-16.6,10.7-31.4,14.7-47.6c5.8-23.5,3-48.3-4.6-67s-19.7-32-32.6-42.2c-5.5-4.3-11.3-8.3-17.8-9c-6.9-0.8-12.4,5.1-19,6.5
	C706.2,8.2,698.1,5.5,690.3,6.7z"/>
<path class="st3" d="M726.9,0.8c0,0,5.5,211.9-33.6,334.4"/>
<path class="st3" d="M674.4,19.5c0,0,55.2,37,50.5,101.2"/>
<path class="st3" d="M638.2,113.7c0,0,87.1,17.3,83.7,53.5"/>
<path class="st3" d="M783.5,50.8c0,0-33.1,19.7-59.2,79.4"/>
<path class="st3" d="M764.4,234.6c0,0-22.7,12-45.5-35.6"/>
<path class="st3" d="M664,255.8c0,0,48.1-1.7,50.9-23.1"/>
<path class="st2" d="M67.3,578.5c0,0,8.4,11-3.9,27.5S41,636.5,45.1,646.8c0,0,18.5-30.7,33.5-31.2S83.8,597,67.3,578.5z"/>
<path class="st4" d="M67.3,578.5c0.7,1,1.3,2.2,1.8,3.4c14.7,17.2,22.5,33.3,8.4,33.7c-13.1,0.4-28.9,23.9-32.7,29.8
	c0.1,0.5,0.3,0.9,0.5,1.3c0,0,18.5-30.7,33.5-31.2S83.8,597,67.3,578.5z"/>
<path class="st5" d="M82.8,592.5c0,3.9-0.4,7-1,7s-1-3.1-1-7s0.5-2,1.1-2S82.8,588.6,82.8,592.5z"/>
<path class="st5" d="M88.2,597.1c-3.4,1.8-6.3,3-6.6,2.5s2.3-2.3,5.7-4.2s2-0.5,2.3,0S91.6,595.2,88.2,597.1z"/>
<path class="st2" d="M23,578.5c0,0-8.4,11,3.9,27.5s22.4,30.5,18.3,40.8c0,0-18.5-30.7-33.5-31.2S6.4,597,23,578.5z"/>
<path class="st4" d="M23,578.5c-0.7,1.1-1.3,2.2-1.7,3.4c-14.7,17.2-22.5,33.3-8.4,33.7c13.1,0.4,28.9,23.9,32.7,29.8
	c-0.1,0.5-0.3,0.9-0.5,1.3c0,0-18.5-30.7-33.5-31.1S6.4,597,23,578.5z"/>
<path class="st5" d="M7.4,592.5c0,3.9,0.4,7,1,7s1-3.1,1-7s-0.5-2-1.1-2S7.4,588.6,7.4,592.5z"/>
<path class="st5" d="M2.1,597.1c3.4,1.8,6.3,3,6.6,2.5s-2.3-2.3-5.6-4.2s-2-0.5-2.3,0S-1.3,595.2,2.1,597.1z"/>
<path class="st6" d="M10.1,645.4c0,0,23.4-0.7,30.5-5.8s36-11,37.8-3s35.2,40.1,8.8,40.3s-61.5-4.1-68.5-8.4S10.1,645.4,10.1,645.4z
	"/>
<path class="st7" d="M87.6,674.2c-26.5,0.2-61.5-4.1-68.5-8.4c-5.4-3.3-7.5-15-8.2-20.4h-0.8c0,0,1.5,18.9,8.5,23.2
	s42.1,8.6,68.5,8.4c7.6-0.1,10.3-2.8,10.1-6.8C96.2,672.6,93.3,674.1,87.6,674.2z"/>
<path class="st2" d="M982.4,573.9c1.8-1.5,3.2-3.5,3.8-5.8c0.5-2.3-0.5-5-2.7-5.9c-2.5-0.9-5.1,0.8-7.1,2.5s-4.3,3.7-6.9,3.3
	c2.7-2.5,4-6.2,3.2-9.8c-0.1-0.7-0.4-1.4-0.9-2c-1.4-1.5-3.8-0.8-5.5,0.3c-5.2,3.7-6.7,10.7-6.7,17.1c-0.5-2.3-0.1-4.7-0.1-7
	s-0.7-5-2.6-6.2c-1.2-0.7-2.6-1-4-1c-2.3-0.1-4.9,0.2-6.5,1.9c-2,2.1-1.5,5.7,0.3,8s4.3,3.8,6.8,5.4c1.9,1.2,3.6,2.7,4.8,4.6
	c0.1,0.3,0.3,0.5,0.4,0.8h14.7C976.6,578.5,979.6,576.4,982.4,573.9z"/>
<ellipse class="st0" cx="552.3" cy="439.1" rx="427.7" ry="41.1"/>
<ellipse class="st0" cx="223.7" cy="676.1" rx="211.4" ry="41.1"/>
<path class="st8" d="M439.7,426.3l-3.4,4.9c0,0,3.6,4.9,4,5.5s10.6-0.3,10.6-0.3l0.9-3.6l-1.5-4.3L439.7,426.3z"/>
<polygon class="st9" points="327.1,423.6 320.4,424.8 324.6,433 329.2,435.5 333.5,438.5 334.7,435.1 331.6,428.8 "/>
<path class="st10" d="M436.7,344.4c0,0,35.6,8.5,42.3,18c0,0,6.1,5.2,0,14.6s-14.6,30.8-14.6,30.8s-6.1,20.7-8.5,22.2
	s-16.4,2.7-17.7-3c0,0,7.9-12.5,7.9-18.3s13.1-33.2,13.1-33.2s-29.8-3.4-39.3-1.2S424.2,341.1,436.7,344.4z"/>
<path class="st4" d="M436.7,344.4c0,0,35.6,8.5,42.3,18c0,0,6.1,5.2,0,14.6s-14.6,30.8-14.6,30.8s-6.1,20.7-8.5,22.2
	s-16.4,2.7-17.7-3c0,0,7.9-12.5,7.9-18.3s13.1-33.2,13.1-33.2s-29.8-3.4-39.3-1.2S424.2,341.1,436.7,344.4z"/>
<path class="st10" d="M429.4,352.6c-0.1,1.8-0.3,3.8-0.5,5.9c-2,15.5-8.3,38.5-8.3,38.5s-6.4,13.7-8.2,22.5s-14.3,11-14.3,11
	s-34.1,4-41.1,2.4s-18,4.6-23.4,3.6s-8.8-13.7-8.8-13.7c9.4,0.1,18.8-1.9,27.4-5.8c14-6.4,34.1-3.4,34.1-3.4c3-0.9,5.6-3,7-5.8
	c2.1-4.6,2.1-32.3,1.5-34.1c-4-12-3.7-19.7-2.5-24.2c0.4-2,1.2-3.8,2.5-5.3L429.4,352.6z"/>
<path class="st4" d="M429.4,352.6c-0.1,1.8-0.3,3.8-0.5,5.9c-3.1,0.2-11.6,0.5-18-3.5c-6-3.7-14.7-4.9-18.7-5.3
	c0.4-2,1.2-3.8,2.5-5.3L429.4,352.6z"/>
<path class="st8" d="M433.6,348.8c-1.4,4-3.6,8.7-3.6,8.7s-11.3,1.5-19.2-3.4s-20.7-5.5-20.7-5.5c2.1-1.3,3.5-5.1,4.3-8.5
	c0.5-1.9,0.9-3.8,1.1-5.8c0,0,37.4,7.6,39,8.8C435.2,343.7,434.5,346.1,433.6,348.8z"/>
<path class="st9" d="M500.3,220.5l-45.4,27.4l-4.5,2.7v-13.4l3.1-1.5l38.3-18.3c0,0,1.8-33.2,6.7-28S500.3,220.5,500.3,220.5z"/>
<path class="st4" d="M454.9,247.9l-4.5,2.7v-13.4l3.1-1.5C453.7,239.8,454.2,243.9,454.9,247.9z"/>
<path class="st11" d="M419.9,252.8l32.6-18.9c0,0,0.6,18.3,4.3,21c0,0-13.4,4-18.6,12.5L419.9,252.8z"/>
<path class="st4" d="M419.9,252.8l32.6-18.9c0,0,0.6,18.3,4.3,21c0,0-13.4,4-18.6,12.5L419.9,252.8z"/>
<path class="st9" d="M500,268.9c0,0-15.5,6.8-25.8,9.2c-2.3,0.7-4.7,1-7.1,0.8c-7-1.2,1.8-10,1.8-10l3.7-0.6l19.8-3.1
	c0,0,2.1-30.4,5.8-28S500,268.9,500,268.9z"/>
<path class="st9" d="M434.5,241.5c0,0-13.1,9.7-8.2,21.9c4.9,12.2-25.3-7.3-25.3-7.3s9.7-14.6,11.9-25.6S434.5,241.5,434.5,241.5z"
	/>
<path class="st4" d="M433.6,348.8c-5.7-2.1-11.6-3.5-17.6-4.1c-8.8-1-16.9-2.7-21.5-4.5c0.5-1.9,0.9-3.8,1.1-5.8
	c0,0,37.4,7.6,39,8.8C435.2,343.7,434.5,346.1,433.6,348.8z"/>
<path class="st4" d="M474.3,278.2c-2.3,0.7-4.7,1-7.1,0.8c-7-1.2,1.8-10,1.8-10l3.7-0.6C474.2,270.8,475.7,274.5,474.3,278.2z"/>
<path class="st11" d="M413.2,247c0,0-11.9-0.3-16.1,4.6c-4.3,4.9-3.4,18-3.4,18s-0.9,26.3,5.8,41c0.2,0.5,0.2,1,0.1,1.5
	c-0.1,0.2-0.1,0.1-0.1,0.1s-4.3,19.2-8.5,22.5s9.1,7.3,25,9.1s22.2,6.4,22.2,6.4s2.7-3,3-9.7s-4.2-55.7-4.2-55.7s16.7,4.3,26.8-0.9
	c0,0,4.6,2.4,8.8-4.3s-3-14-3-14s-6.7,6.7-25.3-2.1S419,246.7,413.2,247z"/>
<path class="st8" d="M322.2,424.2h-3.6v5.2l3.6,8.2c0,0,4.9,0.9,5.2,0.9s4.3-0.9,4.3-0.9l1.2-2.1
	C332.9,435.5,319.5,430.3,322.2,424.2z"/>
<path class="st11" d="M436.7,429.1l-5.5,12.2l23.1,11l18.3,0.6c0,0,1.5-4.3-4.6-6.4l-4.9-0.9c0,0-6.4-11.6-7-17c0,0-6.1,1.2-7,5.8
	C449.2,434.2,440.6,438.5,436.7,429.1z"/>
<path class="st11" d="M319.5,423l-1.9,1.5l-8.2,6.7l18.9,25c0,0,10.6,4.6,15.5,0c0,0,3-3-3.6-5.5c0,0-5.2,0.9-5.2-4.3
	s1.2-10.6,3-11.9c0,0-4.6-1.5-5.8-0.3c-0.9,1-1.7,2.1-2.4,3.4C329.8,437.6,318.9,433.3,319.5,423z"/>
<path class="st4" d="M412.3,231.2c-0.3,1.5-0.7,3.1-1.2,4.6c3.3,7.9,12.3,11.8,20.3,8.7c0.8-0.8,1.7-1.6,2.6-2.3
	C433.9,242.1,414.5,220.2,412.3,231.2z"/>
<path class="st4" d="M410.6,271.8c0,0,9.4,12.5,23.1,12.8"/>
<g class="st12">
	<path d="M467.1,284.1c-0.2-0.1-0.4-0.1-0.6-0.2c-0.3,0.1-0.6,0.3-0.9,0.4C466.1,284.3,466.6,284.2,467.1,284.1z"/>
	<path d="M470.3,266.8c-0.3-0.4-0.7-0.8-1.1-1.2c0,0-2,2-6.9,2.4C465,268.3,467.8,267.9,470.3,266.8z"/>
	<path d="M439.7,284.8l0.1,0.6c4,0.7,8.1,1.1,12.2,1C447.8,286.3,443.7,285.7,439.7,284.8z"/>
	<path d="M418.7,343.8c-15.8-1.8-29.2-5.8-25-9.1s8.5-22.5,8.5-22.5s0,0.1,0.1-0.1c0.2-0.5,0.1-1-0.1-1.5c-6.7-14.8-5.8-41-5.8-41
		s-0.9-13.1,3.4-18c3.2-3.6,10.6-4.4,14.1-4.5c-0.3,0-0.7,0-1,0c0,0-11.9-0.3-16.1,4.6c-4.3,4.9-3.4,18-3.4,18s-0.9,26.3,5.8,41
		c0.2,0.5,0.2,1,0.1,1.5c-0.1,0.2-0.1,0.1-0.1,0.1s-4.2,19.1-8.5,22.5s9.1,7.3,25,9.1s22.2,6.4,22.2,6.4c0.3-0.4,0.6-0.8,0.8-1.2
		C435.7,347.5,429.3,345,418.7,343.8z"/>
</g>
<circle class="st9" cx="426.3" cy="229.1" r="15.8"/>
<path class="st4" d="M448.9,222c-1.3,3.3-5.2,4.5-8.6,5.4c-4.9,1.2-10.2,2.4-14.9,0.5c-0.6-0.3-1.3-0.5-2-0.4
	c-0.6,0.2-1,0.6-1.3,1.1c-5.2,7.4-4.3,17.2-5.7,26.1c-0.4,2.8-1.1,5.6-3,7.7c-3.6,4-10.5,3.9-13.9,8.1c-2.2,2.8-2.2,6.7-2.2,10.3
	c0,3.8,0,7.6-0.1,11.4c-0.1,2.5-0.2,5.1-1.3,7.3c-1.9,3.8-6.2,5.5-10.1,7c-2.5,0.9-5,1.9-7.6,1.6s-5.3-2-5.6-4.6
	c-0.5-3.6,3.2-6.1,5.8-8.7c4.1-4.1,5.7-10.1,5.9-15.9c0.1-2.3-0.2-4.7-1-6.9c-0.9-2.3-2.6-4.2-3.6-6.4c-3.1-6.9,0.7-14.9,5.3-20.9
	s10.1-11.9,11.1-19.4c0.1-1.6,0.3-3.2,0.7-4.8c0.7-2.2,2.4-8.2,4.2-9.6c2.9-2.2,6.4-3.6,10-4.2c2.8-0.4,5.7-0.3,8.5-0.8
	c3.3-0.6,6.3-2.2,9.5-2.8c7-1.3,14.7,6.9,17.8,13.4C447.4,218.6,449.7,220,448.9,222z"/>
<path class="st13" d="M448.9,221.4c-1.3,3.3-5.2,4.5-8.6,5.4c-4.9,1.2-10.2,2.4-14.9,0.5c-0.6-0.3-1.3-0.5-2-0.4
	c-0.6,0.2-1,0.6-1.3,1.2c-5.2,7.4-4.3,17.2-5.7,26.1c-0.4,2.8-1.1,5.6-3,7.7c-3.6,4-10.5,3.9-13.9,8.1c-2.2,2.8-2.2,6.7-2.2,10.3
	c0,3.8,0,7.6-0.1,11.4c-0.1,2.5-0.2,5.1-1.3,7.3c-1.9,3.8-6.2,5.5-10.1,7c-2.5,0.9-5,1.9-7.6,1.6s-5.3-2-5.6-4.6
	c-0.5-3.6,3.2-6.1,5.8-8.7c4.1-4.1,5.7-10.1,5.9-15.9c0.1-2.3-0.2-4.7-1-6.9c-0.9-2.3-2.6-4.2-3.6-6.4c-3.1-6.9,0.7-14.9,5.3-20.9
	s10.1-11.9,11.1-19.4c0.1-1.6,0.3-3.2,0.7-4.8c0.7-2.2,2.4-8.2,4.2-9.6c2.9-2.2,6.4-3.6,10-4.2c2.8-0.4,5.7-0.3,8.5-0.8
	c3.3-0.6,6.3-2.2,9.5-2.8c7-1.3,14.7,6.9,17.8,13.4C447.4,217.9,449.7,219.4,448.9,221.4z"/>
<path class="st14" d="M500.6,190.3h263.2v263.1H500.6V190.3z"/>
<path d="M569.2,410.8l20.1-12.2c3.9,6.9,7.4,12.7,15.9,12.7c8.1,0,13.3-3.2,13.3-15.5v-84.1h24.7v84.4c0,25.6-15,37.3-36.9,37.3
	C586.5,433.4,575.1,423.2,569.2,410.8 M656.7,408.2l20.1-11.7c5.3,8.7,12.2,15,24.4,15c10.3,0,16.8-5.1,16.8-12.2
	c0-8.5-6.7-11.5-18-16.4l-6.2-2.6c-17.8-7.6-29.7-17.1-29.7-37.3c0-18.5,14.1-32.7,36.2-32.7c15.7,0,27,5.5,35.2,19.8l-19.3,12.4
	c-4.2-7.6-8.8-10.6-15.9-10.6c-7.2,0-11.8,4.6-11.8,10.6c0,7.4,4.6,10.4,15.2,15l6.2,2.6c21,9,32.9,18.2,32.9,38.9
	c0,22.3-17.5,34.5-41,34.5C678.7,433.4,663.9,422.4,656.7,408.2"/>
<linearGradient id="SVGID_1_" gradientUnits="userSpaceOnUse" x1="889.1724" y1="764.8499" x2="889.1724" y2="426.2925" gradientTransform="matrix(1 0 0 1 -84.99 -145.16)">
	<stop  offset="0" style="stop-color:#808080;stop-opacity:0.25"/>
	<stop  offset="0.54" style="stop-color:#808080;stop-opacity:0.12"/>
	<stop  offset="1" style="stop-color:#808080;stop-opacity:0.1"/>
</linearGradient>
<path class="st15" d="M878.6,603.1c0,0-10.3,0.7-16.6-10.3c-1.2-2.2-2.7-4.3-4.4-6.2c-2-3.4-3.1-7.2-3.1-11.2
	c0.3-8.2-8.2-52.8-8.2-52.8s1.1-17-7.4-27.6c-5.6-7-13.7-27-18.5-39.9c0.3,0.3,0.7,0.5,1.1,0.6l-0.2-1.1h0.2l-2.5-13.8
	c-3.6-4.2-6.7-8.9-9.1-13.9l0.6-0.1l7.5-1.6c0,0,12.2-17.4,13-25.9h2.4c11.3-0.1,22.6,0.5,33.9,1.8l0,0c0,0-0.1-0.3-0.2-0.6l0,0
	c-0.5-1.7-0.8-3.5-1.1-5.2h0.7l7-0.5c0,0,24-26.9,15.2-31.9s-18.1,22.3-18.1,22.3l-3,0.5l-0.8,0.1c0.1-0.1,0.2-0.2,0.3-0.3
	s-39.3-1.8-45.4-11.3c0,0-17.4-13.8-18.1-23c-0.3-3.9-2.7-7.3-6.2-8.8c-2.1-1-4.5-1.5-6.9-1.3l-8.1,0.6l0.6,1H783
	c-0.5-1.2-0.9-2.4-1.3-3.6h0.2c-0.1-0.3-0.1-0.5-0.2-0.8c10.3-2.4,16.6-12.7,14.2-23c0-0.2-0.1-0.4-0.1-0.5c0.8,0.1,1.6,0.1,2.4-0.1
	c3-0.6,5.1-3.6,5.2-6.7v-0.7c-0.1-3.1-1.5-6-4-7.9c-1.6-1.4-3.6-2.3-5-3.8c-1.8-1.8-2.7-4.2-4.1-6.3c-2.3-3.5-5.7-6.1-9.6-7.5
	c-2.9-1-6.5-1.1-8.8,1c-1.2,1.1-1.8,2.7-3.1,3.6c-1.9,1.3-4.4,0.9-6.7,1.2c-4.2,0.6-7.8,3.4-9.6,7.2c-1.1,2.4-1.7,5-1.6,7.6
	c0,1.8,0.2,3.6,0.6,5.4c0.4,1.7,1.1,3.4,1.6,5.2c1,3.6,1.2,7.4,2.4,10.9c0.8,2.6,2.3,5,4.4,6.7l-0.3,1.5c-0.2,0-5.7,1.2-9.5,9.6
	c-3,6.6-13.2,13.4-17.7,16.1c-1.7,1-2.9,2.7-3.3,4.6c-0.4,1.9-0.6,3.9-0.6,5.9c-0.1,4.3,0.8,10.2,4.2,17.7
	c7.8,17,13.5,24.4,13.5,24.4s0.4,5.2,0.5,10.7c0,4.1-0.3,8.2-1.2,10.2c-0.7,1.7-1,6.1-0.9,11.1c0,9.6,0.9,22.2,0.9,22.2
	s2.7,0.5,6.9,1.1l2.6,45.9c0.3,5.6-1.5,11-5,15.3c-1.8,2.3-3.9,4.3-6.3,6c-7.4,5.3-23.4,61.3-23.4,61.3c0.7,0,1.4,0.1,2.1,0.2
	l-4.9,13.7c0,0,19.6,15,31.5,10.9c1.3-0.4,2.6-0.6,4-0.6c2.3,0,7.4-1.9,4.6-4.3c-5.4-5-10.5-10.3-15.3-15.9c0.4,0.2,0.8,0.4,1.1,0.7
	v-0.1l0.2,0.1c0-0.5,0.1-1,0.1-1.5l-0.2-0.1c0.4-3.7,1.5-13,3.8-14.1c2.8-1.4,23.8-42.9,23.8-42.9l20.9-53.8
	c0,0,16.7,28.7,30.8,33.6v12c0,0,7.8,35.4,10.6,39.3s0,19.5,0,19.5c0.6,0.6,1.2,1.2,1.9,1.7l-2.3,12.8c0,0,16.3-0.7,43.9,7.8
	C876.8,613.4,887.5,608.8,878.6,603.1z M813.4,417.8l-3.5,0.9l-0.7,0.2c-0.1-0.4-0.1-0.7-0.1-0.7c-0.8,0.4-1.6,0.6-2.5,0.6
	c-1.2-3.9-1.9-7.9-2.1-12c-1.2-4.9-1.9-9.8-2.1-14.8c0-2.6,0.4-4.8,1.4-6.1l1.2,0.1l0.8,0.8l0.1,0l0.4,0.4l0,0l0.4,0.4l0.1,0.1
	l0.5,0.4l0.1,0.1l0.5,0.4l0,0l0.5,0.4l0.1,0.1l0.6,0.5l0,0l0.5,0.4l0.1,0.1l0.6,0.5l0.1,0.1l0.6,0.4l0.1,0.1l0.7,0.5l0.2,0.1
	l0.7,0.5h0.1l0.7,0.5l0.2,0.1l0.7,0.5l0.2,0.1l0.7,0.4l0.1,0.1l0.8,0.5l0.2,0.1l0.8,0.5h0.1l0.8,0.4l0.2,0.1l0.8,0.4l0.2,0.1
	l0.8,0.4l0.2,0.1l0.9,0.4l0.2,0.1l0.9,0.4l0,0C816.3,403.3,813.4,417.8,813.4,417.8z"/>
<path class="st16" d="M726.1,583l-6.6,18.3c0,0,18,13.8,29.7,10.9c1.8-0.4,3.6-0.7,5.4-0.9c2.4-0.2,6.6-2,4-4.2
	c-8.3-7.3-19.4-20.8-19.4-20.8L726.1,583z"/>
<path class="st16" d="M835.3,581.3l-3.1,17.6c0,0,15.9-0.7,42.9,7.6c0,0,10.4-4.5,1.7-10c0,0-10,0.7-16.3-10s-10-9.3-10-9.3
	L835.3,581.3z"/>
<path class="st17" d="M753,453.3l3,53.7c0.3,5.7-1.6,11.3-5.3,15.7c-1.7,2-3.6,3.8-5.7,5.3c-7.3,5.2-22.8,59.8-22.8,59.8
	s17.6,1,22.5,4.5c0,0,1-13.8,3.8-15.2s23.2-41.8,23.2-41.8l20.4-52.6c0,0,16.3,28,30.1,32.9v11.8c0,0,7.6,34.6,10.4,38.4s0,19,0,19
	s8,10,26.3-0.7c0,0-5.9-6.6-5.5-14.5s-8-51.5-8-51.5s1-16.6-7.3-27s-22-50.1-22-50.1l-9.5-20.5L753,453.3z"/>
<g class="st12">
	<path d="M725.5,587.8c0,0,15.6-54.6,22.8-59.8c2.2-1.6,4.2-3.5,6-5.7c3.5-4.3,5.3-9.8,5-15.3l-3-53.7l51-31.4l-0.7-1.5l-53.5,32.9
		l3,53.7c0.3,5.6-1.5,11-5,15.3c-1.8,2.1-3.8,4-6,5.7c-7.3,5.2-22.8,59.8-22.8,59.8s17.6,1,22.5,4.5c0-0.5,0.1-1,0.1-1.4
		C738.2,588.6,725.5,587.8,725.5,587.8z"/>
	<path d="M835.9,584.7c0,0,2.8-15.2,0-19s-10.4-38.4-10.4-38.4v-11.8c-13.8-4.8-30.1-32.9-30.1-32.9l-1.2,3.1
		c4.7,7.4,17.2,25.9,28.2,29.7v11.8c0,0,7.6,34.6,10.4,38.4s0,19,0,19s3.9,4.9,12.4,4.2C838.8,588.4,835.9,584.7,835.9,584.7z"/>
</g>
<path class="st18" d="M872,396.1l-6.8,0.5l-3.6,0.2v-8.6l4.7-0.9l2.9-0.5c0,0,9-26.6,17.6-21.8S872,396.1,872,396.1z"/>
<path class="st18" d="M763.1,321.8c0,0-4.5,17.3-5.9,28s32.2,2.1,32.2,2.1s-12.8-15.6-5.5-23.9L763.1,321.8z"/>
<path class="st8" d="M799.4,393.8l0.7,6.6l-10.7-0.7l-10.7-9.3l-10.7-30.1l-6.9-10.7l-5.2-6.6l2.1-8c0,0,1,0.8,2.5,2
	c5.3,4,17.6,12.4,26.7,10.1c0.4-0.1,0.8-0.2,1.2-0.4l13.5,23.2L799.4,393.8z"/>
<path class="st4" d="M760.7,332.9c0,0-5.5,1-9.3,9.3c-2.9,6.4-12.8,13-17.2,15.7c-1.7,1-2.9,2.7-3.3,4.7c-0.9,3.9-1.2,11.3,3.6,21.9
	c7.6,16.6,13.1,23.9,13.1,23.9s1.4,16.6-0.7,21.4s0,31.5,0,31.5s36.3,6.9,48.4,0s10.4-33.5,10.4-33.5s11.4,24.2,15.6,24.9l-2.4-13.5
	c0,0-13.5-14.5-14.2-33.2c0,0-4.2-17-0.7-21.4c0,0,58.5,4.8,61.9,0.7c0,0-38.4-1.7-44.3-11.1c0,0-17-13.5-17.6-22.5
	c-0.2-3.4-2.2-6.5-5.2-8.1c-2.4-1.3-5.1-1.9-7.8-1.7l-7.8,0.5c0,0,13.5,23.9,12.8,27s0.7,28.4,0.7,28.4s-15.6-33.5-22.5-37.3
	s-14.9-19.4-14.9-19.4L760.7,332.9"/>
<path class="st4" d="M799.4,393.8l0.7,6.6l-10.7-0.7l-10.7-9.3l-10.7-30.1l-6.9-10.7l-5.2-6.6l2.1-8c0,0,1,0.8,2.5,2l-0.5,2.7
	c0,0,8,15.6,14.9,19.4s22.5,37.4,22.5,37.4s-1.4-25.3-0.7-28.4c0.5-2.1-5.6-13.8-9.5-21.1c0.4-0.1,0.8-0.2,1.2-0.4l13.5,23.2
	L799.4,393.8z"/>
<path class="st4" d="M865.2,393.6l-3.6,0.2v-8.6l4.7-0.9C864.7,386.5,864.8,390.3,865.2,393.6z"/>
<path class="st17" d="M760.7,331.9c0,0-5.5,1-9.3,9.3c-2.9,6.4-12.8,13-17.2,15.7c-1.7,1-2.9,2.7-3.3,4.7
	c-0.9,3.9-1.2,11.3,3.6,21.9c7.6,16.6,13.1,23.9,13.1,23.9s1.4,16.6-0.7,21.4s0,31.5,0,31.5s36.3,6.9,48.4,0s10.4-33.5,10.4-33.5
	s11.4,24.2,15.6,24.9l-2.4-13.5c0,0-13.5-14.5-14.2-33.2c0,0-4.2-17-0.7-21.4c0,0,13.5,14.5,28.7,14.2c11.1-0.1,22.2,0.5,33.2,1.7
	c0,0-3.5-11.1,0-15.2c0,0-38.4-1.7-44.3-11.1c0,0-17-13.5-17.6-22.5c-0.2-3.4-2.2-6.5-5.2-8.1c-2.4-1.3-5.1-1.9-7.8-1.7l-7.8,0.5
	c0,0,13.5,23.9,12.8,27s0.7,28.4,0.7,28.4S781,363,774.1,359.2s-14.9-19.4-14.9-19.4L760.7,331.9"/>
<path class="st4" d="M753,368.2c0,0,8.3,28,13.1,31.5s34.2,21.1,42.9,17c0,0,2.1,10.4-1,12.8c0,0-32.3-1.3-32.5-1.4
	c0,0-21.1-2.8-24.6-13.1s-7.6-28-7.6-28L753,368.2z"/>
<ellipse class="st19" cx="797.3" cy="398.1" rx="1.2" ry="1.7"/>
<ellipse class="st19" cx="800.8" cy="410.3" rx="1.2" ry="1.7"/>
<g class="st12">
	<path d="M749.2,459.8c0,0-2.1-26.6,0-31.5s0.7-21.4,0.7-21.4s-5.5-7.3-13.1-23.9c-4.8-10.6-4.5-17.9-3.6-21.9
		c0.4-1.9,1.7-3.6,3.3-4.7c4.4-2.7,14.3-9.3,17.2-15.7c2.2-4.7,4.8-7,6.8-8.2l0.1-0.8c0,0-5.5,1-9.3,9.3c-2.9,6.4-12.8,13-17.2,15.7
		c-1.7,1-2.9,2.7-3.3,4.7c-0.9,3.9-1.2,11.3,3.6,21.9c7.6,16.6,13.1,23.9,13.1,23.9s1.4,16.6-0.7,21.4s0,31.5,0,31.5
		s25.9,4.9,41.3,2.3C772.6,464.3,749.2,459.8,749.2,459.8z"/>
	<path d="M795.9,368.2c-0.5,2.1,0,14.7,0.4,22.3c1.7,3.4,2.7,5.7,2.7,5.7s-1.4-25.3-0.7-28.4s-11.5-24.7-12.7-26.8l-2.5,0.2
		C783.1,341.3,796.6,365.1,795.9,368.2z"/>
	<path d="M835,397.3c-15.2,0.4-28.7-14.2-28.7-14.2c-0.4,0.6-0.7,1.2-0.9,1.9c4,3.7,15,12.9,27.2,12.6c11.1-0.1,22.2,0.5,33.2,1.7
		c0,0-0.1-0.2-0.2-0.6C855.4,397.7,845.2,397.2,835,397.3z"/>
	<path d="M808,426.3c0,0,0.1,2.2,0.1,5.4c3.6,7.1,10.2,19.4,13.1,19.8l-0.5-2.8C815.6,442.4,808,426.3,808,426.3z"/>
</g>
<path class="st18" d="M817.7,422.8l-7.3,1.5l-5.8,1.2l3.1-8.6l2.2-0.5l3.4-0.8c0,0,4.8-24.2,14.5-22.5S817.7,422.8,817.7,422.8z"/>
<path class="st4" d="M810.4,424.4l-5.8,1.2l3.1-8.6l2.2-0.5C810.3,419.1,810.5,421.8,810.4,424.4z"/>
<path class="st17" d="M753,367.5c0,0,8.3,28,13.1,31.5s34.2,21.1,42.9,17c0,0,2.1,10.4-1,12.8c0,0-32.3-1.3-32.5-1.4
	c0,0-21.1-2.8-24.6-13.1s-7.6-28-7.6-28L753,367.5z"/>
<path class="st4" d="M763.4,322.6c0,0-0.7,2.7-1.6,6.6c3.9,7.5,12.4,11.4,20.6,9.5c-0.8-3.5-0.7-7.1,1.8-9.9L763.4,322.6z"/>
<circle class="st18" cx="777.9" cy="319.8" r="18.7"/>
<path class="st4" d="M794.2,314.7c1.4,0.4,2.8,0.5,4.2,0.3c3-0.8,5-3.5,5.1-6.5c-0.1-3-1.5-5.9-3.8-7.7c-1.6-1.3-3.5-2.3-4.9-3.7
	c-1.7-1.8-2.7-4.1-4-6.1c-2.2-3.4-5.5-6-9.4-7.3c-2.9-1-6.4-1.1-8.6,1c-1.1,1.1-1.8,2.6-3,3.5c-1.8,1.3-4.3,0.9-6.5,1.2
	c-4.1,0.6-7.6,3.2-9.4,7c-1.7,3.8-2,8-0.9,12c0.4,1.7,1.1,3.3,1.5,5c1,3.5,1.2,7.2,2.3,10.7s3.4,6.9,6.9,7.9
	c-0.3-3.9,0.5-7.8,2.2-11.3c0.3-0.8,0.9-1.4,1.6-1.8c0.6-0.2,1.3-0.2,1.9,0c4.4,0.6,8.9-0.3,12.7-2.6c1.3-0.8,3.4-3.6,4.8-3.8
	C788.5,312.1,792.3,314.3,794.2,314.7z"/>
<path class="st20" d="M794.2,314c1.4,0.4,2.8,0.5,4.2,0.3c3-0.8,5-3.5,5.1-6.5c-0.1-3-1.5-5.9-3.8-7.7c-1.6-1.3-3.5-2.3-4.9-3.7
	c-1.7-1.8-2.7-4.1-4-6.1c-2.2-3.4-5.5-6-9.4-7.3c-2.9-1-6.4-1.1-8.6,1c-1.1,1.1-1.8,2.6-3,3.5c-1.8,1.3-4.3,0.9-6.5,1.2
	c-4.1,0.6-7.6,3.2-9.4,7c-1.7,3.8-2,8-0.9,12c0.4,1.7,1.1,3.3,1.5,5c1,3.5,1.2,7.2,2.3,10.7s3.4,6.9,6.9,7.9
	c-0.3-3.9,0.5-7.8,2.3-11.3c0.3-0.8,0.9-1.4,1.6-1.8c0.6-0.2,1.3-0.2,1.9,0c4.4,0.6,8.9-0.3,12.7-2.6c1.3-0.8,3.4-3.6,4.8-3.8
	C788.5,311.4,792.3,313.6,794.2,314z"/>
<linearGradient id="SVGID_2_" gradientUnits="userSpaceOnUse" x1="376.5113" y1="837.06" x2="376.5113" y2="441.85" gradientTransform="matrix(1 0 0 1 -84.99 -145.16)">
	<stop  offset="0" style="stop-color:#808080;stop-opacity:0.25"/>
	<stop  offset="0.54" style="stop-color:#808080;stop-opacity:0.12"/>
	<stop  offset="1" style="stop-color:#808080;stop-opacity:0.1"/>
</linearGradient>
<path class="st21" d="M366.7,378.4c-2-5.7-4.8-13-7-14.7c-0.1-0.1-0.3-0.2-0.4-0.3H359v-7l-5.3,0.8c-0.8-2.5-1.5-5.2-1.9-7.8
	c1,1.1,2.6,1.4,4,0.8c-0.1-0.1-0.2-0.3-0.2-0.4l0.2-0.1c-0.8-1.5-1.3-3.1-1.3-4.8c0-1.5,0.3-3.1,0.7-4.5c0.9-3.3,2.5-6.3,3.4-9.5
	c0.6-2.1,0.8-4.3,0.8-6.5c0-3.7-0.8-7.3-2.5-10.7c-0.4-1-1-1.8-1.9-2.4c-0.7-0.4-1.5-0.8-2.3-1.1c-1.3-0.9-2.4-2-3.3-3.3
	c-3.7-4.5-8.7-7.9-14.4-9.6c-1.5-0.5-3.1-0.7-4.6-0.4c-3.5,1-4.8,5.3-7.7,7.6c-2.5,2-6,2.2-9.2,2.9c-3.2,0.6-6.2,2.1-8.5,4.5
	c-1.5,1.7-2.3,3.9-2.3,6.2c-0.2,2.2,0.8,4.2,2.5,5.5c2,1.3,4.4,1.6,6.7,1c-3.5,12.1,3.5,24.7,15.5,28.2c0.6,0.2,1.1,0.3,1.7,0.4
	l0.6,1.1l0,0c1.9,3.5,3.3,7.3,4.3,11.2c-4.8,2.8-10.1,5.3-13.3,5.6c-0.1,1.2-0.4,2.5-0.7,3.7c-0.7,3-2.2,5.9-4.2,8.3
	c-4.3,4.9-23.9,41.8-23.9,41.8s-0.6,1.5-1.6,4c-12.1,1.5-31.9,3.6-37.4,2.5l-21.7-20.6c0,0-7,5.4-6.4,11.9l-3.9-3.7
	c0,0-20.6,15.7,11.9,26l49.5,5.8c-4.7,14.2-9.1,30.8-7.8,39.8h0.4c0.9,0,1.9-0.1,2.8-0.2l-0.1,1.6l-4.8,85.4c0,0-1.1,15.7,13.6,22.8
	c0,0,17.9,52.6,10.9,58.6c0,0,0.8,0.4,2.3,1.1l-14.7,13c0,0-10.9,2.7-16.8,2.2c-2.2-0.3-4.2,1.1-4.8,3.2c0,0.1,0,0.2-0.1,0.3v1
	c0,0.1,0,0.2,0.1,0.3v0.2c0,0.1,0.1,0.3,0.1,0.4v0.1c0,0.1,0.1,0.2,0.2,0.4v0.1c0.1,0.1,0.1,0.2,0.2,0.4l0.1,0.1
	c0.1,0.1,0.2,0.3,0.3,0.4l0.1,0.1c0.1,0.1,0.2,0.3,0.4,0.4h0.1l0.4,0.3l0.1,0.1l0.5,0.3l0.1,0.1l0.6,0.3h0.1l0.6,0.3h0.1l0.7,0.3
	l0.1,0.1l0.8,0.3h0.1l0.9,0.2h0.1l1,0.2h0.2l1,0.2h0.2l1.1,0.1c2.2,0.2,5.2,0.2,8.7,0.2l0,0v0.6c0,0.1,0,0.2,0.1,0.3v0.1
	c0,0.1,0.1,0.3,0.1,0.4v0.1c0,0.1,0.1,0.2,0.2,0.4v0.1c0.1,0.1,0.1,0.2,0.2,0.4l0.1,0.1c0.1,0.1,0.2,0.3,0.3,0.4l0.1,0.1
	c0.1,0.1,0.2,0.3,0.4,0.4h0l0.4,0.3l0.1,0.1l0.5,0.3l0.1,0.1l0.6,0.3h0.1l0.6,0.3h0.1l0.7,0.3l0.1,0.1l0.8,0.3h0.1l0.9,0.2h0.1
	l1,0.2h0.2l1,0.2h0.2l1.1,0.1c14.1,1.1,59.1-2.2,59.1-2.2v-0.1l0,0v-0.2l0,0c0.5-2.1,2.6-14.3-5.1-23.3c0.2-0.2,0.5-0.5,0.7-0.8
	c0.3-0.4-6-10.3-2.7-13.6s-15.9-59.2-15.9-59.2s-10.3-16.3-4.3-34.7s-0.5-38.5-0.5-38.5s14.3-4.2,14.5-21.7v-1.7
	c0.3,0,0.6,0.1,0.9,0.1h0.6c0,0-2.7-9.8,0.5-16.8s10.3-0.5,16.8-29.3c4.7-20.8,8.9-44.7,10.8-56.4
	C368.7,387.9,368.3,383,366.7,378.4z M242.9,439.4l-4.9-4.7c1.6,0.7,3.5,1.3,5.5,2l18.6,2.2C253.8,439.6,246,440,242.9,439.4
	L242.9,439.4z"/>
<path class="st9" d="M290.1,436.6c0,0-38.4,5.3-46.4,3.7l-21.3-20.3c0,0-20.3,15.5,11.7,25.6l59.7,6.9L290.1,436.6z"/>
<path class="st22" d="M290.1,436.6c0,0-38.4,5.3-46.4,3.7l-21.3-20.3c0,0-20.3,15.5,11.7,25.6l59.7,6.9L290.1,436.6z"/>
<path class="st23" d="M215,450.1l-82.9-23l-18.5-207.3h203.1L298.2,427L215,450.1z"/>
<path class="st24" d="M282.3,413.8l15.8-177.1h-83v195.7L282.3,413.8z"/>
<path class="st25" d="M156,313.6l2.3,25.4h56.9v-25.4H156z M151.4,262.1l2.3,25.4h61.4v-25.4H151.4L151.4,262.1z M215.2,379.6h-0.1
	l-28.3-7.7l-1.8-20.3h-25.6l3.6,39.9l52.1,14.5h0.1L215.2,379.6z"/>
<path d="M161.4,163.4h30.8v12.9h-17.9v12.9h17.9V202h-30.8V163.4z M198.4,163.4h30.8v11.2h-18v2.2h17.9v25.8h-30.8v-11.8h17.9v-2.2
	h-17.9L198.4,163.4L198.4,163.4z M235.4,163.4h30.8v11.2h-18v2.2h17.9v25.8h-30.8v-11.8h17.9v-2.2h-17.9v-25.2L235.4,163.4z"/>
<path class="st26" d="M274.1,313.6l4.6-51.5H215v25.4h35.8l-2.3,26H215v25.4h31.3l-3,33l-28.3,7.7v26.5l52.1-14.5l0.4-4.3l6-66.9
	L274.1,313.6L274.1,313.6z"/>
<path class="st27" d="M304,653l-18.7,16.5c0,0-10.7,2.7-16.5,2.1s-8.5,9.1,5.3,10.1s58.1-2.1,58.1-2.1s4.3-17.1-8.5-26.7H304z"/>
<path class="st22" d="M304,653l-18.7,16.5c0,0-10.7,2.7-16.5,2.1s-8.5,9.1,5.3,10.1s58.1-2.1,58.1-2.1s4.3-17.1-8.5-26.7H304z"/>
<path class="st28" d="M332.9,672.3c0,1.9-0.3,3.9-0.7,5.8c0,0-44.2,3.2-58.1,2.1c-6.7-0.5-9.5-3-10-5.4c-0.6,2.7,1.8,6.3,10,7
	c13.9,1.1,58.1-2.1,58.1-2.1C332.8,677.3,333,674.8,332.9,672.3z"/>
<path class="st9" d="M325.9,350.8c0,0,11.7,16.5,7.5,27.7s22.4-11.7,22.4-11.7s-8.5-15-4.3-31L325.9,350.8z"/>
<path class="st27" d="M322.6,659.4L304,675.9c0,0-10.7,2.7-16.5,2.1s-8.5,9.1,5.3,10.1s58.1-2.1,58.1-2.1s4.3-17.1-8.5-26.7
	L322.6,659.4z"/>
<path class="st10" d="M328,655.7c-2.8,3.4-6.7,4.8-10.8,5c-9.3,0.4-19.6-5-19.6-5c6.9-5.9-10.7-57.6-10.7-57.6
	c-14.4-6.9-13.3-22.4-13.3-22.4l4.7-83.9l1.2-21.1l14.9-9.1l11.8,9l11.2,8.6c0.7,2.7,1.2,5.5,1.4,8.3c1.3,19.6-14.2,24.2-14.2,24.2
	s6.4,19.7,0.5,37.8s4.3,34.1,4.3,34.1s19.2,55.4,16,58.6S328,655.7,328,655.7z"/>
<path class="st22" d="M328,655.7c-2.8,3.4-6.7,4.8-10.8,5c-9.3,0.4-19.6-5-19.6-5c6.9-5.9-10.7-57.6-10.7-57.6
	c-14.4-6.9-13.3-22.4-13.3-22.4l4.7-83.9l1.2-21.1l14.9-9.1l11.8,9l11.2,8.6c0.7,2.7,1.2,5.5,1.4,8.3c1.3,19.6-14.2,24.2-14.2,24.2
	s6.4,19.7,0.5,37.8s4.3,34.1,4.3,34.1s19.2,55.4,16,58.6S328,655.7,328,655.7z"/>
<path class="st10" d="M346.6,662.1c-9.1,11.2-30.4,0-30.4,0c0.4-0.4,0.8-0.9,0.9-1.5c3.9-10.6-13.2-61.4-13.2-61.4
	c-14.4-6.9-16-23.5-16-23.5l-3.8-85.4l-0.5-11.1l22.4-8.6l6.9-2.6l22.9,17.6c1,3.6,1.5,7.4,1.4,11.2c-0.3,17.2-14.3,21.4-14.3,21.4
	s6.4,19.7,0.5,37.8s4.3,34.1,4.3,34.1s19.2,55.4,16,58.6S346.6,662.1,346.6,662.1z"/>
<path class="st4" d="M337.5,496.8c-4.6-0.7-13.9-6.2-18.7-9.2c-1.8-1.1-3-1.9-3-1.9s-4.8-13.3-17.6-3.2c-4.2,3.4-8.9,6-13.9,7.9
	c-1.9,0.7-3.9,1.2-5.9,1.5l1.2-21.1l14.9-9.1l11.8,9l6.9-2.6l22.9,17.6C337,489.3,337.5,493.1,337.5,496.8z"/>
<path class="st29" d="M366.3,394.6c-1.9,11.4-6,35-10.6,55.4c-6.4,28.3-13.3,21.9-16.5,28.8s-0.5,16.5-0.5,16.5
	c-5.3,0.5-22.9-11.2-22.9-11.2s-4.8-13.3-17.6-3.2s-22.9,9.6-22.9,9.6c-2.7-17.6,17.1-64.5,17.1-64.5s19.2-36.3,23.5-41
	c2-2.3,3.4-5.1,4.1-8.1c0.3-1.2,0.6-2.4,0.7-3.6c6.9-0.5,24-12.3,24-12.3l13.3-2.1v6.9c0.2,0.1,0.3,0.2,0.4,0.3
	c2.2,1.7,5,8.8,6.9,14.4C366.7,385,367.1,389.8,366.3,394.6z"/>
<path class="st9" d="M304,444.6l-6.9-0.8l-52.8-6.1c-32-10.1-11.7-25.6-11.7-25.6l21.3,20.3c6.1,1.2,30.3-1.6,41.1-3l5.3-0.7
	L304,444.6z"/>
<path class="st4" d="M355.7,372.6c0,0-13.9-11.2-34.7,25.1s-25.6,30.4-25.6,30.4s4.3,16,2.1,19.2c0,0,14.4-1.1,19.7,0
	s38.4-40.5,38.4-40.5S372.8,383.3,355.7,372.6z"/>
<path class="st4" d="M355.2,370.5c0,0-13.9-11.2-34.6,25s-25.6,30.3-25.6,30.3s16.5,18.1,21.9,19.2s38.4-40.5,38.4-40.5
	S372.2,381.2,355.2,370.5z"/>
<path class="st4" d="M297.1,443.8c0.2-4-1.3-10.9-2.1-14.5l5.3-0.7l3.7,16L297.1,443.8z"/>
<path class="st29" d="M355.7,371.6c0,0-13.9-11.2-34.7,25.1S295.4,427,295.4,427s4.3,16,2.1,19.2c0,0,14.4-1.1,19.7,0
	s38.4-40.5,38.4-40.5S372.8,382.2,355.7,371.6z"/>
<path class="st4" d="M352,336.9l-25.6,14.9c1.1,1.6,2.1,3.2,3,4.9c1.5,0.3,3,0.5,4.5,0.5c6.8,0,10-7.2,14.1-12
	C347.7,341.3,350.8,341.2,352,336.9z"/>
<circle class="st9" cx="333.3" cy="333.7" r="22.4"/>
<path class="st4" d="M305,315.6c2.3-2.3,5.2-3.9,8.4-4.4c3.1-0.7,6.5-0.9,9-2.9c2.8-2.3,4.1-6.5,7.5-7.5c1.5-0.3,3.1-0.2,4.5,0.4
	c5.5,1.7,10.5,4.9,14.1,9.4c0.9,1.3,2,2.4,3.3,3.3c0.8,0.3,1.5,0.7,2.2,1.1c0.8,0.6,1.4,1.5,1.8,2.4c2.5,5,3.1,10.8,1.6,16.3
	c-0.9,3.2-2.4,6.2-3.4,9.4s-1.2,6.8,0.5,9.7c-1.6,0.8-3.7-0.2-4.7-1.8s-1.3-3.4-1.9-5.2c-1.1-3.5-3.1-6.6-5.8-9
	c-1.7-1.5-4.7-2.5-5.9-0.6c-0.5,0.7-0.4,1.7-0.8,2.5c-0.8,1.5-3,1.8-4.4,1c-1.4-1-2.4-2.4-2.8-4.1c-2.2-7.4-5.9-12.1-13.9-8.9
	c-3,1.2-6.5,2-9.3,0C301.6,324,302.3,318.7,305,315.6z"/>
<path class="st30" d="M305,315.1c2.3-2.3,5.2-3.9,8.4-4.4c3.1-0.7,6.5-0.9,9-2.9c2.8-2.3,4.1-6.5,7.5-7.5c1.5-0.3,3.1-0.2,4.5,0.4
	c5.5,1.7,10.5,4.9,14.1,9.4c0.9,1.3,2,2.4,3.3,3.3c0.8,0.3,1.5,0.7,2.2,1.1c0.8,0.6,1.4,1.5,1.8,2.4c2.5,5,3.1,10.8,1.6,16.3
	c-0.9,3.2-2.4,6.2-3.4,9.4s-1.2,6.8,0.5,9.7c-1.6,0.8-3.7-0.2-4.7-1.8s-1.3-3.4-1.9-5.2c-1.1-3.5-3.1-6.6-5.8-9
	c-1.7-1.5-4.7-2.5-5.9-0.6c-0.5,0.7-0.4,1.7-0.8,2.5c-0.8,1.5-3,1.8-4.4,1c-1.4-1-2.4-2.4-2.8-4.1c-2.2-7.4-5.9-12.1-13.9-8.9
	c-3,1.2-6.5,2-9.3,0C301.6,323.4,302.3,318.1,305,315.1z"/>
<path class="st22" d="M358.3,366h-10.8c0,0-21.3,10.7-21.9,10.1c-0.4-0.4-3.7,0.3-5.8,0.7c0.3-1.2,0.6-2.4,0.7-3.6
	c6.9-0.5,24-12.3,24-12.3l13.3-2.1v6.9C358,365.8,358.1,365.9,358.3,366z"/>
<path class="st28" d="M351.6,678.7c0,1.9-0.3,3.9-0.7,5.8c0,0-44.2,3.2-58.1,2.1c-6.7-0.5-9.5-3-10-5.4c-0.6,2.7,1.8,6.3,10,7
	c13.9,1.1,58.1-2.1,58.1-2.1C351.4,683.7,351.6,681.2,351.6,678.7z"/>
<g class="st31">
	<path d="M293.1,480.3c-5.2,4.3-11.2,7.3-17.7,9c0,0.4,0.1,0.8,0.1,1.2c0,0,10.1,0.5,22.9-9.6c2-1.7,4.3-2.9,6.9-3.6
		C302.5,475.9,298.5,476,293.1,480.3z"/>
	<path d="M365.4,380.4c-1.9-5.6-4.7-12.7-6.9-14.4c-0.1-0.1-0.3-0.2-0.4-0.3c0,0-4.4,0.1-4.3,0.3c2.2,1.7,4.3,8.3,6.2,13.9
		c1.6,4.6,1.9,9.4,1.2,14.2c-1.9,11.4-6,35-10.6,55.4c-6.4,28.3-13.3,21.9-16.5,28.8c-2.6,5.7-1.3,13.1-0.7,15.6
		c1.7,0.9,3.6,1.3,5.5,1.4c0,0-2.7-9.6,0.5-16.5s10.1-0.5,16.5-28.8c4.6-20.4,8.7-44,10.6-55.4C367.4,389.8,367,384.9,365.4,380.4z"
		/>
</g>
<path class="st2" d="M427.4,479.9c1.8-1.5,3.2-3.5,3.8-5.8c0.5-2.3-0.5-5-2.7-5.9c-2.5-0.9-5.1,0.8-7.1,2.5s-4.3,3.7-6.9,3.3
	c2.7-2.5,4-6.2,3.2-9.8c-0.1-0.7-0.4-1.4-0.9-2c-1.4-1.5-3.8-0.8-5.5,0.3c-5.2,3.7-6.6,10.7-6.7,17.1c-0.5-2.3-0.1-4.7-0.1-7
	s-0.7-5-2.6-6.2c-1.2-0.7-2.6-1-4-1c-2.3-0.1-4.9,0.1-6.5,1.9c-2,2.1-1.5,5.7,0.3,8s4.4,3.8,6.8,5.4c1.9,1.2,3.6,2.7,4.8,4.6
	c0.1,0.3,0.3,0.5,0.4,0.8h14.6C421.6,484.5,424.6,482.4,427.4,479.9z"/>
<path class="st2" d="M454.3,667.7c2.3-2.2,4.5-4.7,5.2-7.8s-0.6-6.8-3.6-8c-3.3-1.3-6.9,1-9.6,3.4s-5.8,5-9.3,4.5
	c3.7-3.4,5.4-8.4,4.4-13.3c-0.2-1-0.6-1.9-1.2-2.7c-1.9-2-5.2-1.1-7.4,0.4c-7,5-9,14.5-9,23.2c-0.7-3.1-0.1-6.3-0.1-9.5
	s-0.9-6.7-3.6-8.4c-1.7-0.9-3.6-1.3-5.5-1.3c-3.2-0.1-6.7,0.2-8.9,2.5c-2.7,2.9-2,7.7,0.4,10.9s5.9,5.2,9.2,7.3
	c2.6,1.6,4.9,3.7,6.5,6.3c0.2,0.4,0.4,0.7,0.5,1.1H442C446.5,673.9,450.6,671.1,454.3,667.7z"/>
</svg>
