<svg xmlns="http://www.w3.org/2000/svg" viewBox="0 0 241.58 80.26"><defs><style>.cls-1{font-size:40.4px;font-family:Poppins-Bold, Poppins Bold;font-weight:700;}.cls-1,.cls-6,.cls-9{fill:#fff;}.cls-2{letter-spacing:-0.03em;}.cls-3{letter-spacing:0em;}.cls-4{letter-spacing:0em;}.cls-5{letter-spacing:-0.01em;}.cls-6{font-size:13.2px;font-family:Poppins-Regular, Poppins Regular;letter-spacing:0.2em;}.cls-7{letter-spacing:0.2em;}.cls-8{letter-spacing:0.19em;}</style></defs><title>logo</title><g id="OBJECTS"><g id="Coding"><text class="cls-1" transform="translate(83.01 44.87)"><tspan class="cls-2">W</tspan><tspan x="32.85" y="0">eb</tspan><tspan class="cls-3" x="76.07" y="0">D</tspan><tspan class="cls-4" x="103.14" y="0">e</tspan><tspan class="cls-5" x="123.38" y="0">v</tspan><tspan x="142.57" y="0">s</tspan></text></g><text class="cls-6" transform="translate(84.01 64.26)">D<tspan class="cls-7" x="11.48" y="0">esi</tspan><tspan class="cls-8" x="34.33" y="0">g</tspan><tspan class="cls-7" x="44.27" y="0">n studio</tspan></text><polygon class="cls-9" points="25.35 80.26 0 54.91 25.35 29.56 31.11 35.32 11.51 54.91 31.11 74.51 25.35 80.26"/><polygon class="cls-9" points="35.19 70.45 29.44 64.7 58.91 35.23 29.44 5.75 35.19 0 70.42 35.23 35.19 70.45"/><polygon class="cls-9" points="70.42 35.23 58.91 35.23 29.44 5.75 35.19 0 70.42 35.23"/><polygon class="cls-9" points="11.51 54.91 0 54.91 25.35 29.56 31.11 35.32 11.51 54.91"/></g></svg>